<mxfile host="app.diagrams.net" agent="Mozilla/5.0 (Windows NT 10.0; Win64; x64) AppleWebKit/537.36 (KHTML, like Gecko) Chrome/137.0.0.0 Safari/537.36" version="27.1.3">
  <diagram name="PÃ¡gina-1" id="CDUG0u5jtn6xDbcKjS9h">
    <mxGraphModel grid="1" page="1" gridSize="10" guides="1" tooltips="1" connect="1" arrows="1" fold="1" pageScale="1" pageWidth="827" pageHeight="1169" math="0" shadow="0">
      <root>
        <mxCell id="0" />
        <mxCell id="1" parent="0" />
        <mxCell id="cp8NjEBjRZy_50qt3RIU-107" style="edgeStyle=orthogonalEdgeStyle;rounded=0;orthogonalLoop=1;jettySize=auto;html=1;entryX=1;entryY=0.5;entryDx=0;entryDy=0;" edge="1" parent="1" source="cp8NjEBjRZy_50qt3RIU-106" target="cp8NjEBjRZy_50qt3RIU-5">
          <mxGeometry relative="1" as="geometry">
            <Array as="points">
              <mxPoint x="890" y="-319" />
            </Array>
          </mxGeometry>
        </mxCell>
        <mxCell id="cp8NjEBjRZy_50qt3RIU-69" value="" style="rounded=1;whiteSpace=wrap;html=1;rotation=0;" vertex="1" parent="1">
          <mxGeometry x="790" y="-844" width="200" height="580" as="geometry" />
        </mxCell>
        <mxCell id="X5cU8cXzKxnY8WcBjPGw-1" value="" style="rounded=1;whiteSpace=wrap;html=1;rotation=0;" vertex="1" parent="1">
          <mxGeometry x="370" y="-844" width="200" height="580" as="geometry" />
        </mxCell>
        <mxCell id="X5cU8cXzKxnY8WcBjPGw-2" value="" style="rounded=1;whiteSpace=wrap;html=1;rotation=0;" vertex="1" parent="1">
          <mxGeometry x="580" y="-844" width="200" height="580" as="geometry" />
        </mxCell>
        <mxCell id="X5cU8cXzKxnY8WcBjPGw-3" value="" style="rounded=1;whiteSpace=wrap;html=1;rotation=0;" vertex="1" parent="1">
          <mxGeometry x="1000" y="-844" width="200" height="580" as="geometry" />
        </mxCell>
        <mxCell id="X5cU8cXzKxnY8WcBjPGw-5" value="&lt;b&gt;Devops&lt;/b&gt;" style="text;html=1;align=center;verticalAlign=middle;resizable=0;points=[];autosize=1;strokeColor=none;fillColor=none;fontSize=36;" vertex="1" parent="1">
          <mxGeometry x="395" y="-904" width="150" height="60" as="geometry" />
        </mxCell>
        <mxCell id="cp8NjEBjRZy_50qt3RIU-1" value="&lt;font style=&quot;font-size: 36px;&quot;&gt;&lt;b&gt;Azure&lt;/b&gt;&lt;/font&gt;" style="text;html=1;align=center;verticalAlign=middle;resizable=0;points=[];autosize=1;strokeColor=none;fillColor=none;" vertex="1" parent="1">
          <mxGeometry x="620" y="-904" width="120" height="60" as="geometry" />
        </mxCell>
        <mxCell id="cp8NjEBjRZy_50qt3RIU-2" value="&lt;font style=&quot;font-size: 36px;&quot;&gt;&lt;b&gt;Sistema IoT&lt;/b&gt;&lt;/font&gt;" style="text;html=1;align=center;verticalAlign=middle;resizable=0;points=[];autosize=1;strokeColor=none;fillColor=none;" vertex="1" parent="1">
          <mxGeometry x="985" y="-904" width="230" height="60" as="geometry" />
        </mxCell>
        <mxCell id="cp8NjEBjRZy_50qt3RIU-20" style="edgeStyle=orthogonalEdgeStyle;rounded=0;orthogonalLoop=1;jettySize=auto;html=1;" edge="1" parent="1" source="cp8NjEBjRZy_50qt3RIU-4" target="cp8NjEBjRZy_50qt3RIU-9">
          <mxGeometry relative="1" as="geometry" />
        </mxCell>
        <mxCell id="cp8NjEBjRZy_50qt3RIU-50" value="&lt;font style=&quot;font-size: 14px;&quot;&gt;Git Push&lt;/font&gt;" style="edgeLabel;html=1;align=center;verticalAlign=middle;resizable=0;points=[];" connectable="0" vertex="1" parent="cp8NjEBjRZy_50qt3RIU-20">
          <mxGeometry x="-0.231" relative="1" as="geometry">
            <mxPoint as="offset" />
          </mxGeometry>
        </mxCell>
        <mxCell id="cp8NjEBjRZy_50qt3RIU-4" value="" style="shape=image;verticalLabelPosition=bottom;labelBackgroundColor=default;verticalAlign=top;aspect=fixed;imageAspect=0;image=data:image/png,iVBORw0KGgoAAAANSUhEUgAAAJYAAACWCAYAAAA8AXHiAAAAAXNSR0IArs4c6QAAHxVJREFUeF7tXQt0VdWZ/ve5gSSENyQIiIZXIC9IgqiUEZPW2tKqo0UFW2vDmo610nGm7axOO1ohdmbaeTid1uKjrq6Edq3aaqeOHVtarSbgVNRCyAsSHiEXRZCAvJIQ8rhnD+ee9zl7n73Puefce+6Fs5YLb85+/Pv/v/3///73v/dBEPCDAAAH3Ifr5glErXjzvdwLk6cvB4yXAuBihGEeBnwlAJqOEJqIsZiDAEljGUYAfQDoJAAcxRj3IMD7EGS1jhWGdu4onXRKpsfFyF0UdT3WFFWQhnTJPstaz1+Hs/BqhOEmDLDSF0Yg2I1E/LoowNbdpeNf86XNNGzkkgPW8rYL82Iodh8AXgcILQpUZgiOQgw/jzD62a6lec2uNRlN84VIw9FIuWSAVdV67gbIytoAGK8NFEz0xl8RRHhy55K8l1LUf1K7zXhgLd1z/tqIiL8FCG4nchZjAOTABu295CkSynHXV3vHb4gC+l5LSd7vkirpJHeWscC67gCeODJ0/l8AYEOSeUrszmYyEHpeHB55pKVy0oEw0Oc3DRkJrMqOvnUIhMcBYJbfDPO1PQwxBOjru8rH/cDXdkPQmDOwgnASg2jTwMiqjoEfaVoq4L78kx/6NR6OPbC7asIJ/9pMbUsZo7GWtV+YL6LYFsB4JTL4TBhjSIffGEMPYLF295IJ21MLCQ+9EyZwRgCrcu/gKiSKvwCAmR7YEqoqCNDndpWN+3moiPJATNoDq6p94BYAeBEQZHkYv6sAuaf2PVRCGB7cVZ73lIeq5MhXClyCtAZWVeeFWyAW+19VADr/KKEBr5JKTb2vNJflbU5N14n3mrbAqmjvqxZA+CMAjvDFoSjMch2HsrQTYH0EuHZX2fgtiYs54BYyxcda2nKuKCsrsh0DzPDEshSYBk90SiFZjD+xq3z8K17rp6peWmqsqvaBHYDg+uCZlnqTigGO44hwfUtxbjTQ8SqTza85l3bAqtoz+DRg8UuBMtnauF/c9ko0hj82l+d93Fw9CKL8a9MlsPzr2AuPK9v7Pw8AP+WJS6mUWuNYIsYgpGGcCzDUNZfnbfLCt1TUcQmsVJAo97lsH56OR853AsD01FGRgp6lxYGaNBgRVjSXjHvLNyoC1BNpA6zK9r5nERK+6IqpATKOSoeGAzlrIq4xlSxa2r/xtpQkC6m8HlyzDABB0+7yCTWueJCiwmkBLCWyvs3Eo1SAhiQkNdxgAoSDNC24kYEnpTzTAagCT0Yo/uLupRN/kiK8cHebFsCq6hjYCgCfJI7KZRxJ9bmcNInajyxHVYFoKoWPucZ6Np1l6sHUnhGn8twxAi8OwEMtFZPm8xGRulKhB9ay9v6bMUJ/4GaRDQiKneFsIC5Ym0DlAyFEJWnSQFg5OWI1eoTO+Rq0HUWJ04fhod1Vk57gHFJKivkErODsUlV7/28A4FaS52HWKAbN4uaEjHaEiCpps2AcTRnZpJlNmVXODj6VOidUKam0ItjfUjk52Hz9BOHoE7ASpIJSfVlbfzlG0Ga2FWbV4eSbkIGntuYCSFQCCBPKBjyrK24zbXLrDuSYe1EKinB3yzWTX3DN+SB0AKHNUAOrsvXcfwDA151SEEw+CZJ9ItemjOy8kY0fQ8GYEWLguFJPp8++9lPpNr0xVjDSieDl1mVTb3UNrCRVSBmweCZOZWvfEQA822QRbDPbWdJ04OkAVP9PXZ3ZFJSjMCwEMYFntayyBlNnBBt4usbFozCn7fppR5KEFVfdpAxYLCorm8/cBAJ6lb2Kt5yz5hasAyAMxNmbs5gymkahDtCouhRAsZhhfG+cKRgear1ueiid+NACq6Ll7H8iDF8lLLfNi3emq8R0ehhitQBBcoYMWKYuKrS1hMswhaaQeOqh37deO221G1wmq2xogbV01+l2hKDMeqyPbip0TcJyhq3GiMunoUhE24tUCHUTaVcCnu7ueTAgGQHEsrKm5+66Bo0kCzC8/YQSWMs7+q8YGRo5ZgKIbUQyh2XBGp12mlNs8alMEXNedikRU7VDjrAGFgGQoNAXp9NtpF33qYiLGCR8rO266a+zR8Dj1bJb4S0RSmBVNp++TRSx5Sg6wTfh5FW8JgVI7kwZR4e2BjmdPopJN7sChDUnQt9qv77ge7wCD7KckTvhBNbO04+KINbFV2lx793FQ1oGStVZmNAEawYCV5zMRB7D6aPizEU9Y38I/bJtRcE6FxxKStHggMUSpMPwlv75w+cwxuuct1B4nFvS8o5TgyhVOfbuHF02++VgVNXEAD8VeO3tK2cucURLArLwisLggOWVootnuZa+c/IdAFguNWH2SRy2TKiuCHPZKNekFnOuz72YINHnPHOsWww04J1v/4uZefHmUwAgmpjDCay3T0g35c3k4pQtHGXfMlH5beI7F5AYWzZErjrExxwXGd5XtaNj8fSu6678MIG57HvVcALrrd5RDBDhc10Yps1Zzpa0FEOIiqnoHEwal5iMixFdY7Ij7/ZFDMpCxe0fmdXF1W2SCrkGFlnbKn/1QRWXNPaOj+TgPk++iQfTwi1I1Va6jbTbnTRO0RrCKYwMVBzD1+/96Jy3qQ37IBdOorViroHlpQN1XcczvsVvn5s2NjZ4UtcHllWhK01CsT2OgzBrEjbwLM5TQsBzv8Uj+aACitzYfuOsUF0mEjiw3AKxcvux/NEI9Gr1XJkyJTxBdKpolNhNiyuaLfExkmE2kSPtCCF6XI3ZtzbP9J6ECKpuXzXHnLrNbCjYAqED1rKdpyYNXxg6Qx+2Jc6kHFZwWnSZBWsIU/CoUK1hl+ENpZ5py4eR2x4nx4ZMdngEieLKjo8VvhksVNy0Hs/XCNdz1/M40jnz2Ki2/ndpWkw57ZRTMs6LOaatNVc3aiCO9b5x7ScDiZL4x1CwengEg4DFpR03zTMnRKZYrKEDlsSPsjfePwUYpnDxhp1XY2pGt1zyhWykTWN+4HGoPJcaiFTcbNntGmwUIlfu/9ic97n4laRCoQRW6fb3OwDjUvIiz2iSEhUsm8smIFJMmRm51mOBbFNmq+/coG2idP5pSwQ2bRLZo0leiVACq2zbkZcBw6flxErObACjkxX/f/cmzWzJ+OoHu+VjmDj0sFlP58fnzkseZPh6CiWwSpvefRwwfI00BI2/hpPD+oFPecvH8bEJiAEgqsIh17PTRz3XrLr3vFs3ZAuN4fddn5gXsmS/EDrvEvdKGw9/AQA1kBWPWaDqL6PCUldX5jwty5aJk3PswhSZFKPDDpCqQbVsCcLi1Nmwm+Nr2vxB8G+dN8//Bz49krxSssbicFWSRxJAyeuHSwFDh9wnw0dhujDOGokdALV04HKV6nV1q00URiKjiPHd+1YvdH8MLGCBhtIUxrXWa9EPAGCGzbBRcUJ3QoxJ8sicsk5gr0UjasfJ6JmpNm/amtLKI0SjDeUpr5QRhbGz99181VEXVRIsyqeFwgMsC73Fr/b8HAHcY/eYHDQI15gJ9R1YbV/+G8IUbnZgnFKhrfbcSI8JcOYBYoCWfZ8qqkwQKYFUDw+wLMMrfvXQfQjQFtspHYJpcHbWPUbadVvk3DwhuiArLB2AXJIjAogxUxD6btfqhf/I1X6SC4UWWPNe7Z6UjdEZw9FmLtakIvLuJkxBXzXSwyq0tYQgxlZ03lbi30VsXBzmKxRaYEnkl7zS/TzGcBe3RmKO2XKqR4uTcUS93IYpNI1nXRw5rzbY4QqtRPu+WxY7pyQz+RFcAd+AxeXeuBzHoq0HbkMAL+nnu1w4NRymRaJZClebN6nlzxfqiz+vcS4jshhOHPG13K/tMIf2eUX0jX23Lv53lyxNWnHfgOUPxXZ4Fm89sAcDlFDbt3vXfPETRw2k00Fqnrzo41uVOicwsiPtEh8wQEwYhRldnykOVTqyUUYhA5YdPsW/3bcBIyR9Ki7+2E930bMDTDB1G6agmjIrjeZ1K/sSEr1h0yUkDMWo9xqPlzyx//bSh/yZzMG0EjJgkQ3q4t/t6wGMChVo0S9/JQLPfj8VMSLMFKxkNAXbDXusHSRrgNd0cpsrwVUhzIjYWGz+/jVLDgUDCX9a5QcWjxPFU8YD3Yt/2/kljNHTsspyxJV2OEI9FsF2hkkaiM8kmWsaAUDfA7eGrLRwiiE8YfL5LORhQI8fvKP07z2wMalV+IHlkSy/sLbo5a43AcMKOxmWECoTeJSL2bj37uQONLfar5PaqqknzJs4D2X6To6O5C44dPf8sx7F4bGaeykGDiyPI7FVW/Sbro8C4Nfk7IV40ricPM6xd2eLVxsuOmOZMh2nii/HcQmJiXjakX8WY0irWgxfOnDnkh+zqobhfdoAS2JW0UudjwPgr9FMhXcAGQ0UwaehSUpNSzZaPodUY+K851zVYgwvHbxzye1hAA0PDSEGFln9Fv1Px58B0DX6hLbv3Tn5KBpTTBqBh1VWW0X29h3DE7bERb78MYTg1CiKVfWsqTrsgtJ4UfdGzG0P5PIhBhaZ4Pkvti0TQHgbWU9K03wUY0KgkuOutuzIdI4AK5FCRnyMFvAk7VHL9GEAAd11cM3SX/kj8gBaITAyTYBlpnzBi+33Igw/YwpW9Xod5i191WhPDIw3Z2UiZ6DVrim5vkgAGIuPdq+t+k4AcAi0yTQBlp0HRb9u+yYG9F3d+aYFoixIcPRp7FOPHa7gXoZSBGmh2/ATA3qme23FA4EiIKDG0xZYEj8W/KrtuwD4m+ZVGC3OxYiAUl7zXK7rnNdnAR4pZZUkXAzPdd9T9dmA5E5p1j+PLC2BZRz+whda/hUD+obuqPJrEO0qUR5kUoFH//KEFKcXDfWcxWZYjQroue61yQaVvxBOS2BZWbDwhZZvY4wfI62B2Ht3FCAyFJxOg4NG4pCVKSFQDs892/3Za+7nqJqcIh6VWPwjthJr0v1Z8ELrFwGLz7IGo5o27dSMMeDpeu/ODfN0jYQRki/btTwX/77p0D3L6tJdFqr1yIRxxMew8JfNq0QMz0qxVOLpGMIssusrwpcnFA5xTUIvkXaM+xBC93d/bvkvMkUYaW4K7aKe8dPWvAljR5/AGNZzCYkBBJKhNAVgTXdHGCP4HItAORyyVcgS/ubgumu6uehNk0KJA8txGtNecs19Awv5yld0DhYKo2ItIPhCbl9f4YdHe2F4aNgsCi8axdiC/Z4hZ9fftrmtfJRJEMSCGVNbh68o+GFz2Xj5cG4GPYkDK8XMiINJFGsB4AuAQcnZAijOFeCv88fAE+1HoeXdE4BFkfrtZSYyjAFWGsapzr7Zl5J+lVw5HR4omwUbjyv3eCAUBYybBCxs2Vme2+QnS/mmpJ89ym2lLbCq2gc2SZoJY1woXUekPtpFZwDw8KyxUJwjwMGBYfhJ53FoP3IScEy0pNAzwhNawzyRcoKADM3PuGIqPFQ2EyqmjIPtfTH48YkR7ZiYoZsowrBFBLGppXyCryDzHz70FtMKWAZTt5GHSasmROD+/DFa0fcuxKBhfy90HD0FAwOD8b+zN41JyDLqAeX/jQ0ZXK0x2WOhbPZU+HxRASyakK3R8s/HhqFzkHnzUIMYEepainOjpPGmShvx8D4tgOUWUOrA87MQfP8qXZhGhrx9oh9eip6Cjt6zEBu8QD3/ZQ5PmK/2kH1v+9H7SPZYWFQwCZZcMRnum0u+P+7eQxd45CMBP4oAmkgAuwwsLhaSCykmj0tDkVpQzaETCV3nhqDx2DnYe6ofTvYNQt/ABcCjo3IVhqVEEQGyc3NgxsRcmDM5D1bMmADV+fKHImiPZAIlU+jqQRAFTAaY1k6IkBZajVXR3lctIKFRO5ZDk4K6ylPfW5hbnIPg4VlkreUk2MODo3B6cBiOnB+B3qFRiIly7moEISjIiUDe2CwozMuGeXm6qeUFylffHYIT0icS4sDVDgqSq1vexzUYhi3N5XmbePtLRbmQAQtBRef5wkgM12PA1X4wRDKH9xeMiTvxYXhUp90HWqJiRKih+V8+tJ9QE6ECVqJmj8aJz0zJAum/MDyezCCdcMk8hlJ7hQZYyzrONzK1lFsfQinv5MQnC2wq6bxOuyu6EIqKAgqH9lIGmnJgSaYPxXAjAjm4qcehZK/ZGJcyv1ddFDnnXX1o5XmceFfC9FBYMoPP9A5z0csaj/W95HvhEJnGlAKrqqO/FgDVe5CR6ypSJP7hmWNd1/Ozgslp97NhtS0pgi/iUJjGlAFLAxUxYUrNX/Hv3/wIwPevzglCnFxtSsFQKShKuHzCcL2NT+MFVJfqVWMAwGI7QlUd/fWAQdrfS+ojrQ5XTSA78WyqEyP1x73D7mNXiXSJoKG5bDxfhkci/VDqBgAsZyor2s7VI0BJB5VEVf4YBP91dW4AbGQ3+XeHB+HESHJTKhGghuYlqQFXwMAy64HKtr7Gi9FjPT5lVRNJ+P3w7GwoyTV/vJUNi8RKbD83Cs8cH7ZnTidhvEjEDc0VE5OuuQIGli6QihZJU0Et+dSLesVG8P/eMDECD1zhPhKfCLT+6b0h2Ds4akjb4Ryn9hEpzvLaVSXm8tLHGFqSDC4uYCXqf1TsPleLEE7K6o8FgLg5nDuOVczX95/bP+Bre14awxgaWionJU1zcQHLy0DUOhW7T1cDRo2JtOF33Ufm5ELJuOSYw21nR+CZD4b8HoK39hCqa6mclJQ9Rn5geVBbFbtPFwKGHud8QlaeuP/vJVBJ4ErG87eHBhhOu//jM4/L0j7GdS3LpgQOLn5g2aTARlrFrtM9GHCh9etcYfj9yFWS1srSw0q0C88S+Pv2syPw9LFB974VIBABg0DxmRLkXxSJaH3L8imBZqcmACxGWGHnqUZAUK0mwsVLq1g0/KtlhVCOwwT1fs20bFiTn62lW9FGk4g+kUC17cxIPBWamNdliIcm+X0UpL3FyinEzFQ/NHkgwKp452QtRsnZqvHKhPwxAvxg4Xiv1bnqfXbvOa5yKSmEIdp67bS5QfXtO7AqdpwuxFlij0ZwIlNeasSH+tLVQ6SBfvvqPCiWnHgnLnD0T2p/+5kReProoC/0J0ofrf5FttS1LJ8WiL/lO7CWvnOiEQOqlpwX9WPeti9LKLdxpPp96fgx8MjVzmnE3DPa4nJ+J9oPnedj8ewMQAIAFm17gqke/8UdkCgS8PqW5fm++1scwGI76Vpo4Z2TtSLGUiCU5jL493f1IGgCznWBZA6LJnJjh7dg58AoPBbtJ7mU/o0/gXEb5QOAoq3XTffdJHIAi5edAEve6pUnqKFVq/Mdtvdr8nPgzhn+hh6efn8Atp2WT2CnYvyCtChQxMbVP+C6thUzfDWJvgFr6Y7e+ovJZrV2p8LqpITrd/5YBD9cNJl/9nCUfGjfWTgxrJ4ZDNd4yfKBqAjC+o4V/plEX4BVseNYYQwjJRDKvEbDJyXuXz+PzpsIJeOldJrEjfi2UxfgqSPnk+EM+EKvwWlpav/IFTUc84ariC/AKn/zA2nLpjoJm/Wm66/86u/GKdnw5Tn+OPGPdffB3oERU9hOlYRf9AbVHka4pmPFTF8c+YSBVfbGsWqEsLQS9GG+J8HpJ8zzgrECPFFMPrHMNT0Nhda2fugzH9T7uvzQpwz+Ioi2r5zpiyOfOLD+75h0EMKXM4Buhehn+S/PGQ83Tk0snWbbqSF46r1+P8lKflsI1revnJnwtUoJAUvSVgBiYxLmkkufJX6trCsfRPKxNi5IzIn/yt5TcGJYOjrv5KsZP0+XuE/nt47HGKJ7Vs1iay1GFCohYJVvf19ZCSoTK+xOBIO+RxdOBilo6uXZ0z8Cjx08Y77QNYn8iHflU38Xj+I1tK+anVDuVkLAKtt2xPGjaqzQatjeV0/LgQev9hYwffLwOWj60HyDTNjGZ50wDvRF99x4JVtrOcxAz8AqbTpSjxDU6tdJqzsW6lZO+v0uyI7Aj0qnKoSrFs0a4if/vntXr7Jzlb7jl3faZPpFEdbvrbnSs6/lHViN7xJuhgqfz+DWB9lYNBlKJ7g72Cppqiej0rcpfR5/fHfbv3idG/ow4Ojemqs8ay1PwCppfLcWAUj+FeOuSZYx8OLNBFtHAtXGInehh7r9p2FPn+USXTdkshnppjXfyiJANR01czzFtbwB6/XDUlqMfJFsOuxYGEdJoVedAvljI7Bp0VTIz6bkxBPmyt07P9CFGSg/DF/eVHsMsD8EqGnPR6/yFI13BhZF4ZS+dthwKTUrgJd+7++eNR7unD2ey7Bt7jkD205ecMhaSL/xGw06EsWajo/Pda21XGusktd6agFL2aGpsf3J6Dc/Ows2Ly2Iq2M5v5z+bGg9DieGpNhU5vFDya1v2HvTXP7Qg4JK98D6Y49uBn2z5uFraNPiaVAy0TkS33TiPDzZcyZ8xPtLUXTvTXNdO/GugLX41Z5qhHGozgg68jCBtUN1/jjYMM85Er/50BmQwJVJD2kdgRGq6XJpDl0Bq+SV7nqcogs9ki08yXl/smKGY7d3vX002WSlqr+mzpvnuXLiXQGr+A/d2jlBfVGi5jXIf9HvRU//3xvmTwFJc5EeSVNt7j6dUeOlyg+jaOcn57syh1RgkaxI8e+7pfWuzmfbJ0ottZL6Xh2Kf/SVTsqFTSXTiCdtHmz+QN5wNm1qmcdv/y5hKvkjic17/9LX1LpWL+COxHNrrMVb9yftWkff9L0Pgce60gIonWR24vecHYKNe3p9IzNNGmrqWr2Q2xy6AVb9xRMdtdyramsAL01X4zX5ebBh4VRTNGFz9yloPD7gZockA6IRONr1qSJuc8gNrEW/29eDMCo04UPdtFRiPbadsgx4L0Xin7pmtkmpPLjzKBwfGtU3nUM8fhGrd0AQ5oFNPuq9Wso8sL4XUE3X6oVcwVIuYC3e2lkIouBwWELlO20TNr3f15XNUMwhgsbefth84JQlIJre4zM4zYyPB6GGrk8XcQVL+YD1285aLKJ6rj0O1yZP2cF3Xc+eTJBIMoDT5SOlk3PgsXI59PBo23HYc87ytTCfkxr4+Owf3/j6i/M7uu+WxVzmkAtYRS931iOcmgtpw+DYFuRkwYaiaVA2KQfWvHE4DCSljAYEuKbr1mKmOeQC1qLfdPZggEJ5YupLrUvp99qrJ0NBdhY8sf+EIlSk+Vhq8tAlwQ8Mdfv/sph5apoTWHuVbAb1EyS6TyFnHKqLnsx9n5+TFd+QPj6o3HcVZ4E+Xnm6Ze741fEB4KZ9t5Uwww5MYC18saMW8d51lcDeXMp0++WO3XIguv/2UqafZQAWGRWugEUg8TLW3MotleX5IsoCFuZ23VHseBsgj8aSrtHWvyRBvS5GYUgg76VzgspWjev2pXupDB/BdFVfsvHKvVZawJd2nU6Q4zeIyRX9hC+4+lAfI6g5eEe5owPPBFbRrzt6ALASGFUvXVU3mwVlE9bgY8WT4y7/1nyuTOQHgrr9d5Q7OvBMYC347zbtHGRKwjX+n31xEbYx7sSodxVn2k6O+3FJHz0/eOcSRwfeEViLX9xdGItFejxKIvUSYAXEiTMlJYHHdNtLjB5Ys8TRgXcE1sLn22oxEqXNZ4NHGeCxEHkBrxgP6y52En7HhxbM+PRFjNK+1k0w/ekCC6p9sebgXZVUP4sTWNapn8m/pbGpOV3WNe3l34ZLKL0Da/7zu+MfrFTz9S7/m5wPpKYDny+albqDayupDryjxtKAlTRD6P78q3opkNVQqrolKEOQBMMc78I/+uWW/GpP+ppY97pKaqYDBViyWOb/ojkeakimj+UnK2Xh+8XK9INSwONv6l5XRV0ZOmssCVgYF+qrQvXjL6q8/Pmtp7sw2pPumRaNd5H403/Q48vM9lG0+54q6srQEVjzfr7T6RBwKvceMn7zKFxbYWRqRBSZG72nkri1QwVW4XO7CyM4JqXLpG0Y69IO6AYvN4/A2lEoiFmSKbR9A8aQJ+OwTFJiQnFkGr6fprVnvdjM2s+l8R5hDNIxMTufwz/+Q/cupyomB421o1CIZUnOu4PJYynsDHxvGpK/47O3porH4FeapOFv/2ZBG/qmIODQvdfyAMtO5NyfvdN4MbErxFdt86V5hMwZzAhyEMYNh+673m24QR77vJ++ZbqrwRZ3VjQ4NQ5/+b3poLQb/klTJv6xJePBbsOegMRz60FzN+3z1I8vwg0bEcb2BUDru++7lnoy2nFVWFi/oxAJ1o+FX44LXY7rIcAinhtdv4Ka7OcILAmscxt2xL/tLGulNN4rUxcRgXyNJ5P3To0+tix/hKHhUO0Kx/OFBmCRHUFJawFg/VO8GeEhXB4EjQOs5YCiYBy1laqC7IrI0mth/Z/S70KQDMUOn+CDHDyqia5f4c+5QonMwp/8adPFPcyN6v1XeuBUvafT+q+KVx/fI+V4lemuBB/b17LB9M1afbzGftTbSfX7wOzlAhg/N30s+j2+x2h99K9Wcl1lxPSxjNiPgwvwRvrel/Xov3Uvj/WetffnXF9bJWkhd/7+pfw+ew42f33yLTxhrW8OyNr5RtgLRrgmuv4GB01l1qWugBXXXPWNhTiWJZ3cCXF8i3hXWpD2IWPbxiLUvXv/DcyTz1YGuAaW2oAEMBjNqsUAN+qrxgzlb3wyZmow1jgurIQPUBRh2AZZow3R9TWO5wdpEv9/h6RKATNrq88AAAAASUVORK5CYII=;rotation=0;" vertex="1" parent="1">
          <mxGeometry x="440" y="-824" width="50" height="50" as="geometry" />
        </mxCell>
        <mxCell id="cp8NjEBjRZy_50qt3RIU-14" style="edgeStyle=orthogonalEdgeStyle;rounded=0;orthogonalLoop=1;jettySize=auto;html=1;" edge="1" parent="1" source="cp8NjEBjRZy_50qt3RIU-5" target="cp8NjEBjRZy_50qt3RIU-8">
          <mxGeometry relative="1" as="geometry" />
        </mxCell>
        <mxCell id="cp8NjEBjRZy_50qt3RIU-102" style="edgeStyle=orthogonalEdgeStyle;rounded=0;orthogonalLoop=1;jettySize=auto;html=1;" edge="1" parent="1" source="cp8NjEBjRZy_50qt3RIU-5" target="cp8NjEBjRZy_50qt3RIU-6">
          <mxGeometry relative="1" as="geometry" />
        </mxCell>
        <mxCell id="cp8NjEBjRZy_50qt3RIU-108" style="edgeStyle=orthogonalEdgeStyle;rounded=0;orthogonalLoop=1;jettySize=auto;html=1;" edge="1" parent="1" source="cp8NjEBjRZy_50qt3RIU-5" target="cp8NjEBjRZy_50qt3RIU-106">
          <mxGeometry relative="1" as="geometry" />
        </mxCell>
        <mxCell id="cp8NjEBjRZy_50qt3RIU-5" value="" style="shape=image;verticalLabelPosition=bottom;labelBackgroundColor=default;verticalAlign=top;aspect=fixed;imageAspect=0;image=data:image/png,iVBORw0KGgoAAAANSUhEUgAAAJYAAACWCAYAAAA8AXHiAAAAAXNSR0IArs4c6QAAIABJREFUeF7tfQm8XVV19zr3vnnIy0RCBsgLCRmACIRREAiKKAgKWltBi6GD9WulqLX16We/hGoholZraf1qbYFi+WylUARlEEnCKAYIGUhIIOQlkLyMb57vcD7W3nvtvfY++9x77nv3vUT08uP3cu+Zz/mf//qvYa8dwG8/v70DY3AHgjHY56h2iScUFtxD8TVGdQK/3bgsd+CoA1ZZrmpUO/ktcEd1+9TGvxHA+i1UygGV0vbxtgIWB9CIwNSytRkg2xxA0CzNcb4ZgG4R/sJvV9Aqb3XYClDRCqsWq++lPYC369pvK2AlekgKPACpZSkI54QAzRAEzQAhAkopPP9tKQxWCbwwhNYAwjV5eTJrAdJrfhNBVzKwRsQEiZ74GK0kgbQc9x5AcBEALAv0VcurkYCKfnC9MGQ8xb4Tf7mORihcDwPQEHcAyG5hawiAf++EVUvWjMnVjubhjGbbmHtXxAsbk1swZjttb29f8mZP8Dsf/a+DddvbM1+wjJe6eX5gMVPH13MtoI0bATz+QWAhUCXAmIer1lN/WiEUrLYWVp1yx5jdjCO445IZ6wiea8FDP7Dx4McrUuFf9AyFp+OK92zpg3u2DFiMJACFDORctSEwoiT8K9dDxgn4BoLChMnTy9U/pCl0XlONOw0sZTIJeCGyGLSGEK6FVUtWWhdZZhYp7dmN7uCjAlZphy5t7SQ3AcG0qzPziWkN6fe76+PRvrq2C7YezGjRTfhwL9oFFgKJmEdyDt/CMXW03CDNYioLWAqoHIDEeDaTjY25LP8TiH9KowJWkoc/Fus8/dqhP+8ezC8ndqLn7l7Mwb48/O0TXXCwP2/7c+qkiMHM9hxQSc+cM5B5dFETKfenNFfEVBqAKRMaIovBTWNqKsuFNM9+fr2A1bJpWQCp21csa2o+aVqlfvLmIuzLQeDcu6Uf7t06EA8shh+/V+gylgu4GGDRara2UoBCU2prMA+wBBei4A8DuBNuPtk2k0lxf4TWGx9gjfbNEJ5d7vYAPToAmNZQAX99URNMq085t01ejjFt8sl87uEOONyfS24SyavTbiHXXlpcMe8vmoaKaivFWEZb2SZTeo+GyUK5T+0ECAYTJvLXAmDjA6yRvjUSUCtSQSDDBYEEDTLLR06qE//TR1xIjChHnbXqye7kwPIByqelaD0W/SJARbVVEWC5gIsCSwJNmsg7YdXRzWBHJ7BU7CmAYIUAklLdHFj4mP7+8kkwtS4t8cSuxHdRP3ihF57ePRxxuojiAkEYRK3yL4UN5F+KTvFwgr2+1FD2W6SBpnYgvEyM6avVbBNom0gJJK25fAx2PXx9yZr4eBE3FcnMRrK1ijPFUQEs62JQRwWp1RJQhqFsxpJP+SOL6+BqxVq+C+G/HerPw61P9QD+1ThUB3bjWgQhDizyDnmcisertKTiTiOLYxmAGeQpBlIm0QBIAJT+Z1rMB7R8iAL/6GOvowJY4s5yHUWAIqZSbKGZS4MugC9fOAEWH2OEvMci6tfrJ68Mwv2v9Nsm0RPXMuaVvETziwSWCUI4BCUZi70pFIlnWimRtiJ1xcMR+G/cjwXIUJxRawj568csol+coCJrHB3AEt5esBqBYzFVHLAYk02tC+BLFzbBMXVcyEfFFv3S8mgnHOqX4OAand8Zwkb05hjEOPjRm0dFe1SUEyNJ0ylzRhpASltFgWUAxYGV595lADflx8R7LN1AHllgcS0lwFIAWGq5bRLl6V99Ui1ctajWeWsCWzKppdsOZeBbT/f6tZb6Vd+UYl6hiMC7nCV3Ymkry9ipZZY494UfHGZippHMJB4kDyFMqUvD5No0TK5Lw4zG9IHlZ0z+Xx9Y1LA2CILDIyCbsmxy5IDVsrU5wBBCEIgQgtRTBlh4dakY0a61lxLbuNU3Lm2CqfVp701xL/LBbYPwwLZBva4Bkpvycd9Uz5urRbl9aEtTKYBaHqPH6+PaCimMADSpLg0nTq4E/EsAmlyXgsm1FUy3G41WUxH05MLw2eVnTLo2FQSH/dAvjp/Secrs88gAq2XTMoBgdUodPYW2IAAgY2ZMopTH+ruyXdxkSosWCMb64GKbteIuDn//8mPdcJgL+QKmseAj4MCytBUxl3qs2sT5GMuYwnlTEEAVMG9yJcyfWimAxIFh/dvsWnMk12TT6tNPXXXyhKuOBHONP7BaNi8PggCDnZbXZzxAGV6wAEXai0wV02IELNzfF97VCIumVsQLSXa1CKpvP9MnwMWT06Sdir/PfoYiFBh2igGWgsKZs6ph3pQqOGGKBBE3o5zBAjdSzw4vjsC0mfiqDjtzQsX2DyxqPG+8wTW+wGrZtFLEpjwivTjQTFWCazLF9wBgal0KvnB+I0xRQt66OM+V/nT7EPzslUEdAyvEcAJwTj2WD3x+bWWo7IxZNcKknTC5Ek6YUmWYhnZmsRDTaw6wIgDU2xlOI3BVVwQ9U+oqll+xuPHe6DmPxuDFv37jB6yWzatTrp5iYYViwBLMxLxBWl/+rrQZAFy5sAauWFQTvWIrrGAu+2fbB+Fn24fE+vSr9gpZJofKaPL+jI4+nqWjFHUsnV0jgYQ6yTFtDp5YEkctcU2oRpQp0Ik3j3JlBBiC68QpNZ87r7n2X0tl45GsPwpglYD0ls1o+tAEWuEEEueotQRQLK0VAGmwCMMpCHDziaiT+wD42/dO0KzFAePeIEo6r3i8V5pEZ4ViTiGPV7kAWTq7GpbOkoCyljEU+ER1kQJBGcXy7MNlSg07tvp4gmsUwEqI45bNt2Ouz2IkDTA/0My60fADLkORL02T7UWSiZxan4LPvrNeuOG8nkpfrHPV7f15+O6z/dAxmLfKr+jV8d0kYjUeEF06qxqaJ1cCMpTekfLuCplNBytiVZ9Gs38nRjs6mWvMgNXV1TV58T/uva2tO3cNAUAzUwywuElzww8SbH4g6QI+xlofWFgDly+QD1jXtDtI4Rf/8PYheOhV2yQmeXUm1qbg4vl1MFeZObONhB5nDlcXWd892koZMgM0Zx0p2lWYwVhOw5Cu16jYq5zMFWe3xgxYKx9549m7NvSf29qRNTEqZfLQBCZhMF/A1NJWTtyLAxPvLoLrsgXV+kYXu9hHXh2Gh18diphEH8BOn1UNp82sFoDiHzc04Oo2Jq0lKzn2MCr+5d6LeplFAKYPE4QQ5qXmihf0SV6pwuvI6y5BLiU55N+t3vvgQDb/gfu2DsD6tmGhlVzGQdCIuBXGr1ygKS8vScA0KuINQyGTrXy38RLjzp0D7qur+6BjgGoPnC0CgNNnVsOyeXUwqVZG3Xw6KQ5oBBGf2KZt9DJbShUbnBEtHGQ7dEHJvcXrlk6cOxahiGIvcRIcWet894k9f9kzBLfijl/aNwz3be3XJiwi1h2TGBcwNRF4h+lUYUtcWQ0Ca3JtCm44tx4m15lLjb/oQIDqe88NQDuCi5lOZKeL5tUKr87/0arLUAzLAdKuXCAaILnDMOxAqgs8SkZjuY/licYwF7GjBbIQYKziXGUClrxtd63b98Hdndn7iQZ3dWbh39b3MkaSwEiqtYjRDHPFmFB113lglYgY/162oAbefyLGjPwf8g5loApg3Z4M/Py1YQGuZfNqBUMV+3ATZ60bq53sPbrVDxaQIuwluZKbUhcwwiEIQFTO4rL2/qyQY/Qdfzvch8tC6B3K3fb4p064odg1lrK8TMAC6OzsnHf3poHVnYP54/homBWruwRjIUi0IGdaC09WAk0GOaMm01lmiXgJaGtbXhiojBUe//0nVsOl86sjRYH8ZvGb8WYPwMT6eDC6N5mbsGKmUMCiGOAcb9KnvUi2t/fn4LVDGbHP1zqGxcux/fAwHO7L6hIbwXAqaS3Lb+Q5YHUE/rvcdV1lARZ6gP+xsf+ljsHccQQMYoxvP9sD3UMYIzLAiRPv2lRGQOivetBxLrZvcdxICkg+6q8sa4DJtYhe+7L5twk1KTi2UZq7tr4A2uxCiOIvbSxgoirdFfpkQ31MJDkK4Pk3BuD1dgWiwxk43J8VmxFADGgIMHa5DZXZMEDJGi9ZU1+2mq6yAOvffrn/zraezHUEHgIVPuA71vfBrq6sMoEEkCImUQHLTk6bgKmv6oHYTgIrWnmKv2NFwKfProUpSnhzlNRWBjClPg11lfYt2dUdQDuOey3yKSri2QrWujHMREB64c1B2NmegR2HM9AxkBMAkkAi1iHgRAEkWanw7zbAoDW85eS5xa41yfJRA8vVVe4Dvn/rAGzYn4kFFt6eVCAgZMWppBaTp6e9RxUIiADLw1Auc4o9BQFcOr8S3jvfhCDwZ2QoZKq4z5ZDAQzjIB/PJw5Qsb9HAGYoDv+1fs+gYCQEE2o8Fxjx38nU2VWmtL4EolxHmj4bkLQ8H8IdsOqU65OAp9A6owIWmUDUVSobo2NA5Klt2Dcsap84cOLEe6yo99Rr2ZrMaDPNlo7WImBhyBKBdcm8SqitCmB6YwVUakwxN9C5a1sO2+DChyP2KSpAmfuntnOB5QMa6az1e4dg/Z4haBUmztRh+RjHAGukDBUPMAyySN2Vv3i0Zc4lAotuvLx7lglUT1QASP87APQM//0lDDlEvUE7/GBrMMFUPOkcU2EqASvPRzOZOgerRp6d38TaNHzj8kaptzwf7SWyeMNwHoUxgosgJf9SaXFcQCsOYC/tGYJdHRkBKAIQmTiBV7di1GPS5PpuyXK8tuJAZQylj2/EfdAarhqdSSwRWOYp/Gzz/uvWt2Xv5A/WgErulpZ9bU23ZebQ8AmTyUyYBB4lkuXyaFyriIjn+9OMZZp64PlcdEItXDCvFqrSACdOCqEq3gJGIIfg2iHAZRYVNYWsdHlD2zDsas/CS3sRTMqni2gluW8sOeZAG6m2SmQCw1AMR6PBGnkRHw7vyI/CJI4YWP/0ZNvuzsHccSIYoJiFwMQrDRBdt/2yF7qG8h7gRJPQPq1lco1Gc1HogphNHNsBKjEP/f6JMxphzqQKPU4RwTW/FHAFAL3DAG90J9dcCKAHt/QLM9clNBOxkQMspn98DGYzk9FKtoYyYt2voaLLxXre8INQZCM2iSMDVsumZX95/sTVmNbQLBWJHxnvDGvMNwoBr5hIM5ZkNRN+4N5i8bhW0lJmrDi44qR6wISxBr/6x+TqEKY3gGCwpJ/9fQF0DAIM54w0cJkLmWlT2zBsbJOJbR634sDhQDP/5t6c39QVFuE+gEltxb1JyVJ2fIszXB7CNeEtp1yc9L7w9UYIrM2r/3hpw7K5kypttlJ7o0g5CfqN+7Lw4LYBOxAqatwJPAQ4N4ha+HcCdaFhYxeeUAsXzjO18NYFK1xMbwjh2PrSbt/+PgAEmPvZ1ZGFp3cOwq522T7JjaiTiePxJq2pHM8tSbigVIAVZigJNA04Gda4fiQdb0oHVsvm5akguB37JiydUcW8QEkBtuZSBSsBwD8+1wc9IlAaw1AsEe0CjvYp41q4TwxR8FE99nFJxGvTR0+fXa1RgZI1p9eHMK2+WDTKhtGBvkCDC9np5X3DgMCSDKXEvaul6DtpGopLKXS5wHNNWjQA6np59F1H1I12YsDF40gP0O8lEgDzGDgdgZAfCbB2pgJoXjqjWjTlcL1AqXWozNc88P/Y0AdvdElgcc3E0zhu2seIebVPBT5fXIsDGmvK0fQJPeXwM/+u67TUOi644m8OPjS59MU9Objj+QHoVElrptUtb09AFqMS+RjTps6Bi3Qp3pMFQN2AqaXJmDgnQOkUj0npROJbYp9i2/CmUrvclAYsxVYIhnmTKuAPTm+QmkX5+/RwiQ2EZ6fc5k37M6K23GYsprFYvtB4jWp5nBepbC2BG4GIYPr4GY1WTpCzk6Wx1MPUNyEAmN0YwsQagk28eRzIhNDRn4eBTB6e2JmFNTslU/HRMrgX3gerNG3lj6zHe3lRDaUDoTwo6gRITeTdAJ6DEv+dxx5dJUbkSwJW0LJ5ZwDQLJLKQQifP68JJmPEWuyFQgXOaBp1hO7BEL63rs+qboiKduYlxmgw3IFlKhlDopa64IRaw1Ja88ln7jIUBxQH3MLJeaiMEfPZfAgHeySg+Gftzizg/0akG69PayhtIsm1t80Qj4xzb8/HXIkZKhJhlwAS4TiHEYmheGSepXxK0lrJgUVsRRopAMFYcyfJcXwRtmKBS2KMf36+D7oHcRwfeX/2XzKLAnAWg9npHp5DJNN65Ul18I6ZKlXDTLHLUOod0Occx0k+cKG5w/r4uA8y14a9Wegc1EUtFtAkY5kHqgHnNPugB2s/+EKpmKh3R+xIAIwyE4tdcVOpTSMLtEotVpLWKgVYevgWCecPn1QHp8+o1EwQl/wlYD3zxhA8vQsrSn2AkklmAkq0lMbvReIGv3/GBGEC6WPKduzLo29OcYPZTu8ABGPNbcqLdE/vUF6YvawHU67cfxLB1ZYTmoui5wJALEIuAOMEQIsxVDHvj2sx3LWotHLEue3tRYATG45AcCKsc2HyuFYyYKmeVfTgCRgo4K9aLE0PD1i6AVMBowDgja4c/GjzgDRlzDt0c4TEWEakS8YyTGViXOT5yUO4akqZQMckugA0robNRYd6szCjPgcVKmCGu0niNz7RmoWNe3PQOUjBhmiVAS2JVinE5fIKe2/EhlqcR8MGBjisLosDkoBncoYssV2i1koILDku0Dxw+WBPmFQBy09v0J4hZwpe7KcfeADw/XX9oj6LM5KfwTxhidRb46hVzhf3n4SpyPS5F2qbRIKMWeu5XUPwXOsQNNUEcO1pleKv7xMHNDSLG5G5FLh8nfkohUKgiObyooFSHQZgKRinYM9bxWDCBywMoQOmDoC0N2jiWqyOK1E0PhGwgi+9HFIogISzAEYQwGfPbdQDCygw6poiYyJBDLHackDWZ6XTAZxzXA0sObYa2+/ApLoUpAOAXF6anze7c7DjUAae2z1saTgEomYqS8uZy/EByphAV8YrZgOA7qEQHts2AHs6TUJwYk0Av3daJUysScBYrIz4qVZlFhFcPm3FTKQ0N3HlLE4kneUXvZF0Xa+lIu0eDcUDoTpPiOspvWdpM5vh1oSrikfjiwNLNPGA2xFQlilU3hmawtNUoJQzkxb04h/GY+zOYEigCs6aXQOzmyqgxims87HCUDaEPV2YvB2GJ14fhPlTq42msvKUtinkWirKUOZIdBP2dOXg3g39VtCXqmKQsX7vVGSu6Bnig9E3UgGEmGx3Zx4e2JqBzgGVVFbxCNJfxZLL3vACLzH2AcGpenDDBxGvz2MaLYDZy1vDVacULQYsCqyg5WUREOXVB9x0nTajUjU9iyajOdDeMbMWZk+sgtkTK1n9U6yDFbsgkwtFH9E9XXnY1yNbbPOL4PrOaKmo9nK3eWzbILyyX8aiuBnnJzIBwfWOCsC/8R+jq8Q6IcCuzjw8+EoWugZEsFExk8tQSQrxFKPxCLoV4LRNmimDsWrbC2oty3u0AGXiZHH1WlyDJgDW5pAGQ5D5I31EDHbjOxthYo2U5K62QnZZNL3GqiooHU4elghDONibh9cOZ6FTlQ77vD7bJCqAyWyLAOSbXTlYt3tImD4f47pHRlD9rhdcaqcsZUPAwr+otf5jfQY6B3mFg09DeQCWgKGMaeP5Pg4oxwvUXqNHc3kZzNq+qDksDCwRuwLsuici6JbIZvVTnzytHponYjmK0SoIs3fNa4BF06px1O0osRTvj2Hh3b7uvNBtPJ0iAeWwmToLOs91u4bhV7uG2XnL4/BMgu/EEVwffQeWM7Prckyg2Y4xWAjwT78cFmZR/hdTuy4eLKuPGglDYeooMLlAGfyUYQ5b7McBjkXyGSsqRmvNF4nEFwMWdt1bZgQ7CxOwCPiyudVw0Zwa/YBmTqiEM4+vh+ZJ9vDzUaKr4OZt3TnY2Z6HLgzAKoHHYaXZTC37xbZB2HZAmT4NOD8QxQ5tQhKg+h0OLuYe2p6iisDT2YcgzOKGNhpdY6du3LorFxAm3hXDNL4AJx/qxcFFWozpNDeQypLRLM6FIr9wTKsgsFJfehlBL5mKMZRlCgOAuRMr4PdPqxf3H03f0tn1egiVLZGTRIFGDj8E1ZZ9OegasnN9eF7EYLj3+zf2Awp1XsosCU5WTui4FgeU+lUVLQg0ILg+sgSZi/OT+neEwWyAYSD1ydacDpxa8SxvnMmOvEe1kDKBVgWD/ZtJKnvYS7FkZL+xkfiwoDmMBxZ6gwC3a11VwBTiA7rhnAY4Y3YtnDOn3moyG5nvz8FNuZf3DOYFG/SpSSg4U2Eo4fHtA7BXVFmQs2H3epCEprSYAyzr1BVwGmtAgUtuo1+dQsBSy56kcASZRmYCoxWgvAzGpGOSBTg9cSoVw4pnKB8jmkLBfBgW9A4LAUv3tULg2ACjSLj6+9ZQ7hvOnQB/fM5kD1ONnIFGuiVqmFcO5qBbNfdAJkLA3aWS4IUauUWAxU7Cp/TwxUDm+vCSNDTao8oskBmuZsxFHuPWrOjNxbWPm8JxmYSLda2bVFzMZiYCYR7yoZzA06xPca4E2ivCXIVH8xQC1s5UEDTrwCiByxfPCgJ49A9mi7Y+R8tnb1cONu9DTw+E2bt/40D8EH5e9lNA9FuMRBZPeQwIl+VnVVjgwmPLcQlyZW4MCWi4OY91sWqCSO7Oij+pui5rfZbG8Saf1ZB6O3VjgyuyXeQ4ppQ5H8bXacUCK/jS5pB7gRJgkrncFMw/fHAafOzUxtIxFe/slb4vzxa7OvKw+tUhuH8Tzldoj6QWuoslvZWm11qM3xj9b3a+GhhOheglJ6Zg8TRZhcYVJQcSwYybTfz3g1uz8FIb9VuIlAgn9OaKmjBdesyZrZhms9cl7Ravs/zA0vrK8QJ1VYIEF4Js2dxauON3Z0BDKeOoygKb4jvBiP3Xf9EDL70pU0i2CfT0ONUi305LC0JzvMI4YKGJOvv4FJxzfCoKLKtrjOIvR4uJ0pu2nGinpBnKat7h01qW9olsV5yhGGt5xLrPtEpvMX78YQywXl6ZCmCFW8bCww7EYA9+chace7wnz1H8uSdbY5SstmV/Fv76pz3eylUXaHZwlzhMReI5sGLmdsZVKByA4Fo0LYAJ1UbQuwwlzaNBFi3HSP1PtmCvBuHWWyXDJgltx6OOn5QW3QWx/2pjtRw91Z8J4WBfFnZ2ZOH1wxkRiiFtVtz7Mx4l13DRZLZ/1HQcY6E3KKsZYrxBBNaHTmqA7189HSowc3yUfrDi81ur++D5XRlWYGjqvoxJZMPNlCAKaMSs59p8laICWGx8IAILAcZFvQCPw1zub/gdHZC7XhyCduUxRpLCYQjzplbAOcdXwVnHVcNZx5mBLb5H8cpBTOYPwRM7B2DtzkEJ2AgTBji8PhJI5WU0dpI6Pp7lRUTwpZd3pqgEmYa6u+I9CODeT8yAC5trxQOjsAGftIh+P9KY27w3C199tC/S8M3XTsnwVGln7Y4PlDWBIcxoCuCS+QnB5Yw/xD3cv2UYXmrLSU8uLyPpcyal4d3zq+Hi+dVw/MQSBkQqFnv01QH4ydZ+WPv6gF3N4BH3cQxJv+di5kv0A6sF84O2SHfFe2NVCjbeeDw0VB29bEXQGHxr4MON9/VBrwqcuoAyPST43M9qVA3OiIo3Q5tCagJiL6cXiqdiiBEaMRxxShow5qW9Q81advjBaDe1bhgKzbX6dWkaz2+uhA8vqYFTZ4wuq4EJ/B++1Ad3vtgDvcPIXtJZiDeRPAnNPUNYA54ymigqWjYtS6kZTnklJ3mE5F19/vyJ8KVlk2KnVSvtfR/7te/ZMAw/2SzbKVG1q1u5Wo6z0PEnFYCkWbzwgfFwRJxJ1HVb5EgojdXakYehXABXnlQtdFS5Pj9c3wffW9cDe7sxC+CPZ3Hz5wGeNwLvARZF3D31V0xz3XvtdDh/To1lAmVCRL7h3DSOualMIPC37s/B1x+XBYM8JYUPiBirLA+L8m48P0eBSwDAcMRJ05XHmEBrETCxh9eMCWmojs5B5Zx2gpvhbPFfm/vhm091w6E+DKLyYWTSW+RVqx7T6I3Ae4GFI53JFGoT6OQMN/zZTJjWkC4IoGIAG08NhmUrn/+fISfn6a8kLQfA5NvvG7IeilCE8BixOkKDC19KpcycEMSUugCObUxB/RjKjn9e1wffeKpHgKgIQ2kvVV/fLadEcOQzhStTAc4e72csBBq2Vdz+2VlQ8VZMohAzucAZTyC54MBxdH/y42HVZJeuTSWdxUuuoqVUMhqjqUyjNZaV9mgwbxWCfmjYBhvg0oWYBqJHoAIPjMXwFGrSIRw7IQU4RfFYfoYyIfzvX3TDfVsHnSoGHnawa+CNVxmtdPAxlsgR+iLspLkumFMDP/ro5KImL46x6AaNN9BuXZOD1w+hqZYjtKnuaqwemBXg9BTWITtcuiAtTCPJeld7NVSFsGCqo6lKt3aJLvFXezLwxUe7xWgqXrelRX2sBksMLFhOjMVH5pDY/ejJdfDtyyayAhNz3m61QhJGS2oyR8uA/7ouDy+8YXcWTHTHR7hSscI6imifOycNJ09PifIbDqy6SoCZDSE0jHEKluP05if74I71GIZgXmIBUa/EfGSUtJex0jhblzUVickR4rvzqTPr4SsXJssNjifQij3/H28MYe3rJozCXgc+HKLYbkpa7hfDUZMyayLA+xdUiEg9ehgISuwhMafJGqpR0rFHsvKzb2TgTx7sgYGsXW0hRDxjXUeHJQKWqBrVjOVJPn/6zHr40gWyIUhhRkpBGMoh9aUw11iZyv/eHMKaHSmZSFdF7xr4ReJUxeJYccu1GC4aJwoB412XLUzDcU3SazymNgvHNpgQ2kiAMpJtlv9PDzz7ZsbEtcrBWMVG5eBD+f1T6+BvlslOZUcTIxW7iT/amIJnd/kYq9iWI19O5tAeTmUnjYkNyDSe35yG98xLwQlNcua08f5857k8qFt4AAAfoUlEQVRB+L8vDERSPtoLZEP3VTgiKWMFy+xIu6yqpPjPhxZWw7ffJxlrtB8RsWaDHpIwG7W/LtU5uOOFNGxow+swo4lGe/7FtvdFsnkYwldTjr+954QArjuNF94UO1L5lj+yIwOfe7TfCit4c4s6BRSty4rGH2juZjelo0Y+I+BwpvgHPzahLFcSx3i08yRAK2ZqaV83r62EQ31HhrEoruV7QDYTyLDDlQvz8OHFhW8xWe+yPAi2k5cP5uB37+1zym/slI6lsQK4CW4+eSU/D594tzWWnmDJjmtt+FQT1IxgWNd4mk7uRWZyAF98tFoNY1N17cIdsnN/5f7uS+Ja7ntM/dM1p+ThvfOODGNhRcVFd/VZBYHeYWOlMBa0bF6dxtnmPZWivPb9sWsbYPaE0eesxgtoh/sDuOWJaivyXu433bc/b6mxCpRaTOXEua49JQvvniuTw4XibWOxHEc5XXBXv1dj+U033ASrEjFWsIxyahpMTGOh1vrOpbVw6dyiiasxf3ZJgblhXwru2oA1S2ZgSKm62MR7khuh0lMkMjd39aIcXD4/ZgKfMb6rrV0hXHXPYJFqB1PPlYdoZ+XkkXflotNoncvnVcA33j3GkbsENzCpRrt7YxWs3ydHa5tWk84BxiCiTYFGSn/EdnNhJhGZ7N1zsvCxk1Vf0wT3oZyrrGvLw6ceHo5hrOhYxXyI09GdckcxjSWqR91cYWR8YQDw82tqYfoY57CSMlIhkd89lIKvPlHrGXhr4muF4lCi+qHEOJfJFfJqAVYpED8QVDDFKcdk4YYz5aRN3BQm+e7zsl1nqND3/3wlD7c+J2df1fXurClu1NlIlNLZtDIVpFbQm+0DFIUd/uaCSvjQiaVVMJb6ZiW5kcW8wnV7K+HHW2uschkquS71fJKuL+vfR9qUI4TGqhC+fN4gNFXLAHMpwBjt+t9cB/Cfr2RNyYxohiuRZdfgU1lNei6sWtxajLFkI5AC1Q1U9LdgUgp+cFklNCaf4Tbpcynbev2ZAG57vg4O9WPE3a7hp4K/sQhCeodTIQPkkzPY8iVDcO7M8TWHe3tD2NbXAA9uH4K1rVgbb1c3+CtMEwHLU0HKu82wygBkrpXnV8AV80qVwWXDTdEdPd9WCf+1VfZJtdp/F9JaRfdaPL7kNYVxDMaac3Av8uwZGbh+yWDxgxW4/cndDHmYTZ3V0NpbKSw/Nuh9ad8wrGkdsgZfRAK8yeqxtjYHkNsZKfRjD4K/+U3VAP9+eRpmlicQP4pHGlXe7QMpuO2FeujNyN5dbkdC6t8gsgzUMGuUcS0ChrQc9qRIhasdon2t6itD+OQp/XDy1Jywq8VM/miX92UCeHVgAuzpk3aczDn29Lp9fR90DOLUwdH6rHBVkkI/vMmq56gBkBkFzd11mcwF+L1FAXzm9GDEnfpKfauSoA9bZz+woxaeebM60teL6t59ExEk2XfcOnxcodU9xteoX01/EjsUXsW1lk4fhuUnD0A6GHtgrTtcC4cy0tN3Rx2JhnEAcO+WftjZifpLTUcX+uc1tEiU3nlMRAdB2OwbVxjXfeb/vBPgfc1HJlLse9Av7K+CH22VrZUoN6gZik0IJUDG5lyUoCvNtBM70RtuA8y8+S6DWdO6eZpuUKHgR+YPwHuOH7QYyxXzrldc6vJtXZXQnm+ArmHTr8sGmPgmAPdi27D4//UOATDvHNLeOxi0bF4dBMEyzlh8xI7blpvW+87FIZwxzYBLp1TGID5UiFm2d1TC9zc0MkDJkTmWxlKDKnA/un+8Kk+O60HqOyZ/s3E5MpD8S4Dyd+5zRbBdbWp3SZ5ck4cPz++HpdNM+KEcOVR6Ph2ZStibnQB7euW50wuioKTZSwLN9KR4AWc8OzD8ma1/sfAf3XvjfzVbNq18q6P6Ct5wzW4V6TGNEEBDJcDXL8jBkqkJmWsMANeeqYFXupvg59tz0JdRgHL6NvApU5DS5IB003iNGEuymRki756u+wBcYNkAsxunWeK+wJQjYrxfCDC7IQuXNQ/A6ceoxl/qfEV1iDrLYhW2vuUHBiuhMzUBdnfLlnOmgtUwLQGMBn5wRt56GE774cdmb0gKLGQrZC0z+MDb2S/aNOR9C+rhY3N7obkBJ4Icv4/wYrJ1sGtwgjBtfcMhPPZqXvQv4CKdgKRDDWqcoZwFQwFMnXYxixgBlhqZw9/swgxWWpfjY+tycMlx/XD+DDlra7ExA8WWb+1Iw9aeepjUUKt7ohrGcoFlTCG/7i+/d5bf6nkffYv0DKPNbFldlgad6jyjLvRbV0wTD3Ji7iDMrB6EqpTHNOoHZ6ZdGw0Es/kADmbr4UBGlvKQTkJwvd4ewuZ99jyJun0R01YRYGHRg86xa/XJe/ZZ9el0lcRE2kR6TaIcLi+bz3pMZiyDBVCVysEFMwfh/BmDMLNeNvko1Rsczr/Vz2x3JTyyuwJe60rBhOoALl9YA8c34XA+08eLa0bhJaqSaXpxthzMHPzhtXOn+Z5drEpFnZUqUOXgG4I/f2oV/Ok7J+m+67XZbpiS6oapNYVvwGhA1ZOrgu5wAhwarmaN/w3zILh2doSwqU1Odo4f6vVhTKABIwFTE5iwNFFg0Yhl84bLq6BuyHHA0iOlYzSYBbQCjf1n1mfhrGlDsHTqECCT+RjMZazBXADP7KuEp9sq4VcHJIi41nvXnGpYMr0CmqqxNJo7HeramL7CbZ/cPfjgQ38478qSgAUtmNrB8YXxbbjdETzXnNoEZ4uWRtJEEmobMgdhcnoAmqokwOzPyIRWX7YCOvP1cDinWEodjI4p/rLK1E378oK5BLDYMHsCkPYGVXkWB5g+X5EzlOevGUotpMvi3WZwET44+dfuRGM0lv0A7ZQJS/jGzEDRVJWDBU0ZaJ6QgZl1OTi2LgsNlXJqYwTSvv4U7O1Lw46uNGztrIAdXbKe3lsRCiDYa8n0SrigudqaEs/WV/JafrixzyvcvfdO3qe3zqplY7SHA2u8ZuJZEnhT69LwlfdMJRlsgMWmJKkZPAxNqT6YVIUdiw2FJ2UsVEu9uSroDevgULYBZItaPQ+nBWZ6g+kicT0U8/e/jE3YnFk0qLMfb2rLTkoexYhkC1jqZw0sYiINOD9wXJPp9yJNQzQrIcy8M6veiw2IjaaU3LZFLIDr2Q4B9o5jK+HCOdXK5KvrUDGu1zsz8IMXBiI5Qrpt8QEbpbO8BX8pW9Qj5V62sB7ev6BBz/igOw8bTazaMALUwSDkB3qgFgahNpWB2ooQKiIBQDkLaG8mgExQDQNhNQyn6qA3h/MjGjBJ4KijaYAYVLjMZYt69RqxuX6IwWi/oheF5l6CFM1OrzSioz1oLe49RU1jAS+R9dhyGUwHJhMnuZPnJm0mk9tNqE6JzjYXaYDJ897Xm1v73auPXxZHCgUjgSaeZUR7pAONEu2fOW8SnDilSgHLPAr5YDmr2MvuWNcNrR1ZqE0DTKmVzWhzYQqG8gH0i1QMwNnHVcJZs7CoMMo0BABu0lwqNuEDyTzYqhtNI044oE0gM93GG5Trc2AR0OT7a8/5LAClbGRSrSWYC0W8Sk77NFhklgprChS3VylvJWlrKDw/rFLwm0KHwRhw8fhN1QGcOqMKLlYm8oW2zL/893XNnxoRsID3IrVyhXzUDsDU+gr4P5egGVTcgeyjlZZtqgwAAugcyMHfre3w1knJBy63RTCfPbsCzpote0KRKdMAYlP1ciC7b43WX4EMR6DHiHMKEuNFAqNKUwkRrABGo4ritRbTYNQYhJmueK/Rk1u0+lUZjcb1WpTRTOTc1ztUxMUoZaNLpFV6Rh2P11uZ9eV2CLCL59bAPVuGYs1gAY2lcMjDDjE18HjvL1/UIMxgVO8o78wV1sr0rH5tAFbv6DdimsXNbKdBxmzOQnDNqtAJYwMUUobR43Fw6X8zUY8Ae3ZXHg70yp4OtkawtZXxsszvFIfmTEVMRgFHMom4bx7Xkt9tDSaBx8cd2qKfazEbYLZpLRzZj59QwAUSBWjd8ZGhp6KBs1esKaRbh4Mr+MhoV7TjeivfewxMqU3bkxvRZOHqaMRAnGWQrbA0wwRi/XEynuMz4LK9PsvkOporYho1eqSRQ3DtOBzCpn1UY46/c7FuAOs6tVFgyZ1rZlLHKsxU3HssLPbtwRmeaU6caeYivUtJv/Ge8GT2+IAOTxsmxoDe/GAiYOmVPLPX8xzilLoKuOmSqVpbkanTJssDLHyanf15+NYTHVadlFtNQWB0k+GLjknDxSdUOVPYxUfONbM5goAnmwlgG9vysKMdTTkBK05FALxnAc4bVAHNUypgcm0KqipkKANNRv9wCO39Ibx2KANP7BiGX+0eVjk4OyDqVhFIRrPNldZEGgB2LpEYkVdUeKsmeJiBenclnnvHaLliEzQVN4W4RiHvMMCIbYMwhYYxmDjXJlC98eqI+O0Xr/XD6tfkbKY8OUwjsKU3CnIOaJwL2llv1oQUfGix6hTMTBudBwGbX2Sh5DKnbgQWai85H08UYNedWQvvOqFSNJ4T4r5IbwqE6e6OLDz0yhDct2lAJ3l5zMsXfoiaymg/d7ug0J4o09VYEqDRui8OXH+FqDU9nbfnqPv6xZpCi9Z0tYMR0/Sgbzx/Mpw4Nf4BS90V1T5ffugQAxQ3gWwUjRU3MxMAEBCxI94HF1cJl9gPIAZoBmptCT1kRFtgw1cU9xv25nSk9+L5VXD1EupUHI3DFUsC4wPEvvP/+lw/bNpH08pRANWntaIaLBrv8pjOmNnDdJmOxVxx8xcyzWZH6CMjcnycnghY0LIJu89giscwRwBwTH0abnqvTBVJAMkP3mAjlFmcSa2DbPWLV/vkep7KVO4NSnNIcTOTeiFgYyDvzNkVsGhq2oq0F2IuOjl+8XE3Alnrke1ZuPLkKtFYFntWaWAqpir4nULWLGmM3Y/vemEAHtg6ZGkxXdfFwwm66M4GgBuWiCvT0RF2j7bSDKZH4xSfrMlXLTpyYOFNYblDetALjqmGz54/2QYWN0vMFHKd8+NNPfDiniHtDepKTk9kH3fuq6MiwOFfZC7sJ4EAs5hLf7FDnDboorfFBRk26j9pegVUjH7gtz5Yz1AId60fhHs3YWvGaMUm/UZD212zSZM/UVzKNYncu7NLolnYgnSWdjZ8EwiYMAjEVIuOCljEWjwSf+XiRrh8YaNHRNssRQFSfLwdAzn4+up2FqMycaliADLLbeaiEhj0GM/0hSMc22fDzDAtZW542GHelBQsPKYCqsZglBvOn/jNJ/rh6V1YwGfiTxbQyMvTjBMX7/KHJUyk3pMecvu6WzOu8m7JFOcqPKuqJZ98aPP+JkU8zg+9jMYVfu3SYwC9Qi6KJRv4I+/4689f7YPHXu13TGDUxElGsjUdmVgCkq5SYFUL2Cz2Q4urddNYzpSWfWamO6K51EaTagM4bUYamgrOWp/4DnpX3Nmegz+6r1dH7P1xLTc4yr8nCE/wCTZ1uqiQtvJO2pRItBfSr/F3ikXip9an4WuXTlcpEaY7HK3FrJFY9+bHD0OXiF0VN3EuQ5myF5V8ZtPCGdMo81sYkjhzFgoiu/8WN5U8BejIfHFBS2cGorveWH/u35KB7z7LvUVurkxU3NZgLFbmpHiMdsKUE5tFzAnIajMbl7y254y+GFYtWZP0XiQT77Q3wVp5DJg2oxn8wKJGFmaQK2kRrwKkHFg4Vdotjx/WI5LjGMmdMYLXUXFtJRlMemfW7+o8ZjWlYdkJlaIUxAKUy1bc01DLjqkHOGNmalQmsHgkTN4zFPOfvr8fDvbLvp8yYs8BpTrAe0S9q8Hc8hwrUm9VRdheH6+ecEV9KdpqZIyFWynWWn7GRDhvTp16YNFwgs8rfPTVPvj5dvQG7VwjAcNmqMITV9oAI0BHmQxNo2QvlQpSDOYCzf2+cIpsgz2SCs1icS3f8rs3DsMPXpCNOLxVERQVV15mZM4eS4P5KlNZctotuykankiurUYBLKm1/vnqmaKHFvEUaSL+gFy99YWfHnACnUkA5k5gaaYo0UymDsqTyQQ8Oh8BrtmyHYCMuOP/Mobko+2L5qBJtUuni8WpRrP8tfY8/MkDg0VFvBH2ZqIkA0YTLiDGczWbr5CwSOC0aPrGZx5LM4VqDxd+//UPfvzUifdzs0dhUDe6TeDq6M/B3z5+yDJZPoaKmjq7LzsX9a6Y10JdVFekzNS86rwn1KCHl1YlOOpHIcHUliTaawDOm5WLDFYYDXAEgAvEvQazAFfcLecRxE8k1SN+tIGDP1mRdGIilueLhC1icoluRavxJqN9GXxAcn8bEbBwJ5++b89jS2fWvkfeMPnek2bidEjAenR7LzyynVI4hb1Av2mMTr3rGxSBxyYmM8sVryoAkWmUEXujhKi0ff7kPCyYJMuYx/Nz48MZ2HwA2wfFx7U0Eym29Y641ubUw2CWdovphkM5SU9v0aT3Y8TAwhzize+buhNLki1wmVywNjN4kIe398GjqK+cMAIBwf3dq6Fckc4qRq0aLVYRqjAfKehD7TW7KSU8R/w3vxFzJ2Rh0RRVsZf0TpZhvVuezsJjrzvAcstq3HCBE5k3wCNwOiYzpnY+yljQCqtOmTvSyxo5sN7K4P/VQ/vvnje58hqjr+wSYa5fPvfAfmfqXDZVrre9UAGG4sBh5TmaoRQzcVMt/x11MhBUi6fJwCp95k3IwILJ4w+sZ/YE8NKBADBwivPZYC/QNzppVnuftxgXljCxLeM12slnV4NZtV0CrJ65no0sLYq3UQELWeu6pY0/edecuiWGtaIPsL0/B3/zGCadmQlkI5Dd8IIxhVJZy14xJmDKwwtUOuwuJ1C7Ij56njJcIQCmYl8LJw7DXDHVSJFP0nhCsf2o5S8eSMOePmkBCNaotRBo2JSjezAPu7tzIg64q4uYLRogxe0LDvF3whZc4Kt/j0iw88uMAqsEVIodMZNoNLDNDA9v64OHt/XakfQI04wsvCCBJz9xjGVq3s16EnjyYrUhDEAA7FOnAVx0/BgwVuTe2j+8cKgS2nrl1XBgye9K1LOFnUOyqzJ+EHj0lzQazlrfobrEkKnD0mIZJ8MyYzkUbCIbR1idDg7f9uHjpyZ8F2JXGx1jqd1e/cNdLe8/sfEW45WpB6hMD4LqIQ0s6lps8okyNWP6V9neHjeJirk0iAyTSWCZ5RbQVLJSn58GYhRYeKevWghw/ZLS5wAaSfyK4mTIFM/sr4GuYQUsd/wiw7kNOjMsi56yWE4FfOpHu3SaD/qgf8v9vHIo+/G7rmm++6gAFp6E10tUZ3fDA/tEwZ4VXrBMYaEUjccEjgRYzKkwL4B5r/gb1twE8J1LcOxjaZNLjQZYA5kQVu+rV2P4OEcp9lJo0qDS4JE32WI0Jeit33EoEFvLAM0A68Ftg//wzGfm//loQSVpolyflq3Nf3fFMS81VKaaiC1w9+39WVjx84M62s7rr1zPj4a8c82F+4p8VwcgcT4yE6h7gIg7wG8E/vtfLsvBtLpis5uVD3h7egPY2IkTXxFE/IASYHH6K0SZykCKA0gi0GY4bUqHwu23XnHcwnLBoXzAAoA/vGfP6fOmVL2IIQiKbf1sWw/87BXUV7xYj3uEvO96HHOZ0hrt3VnayjGJlLNk3qEBu+NcKAHu3ogblubgkjkJBHyZnsTG9mpoG8RRx0xLKVZif9i4xaRMReupvx4Tu7c3d/i2q0evq/itKBuwSIZycOGBvvPUYXjt8DBLFLP6K3Umbh0WZyDj7dn6igdkeaDUBRBtz1nJFfN0Q3gdVnNTCDe/KwvYB3SsP+1DATzfIXtQREcBESD8QDLbuExkr0+FrK4+ax/Mw1O7hz74yz878YFyXmfZgMVPatXqQ9+ZVJe6EXf+p/e32a0YrW7FyRmKR9G5uJeAiR8hrfyCSOm0/XZJ2qLIO9nFz5+RgYtm+1irVNc5/pEhkF7vr4EdvdhMxbiDlpZSvxOXcagboe4Az9VkHqaSYj1TFrHuXmEssEZ069hGf/XQvrsn1qSv+cqj+9kUI7YJJEBQbyoKG7jthri35+oyP7Ci3iGtR6NqOIMZxlJNGBTCptQE8LXzBsW8zGP12T+Qhk09QpZyXDERT30ijPbS+FOeH8NjxFSSpqJ1uHf4xK7BLz7yR/NvHYtr0y9p6TsvDr1539x+687Dw39pGMWOtktAFQqAyrOyWjvysIJ6LXhVg9hlgSYfFqD09vI4FNfSlQ9BAOdMz8INp2XETBHl/nQOp2BbXyP0ZmXU32KiiBdoH99mKib4EzAVHqmcHqDvvliMVRwqRW6tu4OWrc0AWZyXR0+hQgFNi4XcLsaersZ2INQU9rmRd81gCkE8dqWrGMgLVOfLy39MwFSpegjhqnlZ+Oj8YWioKp+XeKA/gJ++UQsvt+Mc0GkxIAQDlvi/BJkj4onRNHDYcu0lMp9SFwwqJmTb3bOl/7/X37jgd8r9ovD9jYnGipxwy8srgyBcYfVV5wnkWGBFA6KSkUxhH5k2W6T7c5YRYKkTLQYsPNrFszLwiUXDMKVm9IHTN3pT8L1N1fDSQdM5j4vrphps3ygj4wg6ESWvCWDOxAoV+GTQs0BFd14mnjkL0vcfb+kbc1BZVmEs0Sv2jZ2YVYdAo60krn2DIiSA/MCi9X0mMI7BCJB0nVbciphWCQO71sHcmQUT8/DxhYNw8uScp59X8RHRQ7kA1h1Iw99vqBFN4OwHH40vyYH+EjmIEwEwSslESphDmFiT0k1HZGsRVn4ThjCYC//f3i8vvnbMn3VZA6RJztbHXN7kstyZEPE0zN7JLcq3IprSobfFZTDrLWJdBmk/4rHh8ViryLhLevesDFx63DDMa8pBJWveG7c+tmzc0p6GH++ogo2HVZLZo4UIPAJwrESZACiBYgCDv8vCQKyJl6+KaU0pD2DqtaKzoCZ5ZL51kkim8TGF/OxUD3nXu/N5e77ms2I9hZIIsCipHBl+hmuS+DV8xMML8kZo6pLfbCfRWozPc+6EPJw9bRgWT8rC9Nq8GCWNU5Pk8gF0ZwDa+tKALa8febMKeoblESjSzeNJPIxgpVqc9fUoHRbv0hWnDuiIsVSTkZJG2NDj4gBKAib+mMcfWHjEL25pDiBcHQTQTMwSBZoNAGt5QWAZDaZZig/5ZzTtxq14tYOR7jbc+O/yRtprav+MaR9aa1TA4qaP5wJjCwEF67WGkL++lGFbI2Uxd7vxBxadgfAYc6sDgObYagY3NcNFuyX+5U55IR8xELUjIpbTYFOUFCANOKkf943lPBYFFr+lBCtJdVb4QK1GM0lor4+ZRDJ1HIi+GngJUKW7WO6PjzsMAVoBcErd5GMBywUq6x6Xc6eJ9yXAlV+eDmAF3lRLlDteI5kmaQoVbHgzWz6O0WodKaHgA5aOW8UAKw5gha7PBQ6tK0wcb4JL4YQiwIpoKradV3PJ0uWSRi0nfl4lrFgmxirVAjtn2LJp5VudsFb4vD0ygfQWSD3vAZbyIvnbIsMLppDPFCJyhjMcJNanr0lvogMY2gHnK4EdV6w7AKFVtAZjcSfy7nAdyWDSW/QAqzU8giylzIZ0gJLevzFfr2VrcwpyK8IAlsfNGGEqRV1gme8FgaUugle64uPRQCXFFGf7CthEiQNcAXOLlIZRSWX23hnRTpLdlMdI/84gkL5zYFnDwmwRvwYgfb07N/OYP7eYAxw9wKITVF4jfo0O43IApc6eM5hmNrKdXKx7gMUpSuPGByBt0xzn0WEis5qhMlVjJxZxb1B+VwBj4lwAkyWNLe1lrUfNcsObYNWSleMDomTW6egDFt4dpb1SAawgfHi1lYoH6DIYDTQKSdhxKbpYafIKi3ZO61YUwlHvXKDzB+syE8elABQzdfRdbxMTZuDrSfMargkFS52EQn18cJXwKOMIrGRItx5oy+blAPDJAGCZpbVYgNPVYMK+K5tpMZlvjhwHmO49S3Jz3McpmAbFogggGZOo2YpVfxIzaWGvAWWbUm4ilSk8oh5fEmwluXesy0GSXY7BOqIRiUhkN2tTx8FVrFLUMYG0D4pQ6YiZcze4RSxiCbVFNYV6NrAIPJSeMUCzS5HjmEymdgKMS905fmZv5M8yEbBGvvsybinjXjh3C85I1ux6hwYspheDNn0RYNnZQH0THCSVBCx1jGgFqNFQ9IYaljP9qwhoMcBChioPoAoajhKsSpFHWzKwynfoEYJOASxAExkEYpIgo53kPn1iXvzOtBW/8MhNUBfJpZiWVpRSdLSWq6HMdwYsAh+7dBmnkge0vD/NUCjMT7ljhHfriG1WMrCSnOmIwDeSjSTIkMGWy9JicvrlZVHKxo1fxSWbi96MBOfINZcS2OJcuDCnHyjgINczFQxwhKPmSZ5xsXWK3stiOzgqljMWAxT6MZpLchlRjQEeUd5obkbEJxOSiNw/f1zLAAtNIqZg4E5YdfK4hA0SvCOjerSjuZejOvCYbWy0mPAmNXNFSo/HCFgx4Qhp6OxGbiqfVx7tNGY3dGQ7fvsBi98HA7KLAgiWgaqmoFVc0V48oxP/nmvG0vEp+4EoYLWGYXinUIWCmTz7G2sqGRlOSt7q7Q0s93bIGvxmgADDFhcBiPCFiJHxj1VOwxmIu4nqd9cLNKJdmDb05ta+dYw1R6bK4MihtEzAOnIXUPKr5AUb/ihCGSiKEHhzhAkFaJb4EUDEZa2OpUPw4Bq7ZI4Q1gBUtFr5ul/jWzOae1smYI3mFH7ztv1NwNpvgTXuuB5fWI3v0czN/LUB1pG6QeOOu7fJAccEWGMGgjHb8dvkaR5Fl/H/ARQWvliNOdRZAAAAAElFTkSuQmCC;rotation=0;" vertex="1" parent="1">
          <mxGeometry x="655" y="-344" width="50" height="50" as="geometry" />
        </mxCell>
        <mxCell id="cp8NjEBjRZy_50qt3RIU-29" style="edgeStyle=orthogonalEdgeStyle;rounded=0;orthogonalLoop=1;jettySize=auto;html=1;" edge="1" parent="1">
          <mxGeometry relative="1" as="geometry">
            <mxPoint x="1100" y="-360" as="sourcePoint" />
            <mxPoint x="1100" y="-520" as="targetPoint" />
          </mxGeometry>
        </mxCell>
        <mxCell id="cp8NjEBjRZy_50qt3RIU-6" value="" style="shape=image;verticalLabelPosition=bottom;labelBackgroundColor=default;verticalAlign=top;aspect=fixed;imageAspect=0;image=data:image/png,iVBORw0KGgoAAAANSUhEUgAAAgAAAAIACAYAAAD0eNT6AAAABHNCSVQICAgIfAhkiAAAAAlwSFlzAAAN1wAADdcBQiibeAAAABl0RVh0U29mdHdhcmUAd3d3Lmlua3NjYXBlLm9yZ5vuPBoAACAASURBVHic7d13fBV1vv/x90kvEAiBEHrovYVeBZRiQYoUsbCWtV177150dVd/VhAsa8WGimJBFERBpBsgFOndACEBkkB6//2BeEUpmTkzZ04yr+fjsY+7d5nvdz4kIfM+3/kWz4tSmQAAgKsEOF0AAADwPQIAAAAuRAAAAMCFCAAAALgQAQAAABciAAAA4EIEAAAAXIgAAACACxEAAABwIQIAAAAuRAAAAMCFCAAAALgQAQAAABciAAAA4EIEAAAAXIgAAACACxEAAABwIQIAAAAuRAAAAMCFCAAAALgQAQAAABciAAAA4EIEAAAAXIgAAACACxEAAABwIQIAAAAuRAAAAMCFCAAAALgQAQAAABciAAAA4EIEAAAAXIgAAACACxEAAABwIQIAAAAuRAAAAMCFCAAAALgQAQAAABciAAAA4EIEAAAAXIgAAACACxEAAABwIQIAAAAuRAAAAMCFCAAAALgQAQAAABciAAAA4EIEAAAAXIgAAACACxEAAABwIQIAAAAuRAAAAMCFCAAAALgQAQAAABciAAAA4EIEAAAAXIgAAACACxEAAABwIQIAAAAuRAAAAMCFCAAAALgQAQAAABciAAAA4EIEAAAAXIgAAACACxEAAABwIQIAAAAuRAAAAMCFCAAAALgQAQAAABciAAAA4EIEAAAAXIgAAACACxEAAABwIQIAAAAuRAAAAMCFCAAAALgQAQAAABciAAAA4EIEAAAAXIgAAACACxEAAABwIQIAAAAuRAAAAMCFCAAAALgQAQAAABciAAAA4EIEAAAAXIgAAACACxEAAABwIQIAAAAuRAAAAMCFCAAAALgQAQAAABciAAAA4EIEAAAAXIgAAACACxEAAABwIQIAAAAuRAAAAMCFCAAAALgQAQAAABciAAAA4EIEAAAAXIgAAACACxEAAABwIQIAAAAuRAAAAMCFCAAAALgQAQAAABciAAAA4EIEAAAAXIgAAACACxEAAABwIQIAAAAuRAAAAMCFCAAAALgQAQAAABciAAAA4EIEAAAAXIgAAACACxEAAABwIQIAAAAuRAAAAMCFCAAAALgQAQAAABciAAAA4EIEAAAAXIgAAACACxEAAABwIQIAAAAuRAAAAMCFCAAAALgQAQAAABciAAAA4EIEAAAAXIgAAACACxEAAABwIQIAAAAuRAAAAMCFCAAAALgQAQAAABciAAAA4EIEAAAAXIgAAACACxEAAABwIQIAAAAuRAAAAMCFCAAAALgQAQAAABciAAAA4EIEAAAAXIgAAACACxEAAABwIQIAAAAuRAAAAMCFCAAAALgQAQAAABciAAAA4EIEAAAAXIgAAACACxEAAABwIQIAAAAuRAAAAMCFCAAAALgQAQAAABciAAAA4EIEAAAAXIgAAACACxEAAABwIQIAAAAuRAAAAMCFCAAAALgQAQAAABciAAAA4EIEAAAAXIgAAACACxEAAABwIQIAAAAuRAAAAMCFCAAAALgQAQAAABciAAAA4EIEAAAAXIgAAACACxEAAABwIQIAAAAuRAAAAMCFCAAAALgQAQAAABciAAAA4EIEAAAAXIgAAACACxEAAABwIQIAAAAuRAAAAMCFCAAAALgQAQAAABciAAAA4EIEAAAAXIgAAACACxEAAABwIQIAAAAuRAAAAMCFCAAAALgQAQAAABciAAAA4EIEAAAAXIgAAACACxEAAABwIQIAAAAuRAAAAMCFCAAAALgQAQAAABciAAAA4EIEAAAAXIgAAACACxEAAABwIQIAAAAuRAAAAMCFCAAAALgQAQAAABciAAAA4EIEAAAAXIgAAACACxEAAABwIQIAAAAuRAAAAMCFCAAAALgQAQAAABciAAAA4EIEAAAAXCjI6QIAwC94PIrr3l2NhgxRXI8eqtGqlcJq1FBodLTTlfmlgowM5aenK33LFh1cuVJ7583TwcREqazM6dJQTp4XJb5bAFwrODJS7W+4QR1uvFHVmzd3upwKLXP7dq1/9VWtf/11FefmOl0OzoIAAMCdPB61vvJK9Xv2WUXExjpdTaWSm5qqxffeq80ffMCIgB8jAABwndDoaA2dPl1Nhg93upRKbdfs2Zr3j3+oICPD6VJwCgQAAK4SFR+v0fPnq3qzZk6X4gqZO3Zo1pAhOrZ7t9Ol4C9YBQDANaLi4zVu8WIe/j5UvVkzjVu8WFHx8U6Xgr8gAABwhdDq1TVq7lxVqV/f6VJcp0q9eho1d65Cq1d3uhT8CQEAgCuc98Ybim7Z0ukyXCu6ZUud98YbTpeBPyEAAKj0Wowfr+Zjxjhdhus1HzNGLcaNc7oM/I4AAKBSCwoLU//nnnO6DPyu//PPKygszOkyIAIAgEquzdVX897fj1SpX19trr7a6TIgAgCASq7DjTc6XQL+ouPNNztdAsRZAAAqsVqdOqlmhw6G22Vu367EZ57Rb99/r5yUFJUWF9tQXcUVEBSkyDp11HDIEHW7/37DWyjHtG2rWh076tC6dTZViPJgBABApdVoyBDDbXZ/840+6NRJG996S1nJyTz8T6G0uFhZycna+NZb+qBTJ+3+5hvDfTQaOtSGymAEAQBApVWnVy9D1x/bvVvfTpjAQTYGFOfm6tsJEwzv9Fend2+bKkJ5EQAAVFrRrVoZun71c8+pKDvbpmoqr6LsbK169llDbWoY/N7AegQAAJVWZFycoev3zJ1rUyWV39558wxdH1mnjk2VoLwIAAAqreAqVQxdn71vn02VVH5ZycmGrg+uUkXyeGyqBuVBAABQaQUEBhq6vqSoyKZKKr/SoiKprPyHy3oCAuQhADiKAAAAgAuxDwCASie8Zk2Fx8Y6XQbg1wgAACqcyDp1VLN9e8W0a6carVsrsm5dRcbFKaJ2bUXExiogONjpEgG/RwAA4PciatdW4wsvVIOBA1W3Tx9FNW7sdElAhUcAAOCXQqOj1eqyy9T6yitVu1s3eQKYsgRYiQAAwK9Ua9JE3R54QK2uvJJjYwEbEQAA+IXQ6Gj1/c9/1PbaaxUQxK8mwG78KwPguOZjx2rg1KmKYOY+4DMEAACOCQwNVb//9//U6bbbnC4FcB0CAABHhNeqpRHffKO47t2dLgVwJQIAAJ+Lio/XqLlzFd2ypdOlAK5FAADgU1GNGmnszz+raoMGTpcCuBoLawH4THitWho5dy4Pf8APMAIAwCeCwsI0YvZs1WjVypb+c1JSlHPggHJSUpSbmqrs/fvV49FHOXIWOA0CAACfGPTqq4rr0cOSvgqOHtVv8+crddUqpa1Zo7Q1a5R/5Mjfruv+yCMcOQucBgEAgO1aXX652lx1lVd9FOfmavtnn2nbzJn6bf58lRQUnL2RgfPpJcnj8ajMYBv8jqBV4RAAANgqsm5dDXz5ZdPtS4uLtemdd7R80iTlHDhgqG1xXp6Cq1Qp9/VhMTHKO3TIaImQFB4TYygEFOflqay01MaKcDZMAgRgq/PeeEOh0dGm2h759Vd92Lmzfrj+esMPf0nKz8gwdH2dXr0M3wPH1end29D1+enpNlWC8iIAALBN22uuUeMLLjDVdsesWZrRo4eO/Pqr6ftnbttm6Poud9/NULYZHs/xr50BGQa/N7AeAQCALcJr1lT/554z1Xbz++9rzrhxKs7N9aqGtDVrDF1fr39/9X/uOY4eNsATEKD+zz2nev37G2pn9HsD6/FTDsAWvZ54wtTQf/KCBfrhn/9UWUmJ1zX89uOPhtsk3HWXxi1ZouZjxigyLo4RgVPxeBQZF6fmY8Zo3JIlSrjrLsNdJP/wgw2FwQjPixJTXgFYqkabNrpi3TrDx/qmb9miT3r3VoHBd/enExAcrOv271d4rVqW9Adr5B85ojfq1SvfSg7YhhEAAJYbMHmy4Yd/cV6eZo8cadnDX5JKi4q06d13LesP1tj47rs8/P0AAQCApRpfdJEannee4XZLH3pIGVu3Wl7PmhdeUHFenuX9wpzivDytef55p8uACAAALOQJDFTfp5823C5l2TKt9WKvgDPJOXhQiSZqgj0S//Mf5aSkOF0GxBwA+BuPRzXbt1edXr0U3aKFIuvUUXBkpIIiIpyuzK8U5+aqKDdX2fv3K2PrVqUsW6YjmzYZ3vnOah1uukmDXnnFUJuSwkJ90L69rcvCAkNCdOnKlarVqZNt98DZHVq7Vh/37Mnwv59gJ0D4heiWLdX+hhvUcsKE4zOvYVjWb79py4cfKmnyZOWmpvr8/iFRUeo5aZLhdmtfftn2NeElhYWaM3asJvzyi+lNieCdgsxMzRk7loe/H2EEAI6Kio9X32eeUfMxY1h7bZGinBytmzpVq5599pQH5Nil33PPGd4MJu/QIb3bvLkKjh61qaqT1e3TR6O//54RJR8rzsvTrCFDdGDJEqdLwZ8QAOAMj0edbr1Vff/zH34Z2yQ3LU3fXXqpkhcutP1eNVq3Pr7sLzjYULsfb7xRG15/3aaqTq1O794a8fXXCouJ8el93So/PV1fX3yxDixd6nQp+As+csHngsLDddHMmRoweTIPfxtFxMZq9Pz56vbAA7ZvZjNgyhTDD/8jv/6qX99806aKTi9l2TLN6N5dqatW+fzebpO6apVmdO/Ow99PBQ6TJjldBNwjODJSo+bOVfywYU6X4gqegAA1PO88BYaEKNnErnjl0frKKw0P/UvS9//4hzK3b7ehorMryMjQpnffVVF2tur06qXAkBBH6qisCrOytPyxx/TDddcp//Bhp8vBafAKAD4TEBSkkd9+q4aDBztdiiv9dNttli+1i4qP1+Vr1yq0WjVD7fZ+/72+GDrU0lrMCouJUefbb1e7a69VZN26TpdToeUcOKBf33pLSZMn+3T+CcwhAMBn+j37rLrcc4/TZbhWWWmpZp13nmVzAjyBgRqzcKHq9etnqF1pcbE+7NzZq1P+7OAJDFS9fv3U8NxzVbtbN0W3bKmwmBiFVK3qdGl+qSg7W3mHDytj61alJibqtx9+0P4lSyw5wwG+QQCAT9Q/5xyNWbiQg1UclrFtmz7o0MGSpVhmA92aF1/UzyYOjwFgLSYBwnaewEANevVVHv5+ILpFC3V78EGv++ly772mHv45KSlaYWKvAADWIwDAdi0vvVQ1Wrd2ugz8LuHOOxVcpYrp9u3++U/1e+YZU20X33uvCo8dM31vANYhAMB2nW67zekS8CchUVFqMW6c4XaBoaEaMHmyzvvvf02N5uz57jtt+egjw+0A2IM5ALBVjdatNXHTJsPt8g4f1topU7T722+VvW+fSgoLbaiu4goMCVGV+vXV+IIL1Om22xRes6ah9ikrVuiTXr3KfX1s58467803FZuQYLRUSVJuaqo+6NBBuWlpptoDsB5nAcBWZtb7pyxfrq9HjFDeoUM2VFR55KamKm31aq1/7TVd/NVXqmPggV6nRw9FxMae9YFcu2tX9Xj0UTUZPtz8HI6yMn1/zTU8/AE/wysA2Kpu376Grs9JSdFXw4fz8Dcg79AhfTV8uLEjVj2e0waG6BYt1PW++zR+6VJNSExUk4sv9moC57pp07Tn229NtwdgD0YAYCujk/9W+/gAm8oi/8gRrX72WfV/4YVyt6nRurX2/fyzanXsqJrt26tmhw6q27evarRqZVld+3/+WT+b2CUQgP2YAwBb3ZSRodDq1ct9/bvNmytzxw4bK6q8qjdrpqsMbK1bUlCgwNBQ2+rJ3LFDn/TqpTy2ggX8Eq8AYCujy82ykpNtqqTyO7Z3r6Hr7Xz45xw4oFlDhvDwB/wYAQC2CggMNHQ9s/3NKy0qksr8Y0DvyMaNih82TPX69TM0AgTAd5gDAMByDQcPPunQp6zfflPq6tU6uGKFUlasUNrq1SrKyXGwQgAEAAC2q9qwoao2bKhmo0ZJOn4g0KGkJCUvWKDkBQu0f8kSFefmOlwl4C5MAoSt7igtNbSE7KWAAL8Zxq6IjH69/UVJYaEOLFmiXV9/rZ1ff61ju3c7XRJQ6REAYCsCgG9V1ADwV4c3bND2zz7T1hkzlGlgZQOA8iMAwFYEAN+qLAHgz1ITE7Xlo4+0+f332SMCsBCrAAD4tdrduumcF1/UP/ft07APPlC9/v2dLgmoFAgAACqEoLAwtbr8co1dtEiXJyWp9cSJ8hhcZgrg/xAAAFQ4tTp10tDp03XFunVqPXGiAoJY0AQYRQAAUGHFtG2rodOn66pt29ThxhsVEBzsdElAhcEkQNiKSYC+ZeTrnZuaqtmjRys4IkIBQUEKrlpVHo/n+M59Ho/CoqMVGh39t/8bERuriNq1/fJhm75lixbdcYf2zpvndCmA32PcDHCpksJCpSxbZq6xx6PIuDhF1q2rKnXrqmqDBqraqJGiW7ZUdMuWqtakiQJDQqwtuBxqtGqlUXPnatfs2fr57rtZQgicAQEAgHFlZcpJSVFOSorSVq/+2x8HBAUpKj5eMW3bKjYhQbFduqh2166KqF3bJ+U1GT5cjYYOVdJLL2nlv/6louxsn9wXqEh4BQBb8QrAt4x8vbOSk/VWw4Y2V3SyKvXrq27v3qo/cKAaDBqk6BYtbL/n0V279P1VV2n/4sW23wuoSAgAsBUBwLf8PQD8VZX69dVo8GA1HTlSDQcPVlB4uC33KSst1ZoXXtDyRx9VcX6+LfcAKhpWAQBwTPa+fdr4zjv6esQIvR4bqznjxmn7zJkqKSiw9D6egAB1ueceTVi1SrEJCZb2DVRUBADYqszgp3lPJdvG1qeMfu38bKSlKDtb22fO1Jxx4/Rm/fpadOedOrJxo6X3iGnbVuOXL1en226ztF+gIiIAwFZGj3gNi4mxqZLKL7xmTUMhoCgnx8ZqvJN3+LCSXnpJ77drp88HDdKeuXMtCyyBISEaMHmyzv/oIwVHRlrSJ1AREQBgq/yMDEPX1+3Tx6ZKKj+jX7v89HSbKrFW8sKF+vL88/VBp07a9sknlgWBlhMm6NIVK3wyERHwRwQA2Cpz2zZD13e+445Kd5qdT3g8SrjzTkNNMgx+b5x2eP16fXvppfqoWzf99sMPlvQZ066dJiQmqvFFF1nSH1CREABgq9RTrBE/k/rnnKMejz5qUzWVV49HHzV8Sl7amjU2VWOvtNWrNWvwYH110UU6tnu31/2FREXp4i+/VOfbb7egOqDiCBwmTXK6CFRurSdONHR9g4EDVb1FCx1au1YFBl8huE21Jk00aNo0dbr1VsNtF999t/IOH7ahKt/I3L5dG/77X8njUZ2ePb06GdATEKD4YcMUUbu29s6bp7LSUgsrBfwT+wDAVgFBQbo2OVmRcXGm2qdv2aLsffssrqpyqFK/vmq0amWq7eH16/VBx44WV+Sc2M6dNfT99xXTtq3Xfe2dN09zxo1T4bFjFlRWsVVv3lzxw4apbt++qtGqlao2aKDgKlX88hwIJ5UWFakoO1tZyclK37JFB5Ys0Z65c/1+K2oCAGzX+6mn1P2hh5wuA3+y8NZbtW7qVKfLsFRQWJj6/Oc/x4fyvZxHcnjDBn110UXK+u03i6qrOAKCgtRi/Hh1vOUW1enZ0+lyKrSDK1dq7csva9snn6i0uNjpcv6GAADbhdeqpWt272bJlZ/ISUnRO02bqjgvz+lSbNHskks05J13FFK1qlf95KSk6Kvhw0951kFlFT9smM6ZPJmVERbL2LZNi26//fhyVj/CJEDYLu/QIa3817+cLgO/W/rgg5X24S9JOz7/XDO6dvV6E6HIOnU0dtEiNR0xwqLK/FdQeLgGTJ6skd99x8PfBtEtWmjkd99p6Hvv+dUHIUYA4BMBwcEav3Spanfr5nQprrb3++/1xbBhfrcLoB1CqlbVkHfeUbNLLvGqn7KSEi2+916tefFFiyrzL5FxcRrx7beK7dzZ6VJcIS0pSV9deKFyUlKcLoURAPhGaVGR5owdW6FnnVd0WcnJmnvFFa54+EtSYVaWvhk7VksffNCrWf2ewED1f+EFDfvgAwVFRFhYofMi69bV2MWLefj7UGznzhq3eLEi69Z1uhQCAHzn2N69+vL881WYleV0Ka6Tf+SIvhg2THmHDjldim+VlSnx6ac1Z9w4r197tLr8co1ftkzVmjSxqDhnhVStqtHz5ql6s2ZOl+I61Zo21eh587yep+ItAgB8KnXVKn0+aJBy09KcLsU1svft08wBA5S+aZPTpThmx+ef67OBA73+uavVsaMmJCYqftgwiypzznlvvqmYdu2cLsO1Ytq103lvvOFoDQQA+FzqqlX6uHt3pSxb5nQplV7ywoWa0b27jvz6q9OlOO7gypX6uGdPpW/e7FU/YTVqaMScOer79NMKDAmxqDrfajFunFqMG+d0Ga7XYvx4NR871rH7MwkQjgkIClKnW29Vz0mTFBIV5XQ5lUpBRoaWPfKI1r/+uspKSpwux6+ERkfros8+U4NBg7zuKy0pSfMmTqxQASsoLExX79zpF++gIWXv3693mzVTcX6+z+/NVsBwTFlpqVJWrNCGN95QSX6+olu0cPydWEWXvX+/Vj/3nL67/HLtX7zYNRP+jCjJz9fWGTMUWaeOYhMSvOorsk4dtfvnPxUUFqaU5cv9crOXv+pw0018+vcjIVFRyj10SAdXrvT5vRkBgN/wBAaqwaBBajR4sOJ69lSNVq0UXquW02X5tbxDh5S+ebNSli/X3vnzte+nn/jEb0CXe+5R32eekSfA+7ehmTt2aMl992nHF19YUJl9Jm7ebHoLadgjY+tWTXfge0IAgH/zeBRavbrTVfilgsxMPuFboMnFF+v8Dz9UcJUqlvR3YOlSLb7vPr+c41K7WzdN+OUXw+1yDhzQmpde0u5vvtGxPXsq9UZSZgSFhyuqUSM1vugiJdx5p6nXKzO6d1dqYqIN1Z0eAQCA69Xq1EnDZ81SVOPGlvWZvHChVj39tPZ+/71lfXqr+yOPqLfBXTmTFy7UnDFjlJ+eblNVlUtodLQumjlTDc4911C7ZY8+ql+efNKmqk6NVQAAXO/Q2rX6MCFBO7/80rI+GwwcqFHz5unytWvV8X/+R6HVqlnWt1l1evQwdP2xPXs0e8QIHv4GFGRkaPaoUTq2Z4+hdk4cvEQAAAAdf6Uye/Ro/XzXXSotKrKs31odO2rgtGm67sABDX3vPTUZPlxBYWGW9W9EtMH3zIlPP83GXSYUZmXpl3//21AbJ+Zl8AoAAP6iTs+euuCTT1S1YUNb+i/MytLuOXO057vvlPzjj8rev9+W+/zVTZmZhkYi3o6P17G9e22sqPKqUr++/pmcXO7rC7Oy9IqPl0MTAADgFMJq1NCgV1/1yZK5jK1blbxwoVJ/+UWpq1crfdMmW5YU3l5cLE9gYLmvnxISYuloiJt4AgN1e1GR5PGUr0FZmV4KDPTpxF4CAACcQfMxYzRw2jRFxMb67J7FeXk6vH69jmzapMzt25WxbZsyt2/X0V27VJSdbbrfO0pLy/9AkjQ5MNCrg5Tc7vaSEkNLTH399Q7y2Z0AoALa/tln2vfTT+r79NNqc/XVluwZcDZB4eGK69FDcaeYtFeUk6Os5GTlHjyo7H37lJ+eroKjR1WQmamCo0dV+Pt/l6Si7GyVFBVJZWV//G/ACYwAAEA5xXbpooFTpzoyY9sJjAB4x99HAFgFAADllLZ6tT7t00dzxo3T0Z07nS4H8AoBAAAMKCst1faZM/Vemzb66bbblJOS4nRJgCkEAAAwoaSwUGtffllvx8dr3j/+4fUxw4CvEQAAwAslhYXa/N57er9dO80eNUp7583jvTkqBAIAAFigrLRUO7/8Ul8MG6Z3mjbVL089pex9+5wuCzgtAgAAWOzYnj1a9sgjerNBA33UtavWTpminAMHnC4LOAnLAAHABzwBAYrr0UONhg5VoyFDFNe9u6Fd+ZzAMkDv+PsyQAIAADggNDpaDQYOVN2+fVWnRw/FdumiwNBQp8s6CQHAO/4eANgJEAAcUJCRoR2zZmnHrFmSpMCQEMUmJCi2a1fVbNdONdq0UUzbtgqrUcPhSlFZEQAAwA+UFBYqZcUKpaxYcdL/HhkXpxqtW6tqw4aKio9X1YYN//hPZFycQnx8ghwqDwIAAPixnIMHlXPw4Gn/PCA4WOExMQqLiVFYjRoKi4lRUFiYQqKi5AkMVEhUlAJ+/79d77/fh5XD3xEAAKACKy0qOmtIOKHrffcZOg0QlRvLAAEAcCECAAC4hNEZ5oFhYTZVUvkFhoYaOzq6rExlZb5dlEcAAACXKMzONnR99aZNbaqk8qverJmh6wuzsyUCAADADnmHDhm6vvnYsTZVUvkZ/drlpaXZVMnpEQAAwCUytmwxdH3n229XVHy8PcVUYlGNGinhzjsNtUk3+L2xAgEAAFzir3sMnE1IVJRGzplDCDAgqlEjjZgzx/D+DCnLl9tU0ekRAADAJfbOm2e4TY02bXTFunXq9fjjimnXTkFMDPyboLAwxbRrp56TJumK9esV07at4T7MfG+8xVkAAOAiEzduVI02bZwuA3+SsW2bprdqxSRAAIB91r36qtMl4C/WTZ3q84e/RAAAAFfZ+Oabyt63z+ky8Lvsffv06xtvOHJvAgAAuEhxfr4W3XWX02Xgdz/dcYeK8/MduTcBAABcZvvMmdr68cdOl+F6Wz/+WDs+/9yx+xMAAMCFfrjuOh3esMHpMlzr8IYN+uG66xytgQAAAC5UlJ2tL4YO1dGdO50uxXWO7typL4YNU5HBrZmtRgAAAJfKSUnRp337Km3NGqdLcY20pCR92q+fcg4ccLoUAgAAuFnOwYP6tE8frZ0yxelSKr3N77+vmf36KSclxelSJLEREADgd42GDtWAKVMU3aKF06VUKhlbt+qn2293ZLe/MyEAAAD+EBAUpBaXXqpOt9yiuB49nC6nQju4cqXWTp2qbR9/rNLiYqfL+RsCAADglKo3b674YcNUr18/Rbdqpar16yuk2pyN1gAAIABJREFUWjV5Anh7/GdlpaUqPHpUWfv2KWPLFu1fvFh75s5V5vbtTpd2RgQAAABciBgHAIALEQAAAHAhAgAAAC5EAAAAwIUIAAAAuBABAAAAFyIAAADgQgQAAABciAAAAIALEQAAAHAhAgAAAC5EAAAAwIUIAAAAuBABAAAAFyIAAADgQgQAAABciAAAAIALEQAAAHAhAgAAAC5EAAAAwIUIAAAAuBABAAAAFyIAAADgPmWesrKyMqerAAAAvsUIAAAALkQAAADAhQgAAAC4EAEAAAAXIgAAAOBCBAAAAFyIAAAAgAsRAAAAcCECAAAALkQAAADAhQgAAAC4EAEAAAAXIgAAAOBCBAAAAFyIAAAAgAsRAAAAcKEgpwsAvPGSx2NLv3eUldnSLwD4C0YAAABwIQIAAAAuRAAAAMCFmAMAAKg0ivPyVJKf/8f/HxgaqqCICAcr8l+WBgA7JmTV7tZNl65YIU+AtYMVdk0eOxMmlgHeceLf7Z95AgMVEhUlT0CAImJjFREbqyr16yu6ZUvVaN1asQkJqtakic/qcfrrYZeQqlX1P8eOnfEaJ//uQWFhCgwPV0iVKgqKiFCV+vVVrXFjVWvSRLW7dlVcjx4KiYpyrL7y8vsRgNTERG169121veYap0sB4HJlJSUqyMiQJOUfOaL0zZv/dk3VBg3U4Nxz1fySS9RwyBAFhoT4ukzYrDg/X8X5+X/8LGRs3arkP/25JyBANTt0ULPRo9V8zBjVaN3amULPokLMAVh8333KP3LE6TIA4KyykpO16d139dXw4XqjTh0tuf9+Ze/b53RZ8KGy0lIdWrtWyx97TO+1aaMZ3btr68cfq7S42OnSTlIhAkD+kSNa9uijTpcBP9Tl3nvVaMgQRdap43QpwN/kp6dr1f/7f3q7SRMtuvNOFWRmOl0SHJCamKjvJkzQu82aaeuMGZKfvA72lJVZV4md72Q8AQEav3y54rp3t6Q/5gBUPnmHDunw+vU6tG6dDm/YoMPr1yttzRpTffG98k8V/Z13eK1aOu+NN9R0xAhL+qvoX4/T8fc5AN6q26ePBr36qmq2b+9oHRViBEA6PqSy8OabVVZa6nQp8FPhtWqpwbnnKuGuuzTknXd02erVTpcEnCTv0CHNHjVKi+64Q2UlJU6XA4ccWLpUM7p1U9LkyY6OBlSYACBJqatWaeNbbzldBgCYV1ampMmTNWfsWBX/abka3KWkoECL7rhDc8aNc+znoEIFAEla8sADyjt82OkyAMArO774QvOuvJJRTZfb/tln+nzgQEeea4GTJk2aZFVnBUePKig0VPkZGSopKLCq25MU5+Wp8OhRNRk+3Kt+8jMy5AkMVP7hw7bOzAyvVUt1e/dW05Ej1WjoUNvug1Nb8fjjptr1tO6fBSxUeOyYgiIjVZSVpeLcXKfL8Vr6pk3yeDyqP2CAqfZF2dkKjoxUUXa2inJyrC3OQYGhoer24INnvKYgM1OBoaEqSE9XSWGhjyqzR/a+fdo7b55aXnqpgsLDfXZfSycB/qGsTJk7d+pQUpLS1qxRWlKSDq5cadkMWCsnBJYWF+vIxo1KTUxU6qpVSk1MND1xrFbHjqrZoYNqtm+vmr//98i4OK9rhHlmJwoxCdD/5aSk/G3S5+H1650uy7CAoCBdunKlYhMSvOonNzX1b1+PQ2vXWlSlb5VnEuAJZaWlytyx4/iz5vf/JP/4o80V2qNO7966ZP58n+1caE8AOIXF99yj1c8/b1l/sV26aMLKlfIEBlrW5wk8NCoPvpfuYvb7HdulS7muKzx6VPkZGSrIyLB06L5O794av3SpZf2dUFFnyhsJAKfii5+D4vx85Rw4YPkrnCYXX6yLv/xS8sH3zu93AjydtNWrteGNN9ThxhudLgVABXfZqlWGri8tKlLamjU6sGyZNr/3nteftFOWLVPyjz+qwbnnetWPJTwe3WHTvIRXo6P9ei8Eoz8HJQUFyti6VfsXL9au2bP12w8/eL26Y9fXX2v1c8+py733etVPeVS4SYB/tvShh5R36JDTZQBwmYDgYMX16KGEO+/U5UlJGv3996rWtKlXfa579VWLqvNf4TVrOl2CpQJDQ1WzQwd1vPlmjZo7V1fv3Kn2N9yggCDvPlsvffhhHVy50qIqT69CB4CCjAwtOctEEQCwW8PBg3XZqlWKHzbMdB97vv1WhVlZFlblfypbAPirqEaNdO5rr2n88uWq0aqV6X5Ki4q04KabbN8rokIHAEna+PbbSlm+3OkyALhcaPXqumjWLNOTk4vz8rT/558trsq/hFXyAHBC7a5dNX7FCq9e6aQlJWn9669bWNXfVfgAoLKy4zsEsqsWAIcFhYfrgo8/Nn0CYGX/MFPZRwD+LLRaNY2YPVv1+vc33cfKJ55QcV6ehVWdrOIHAP2elF57zekyAEBRjRur3fXXm2p7eMMGi6vxL24KANLxQDj8iy8UFR9vqn1uaqo2TZ9ubVF/UmFXAfzV0oceUrPRo113Klz6li1KWbZMaUlJOrprl47t3q2CzEwV5+cf3ySkShUFhYYqNDpaUfHxqtakiWp17Ki6ffocP6Paz5YJlZWWKnXVKv02f74OrVunjK1blXvwoIpyclRaVKSQqChVbdBANTt0UINzz1WTiy5SaHS002V7JXv/fu1btEgHV6xQ5vbtyty5U3mHD6skL0/F+fkKCg9XYFiYImJjVbVhQ1Vv2lS1u3dXnR49VKNNG6fLxym0vfpqrZs61XC7rL17bajGf4TFxDhdgs+F1aihodOna+aAAab2/V/z/PPqcMMNtvyurjQBoPDYMS17+GENfvttp0uxXdrq1dry4Yfa+sknyjlw4IzXFmRkqEBSzsGDSt+8+aQ/i6hdW83HjFHLCRNUt08fGys+u9zUVK1/7TVteP115aSknPa6vMOHlXf4sNKSkrRp+nQFhYWpzdVXq9sDD6hqw4Y+rNg7+enp2vLBB9r8/vtKPcvSo+K8PBXn5akgI0MZW7fqt/nzpd9HvKo3a6bmY8ao3XXXqVqTJr4oHeVQq1MnRcTGKjctzVC77LP8e67o3DYCcEK9/v3V9qqrtPGddwy3zdyxQykrV6pOz56W11VhNwI6JY9HYxYuVP1zzvGqG3/dPGbvvHn65d//tmWiUO1u3dT9oYeOH1Pqw1GBkoICrXnxRf3y1FMqys423U9QRIS6P/SQut5//0lLcPzte1mQkaHVzz+vtVOmWDrj2xMYqOaXXKLeTz2l6s2aWdZvReNP3++Z55xj+N9qcGSkbvbi38Ffmfp62LgPgK/408/BCVnJyXq3eXNT2+Qn3Hmn+r/wguU1VYo5AH8oK9PCW26xdW9/J+QcOKBvRo/WF8OG2TZLODUxUbNHjdLMc87520iBXY7t2aNPevfW0gcf9OrhL0nFubla9sgjmtm/v4756TDqzi+/1Htt2uiXp56yfLlXWUmJtn36qT5o314rHn+cSbF+ICI21nAbTgesvKo2aKAW48ebarvzq68srua4yhUAJB359Vetf+UVp8uwzNaPP9a7LVtqxxdf+OR++xcv1kcJCfr1jTdsvU/qqlX6qGtX0+cunE7K8uX6pFcvHVq3ztJ+vXFiTe/sUaOUc/Cgrfcqzs/XikmT9Pl55xkefoa1zKwE8OVBMPC9ttdcY6rd0V27zvq61wy/DwDBVaoYbrP8scds/0Vru7IyLX3wQX132WVefzo2qjg/Xz9cf71tyytTV63SrMGDlX/kiOV9S8cPifls4ECfjWScSWFWlr44/3yfr1LZ99NPmtm/v7L37fPpffF/zASwkKpVbagE/qJev36mRoYk6YANZ0X4fQC4fM0aBYaGGmpTcPSoltx/v00V+cbi++9X4tNPm5o1apV1r7yi+ddea+lhFzkHD+rrESNs3w+8ICNDX154oa33OJvivDx9ffHFjp1MlrF1qz4bOJDtsh1i5lWU21YxuY0nIEANBg0y1TYtKcniaipAAKjevLm63H234Xab339f+376yfqCfGDZI49o9bPPOl2GJGnT9On66bbbLOmrrLRU344fb8tQ1qkc273bJ/c5lbLSUn176aWO/wxm7tih2aNHm5p4BPOO7dmjzO3bDbeLadvWhmrgT2qb3CnSjt9nfh8AJKn7I48oqnFjY41OTAgsKrKnKJvsmDVLv/z7306XcZJ106Zpw3//630/U6dW+q1OT/jlySe16+uvnS5DknRgyRItfeghp8twla0zZphqV6tzZ4srgb+p2b69qXZHd+2yuJIKEgCCwsN1zosvGm53ZONGrTWxGYdTMrZt07yJEx0d9j+dn2691ashqJwDB7TskUcsrMh/7V+8WCueeMLpMk6S9NJLSl640OkyXKEgI0Orn3vOeEOPR81GjbK+IPiVqg0amGpnx7y2ChEAJKnpiBFqfNFFhtut+N//9dmQs1fKyvTj9derKCfHku5Cq1VTtSZNFFq9uiX9lRQW6odrrzW9xDLx6actXfoWXKWKgiIiLOvPKiWFhfrxhhu8njwZGBqqqg0bKrZLF0XFxysoLMyr/spKSyvlEll/U1JYqDnjxik/Pd1w23r9+pneMhYVh9lJgFY9G/6sQu0EOHDqVCUvWKDi3NxytynMytLi++7TsA8+sLEy7218913tW7TIdPug8HC1ueoqtZwwQbW7dDnp4Vicm6u0pCRtnTFDG995x9DX78/SkpK09uWXlXDnnYba5aSkeL2sMDIuTh1vuUXxF1ygao0b/xFsCjIzlZqYqO2ff67N771n68EZ5ZH04oterT6o1amTut5/v5oMH67gyMg//veSwkLt//lnbXj9dW3/7DNTfadv2qRf33hDHW66yXR9OL3ctDR9f/XV+u2HH4w39njU56mnrC/KjLIy0xvpnFUl2GTIW2Y/uBTbEAAqzAiAdPys5W4mZvdv+fBDvx7+LCks1MrHHzfdvk7PnrpywwYNeuUV1evX728/YEEREarbp48GTp2qiRs3ql6/fqbvlfif/xhelrjxrbe82uCk9cSJumr7dnV/+GHFdu580qhGaPXqajh4sM597TVdvWOHWowbZ/o+3irMytIqLyZvdr3/fk1ITFTLSy896eEvHV9T3vC883ThzJkaMWeO6fXiq559lk2CLJafnq6kl17S+23bas+335rqo9Vll6lu374WVwZ/ZHRV2wl2bBJVoUYApOO/JLd89JEytm411G7hLbfoirVrFRAcbFNl5m18+23Tu9fV699fo777rtypMio+XqPnz9fXI0Zo77x5hu+Xd+iQ1k6dqm4PPFCu68tKS/XrW28Zvs8JHW68UYNeeaVc2xNH1q2rCz75RI2GDNGC//kflRQWmr6vGetfecX03gYJd96pvk8/Xa5rG19wgS6aNUtfXXih4SWax3bv1s4vv1SzSy4xU2alVd4JVoXHjqng6FHlHzmitKQkpa1ereQFC7xaZRHbubPO5TRTOKDCBYDA0FANmDJFXwwdaqhd+qZNSpo8WV3uucemysxb/+qrptpFxMbqos8/NzykFBgaqgs//VQfdOhgKnhseO01db3vPnkCzj6AlJqYqGN79hi+hyTFdumiAVOmGD6boO211yq8Vi19M2aM71aBlJVpg8nXHLU6dlTfZ54x1CZ+2DB1uOkmrZs2zfD9Nn/wAQHgL95p2tSR+1Zr2lQXz55tasMzwFsV6hXACY2GDFGz0aMNt1v5xBPK3r/fhorMO/jLLzq8fr2ptr2eeML06VohUVHqb/JwpmN792rv99+X69pd33xj6h6SdM4LL5gesWly8cXq/eSTpu9t1L6ff9bRnTtNtR04daqpv2ePxx4zNZy4d948n+8uib+L695d45ctU5V69ZwuBS5VIQOAJJ3z0kuGU3NhVpYW+9kIwPZPPzXVLjIuTq3/8Q+v7t1s9GjTG4+UdyKamdcM0vFh0Xr9+5tqe4IvR3vMTsyL69HD9LvfiNhYNTfxSb44L0/7lywxdU94zxMQoI4336wxCxeanhEOWKHCBoCqDRqox6OPGm639eOPlbxggQ0VmbPb5KShjrfe6vXSMHk86nzHHaaa7vn227PuV1Ccl6dDa9ea6t+KmerleUVhlT3ffWeqXbtrr/Xqvg3OPddUu4MrV5b/4rIy3/2nkqvRurXGLFyogVOn+uUyVrhLhZsD8GcJd92lLR98oMMbNhhqt+Cmm3TF+vWmZ2NaJSs52fSSMas2DGk6cqR+vPFGwzPDc1JSdPjXX8+4q1Xa6tXm3sF7PGo6cqTxdg45tnu36eH/+PPP9+recSa3FTVyCuNLPgxSdp7H7qSoxo3V7YEH1O7aa+UJDHS6HEBSBR4BkKSAoCANnDbN8CSxjG3blPTSSzZVVX6piYmm2kU1bqwarVtbUkN4zZqq07Onqbapq1ad8c+PbNxoqt+Ytm0VXquWqbZOSF292lS76s2aqUr9+l7dO6J2bVPtskyuOoE5pYWFOrprlzJNBkXADhU6AEjHd89qNWGC4XYrnnjC9NI7q5gdHm8wcKClddQ32V/aWR58mTt2mOrXm30KnHDI5BbJNdq08freYTVqmGqXxTHBPpW9f79WPfOMprdsqa8vvljpW7Y4XRJQ8QOAJPV/4QXDW94W5+Zq8b332lRR+Rjdy+AEqz79nxBj8kGUsW3bGf/c7LC41X8/u53t63A6UY0aeX1vs8PJrAJwzq7Zs/VBhw5afM89bM0MR1XoOQAnRNSurZ6TJmmRwQlt22fO1J7vvvP6PaxZWcnJptpZ/YA021/2WerPSUkx1W9F2w892+Sn6bUvv6y1L79scTXlw26AziotKtLq55/XoXXrdOGnnyo0Otrpkk5SWedi4GSVYgRAkjrdcotqdepkuN1Pt9/u2FnpZvckqNqwoaV1mP0kerb680zuilfhAkBFOGzqL/jk6R9+++EHfT54sONnWMCdKsUIgHR8KHTQtGn6pG9fQ8uJMrdv1+rnn1d3B85LN3s6XkjVqpbWEWyyv8Ls7ONf69NMwjRzIpokhcfEmGrnlMJjx5wuAV5qPnZsua8tLSxUzsGDykpOtuSk0bTVq7Xgpps05N13ve4L/s/sB06vl32fqk/Le3RQnd691faqq7TxnXcMtfvlySfV6rLLfP7Js8Rk6rd629CAoCAFhYUZP2yirEzF+fmnPZimxOThFRVtfbTZvyf8x4UmN+Q6umuXds+Zo7VTppie9CpJm6ZPV5OLLza1wykqFrOnsQb95YAwK1SaVwAn9Hv2WcPb4xbn5ennu++2qaIz3NdkEgy24QFpNlScaejS7GE8Zk+6c4rZ7yMqvmpNmqjTrbdq4qZNOufFF706bGzpQw/57uwKOCY3Lc1Uu7+eEGqFShcAwmJi1Otf/zLcbsesWaZ35cOpmf1lFhgSYnElNmPClOsFBAer8x13aOScOaZ/UWds3aotH31kcWXwN2Ynf0fGxVlcSSUMAJLU/vrrFdejh+F2i26/3ZYzl08nyOROhEUmh5DO2GdOjql2Z/y0bnCDphPKKtgD1ZdbDsO/NRw8WIO9OP568/TpFlYDf2R059oTqjVpYnEllWwOwAmegAANmjZNM3r0MLTcKXPHDq157jkbKztZYHi4qcBRlJNj+hTAUykrKTE3C9njOePElMDgYFOvAUry8yvUPIDA0NBKPYubJWHGtBg/Xru//Vab33vPcNt9ixYpKzlZVRs0sKEy+IO0s+ygejpRjRtbXEklHQGQjp8l3/766w23W/H44zZUc2pmZ/NbvYmL6dUIVaqc8VO+2bMWKtrDtKLNWYD9ej72mAKCjH++Kist9avDymCtstJS/fbDD6baxnbubHE1lXQE4IQ+Tz2lHZ9/bmjShS/XR1epV09Zv/1muF32vn2mj/E9FTM1SDrrPvbBkZGmwkVhdrbCKtBSwLCYGFNLHns8+qh6PfGEDRXBadWaNlWjYcO0+5tvDLdNXbVKbbw86hv+KWXZMtOTAOv07m1xNZV4BECSQqOj1feZZ5wu47TMDvNZvY+42f7OVn+4ybPOze6s5xSzGzNVtL8njGk0ZIipdkZOakTFsvHtt021i4qPV5V69SyuppIHAElq849/qP455zhdxilVb9bMVLsMiwOA2f7OVn+EyQBwdNcuU+2cYnb/iIzt260tBH6lbp8+ptrlpqZaXAn8QU5KirZ+/LGptnYdj16pXwFIkjweDZw6VR8mJPjdGtvYhART7Q4sXWppHfsWLTLVLrZr1zP+uekHo8nDdZwS27mzzBx8nJqYqMKsLMt3doR/MLtsqyAz0+JK/EfqqlWa0a1bua69OSvL8k3PnLRi0iTT85uajxljcTXHVfoRAEmKaddOHW++2eky/ia2SxdT7Q5v2GB6LelfFR47pgNLlphqe7YAE92ypal+9//8s6l2Tonr3t1Uu5KCAv32/fcWVwN/EWZypU5lDgB5hw87XYIjUpYv169vvmmqbVR8vOra8P5fckkAkKReTzxhyzsUb0TFx5t+DbDr668tqWH3nDmmlupF1K6tmu3bn/Eas+fdH1yxwvS+BE6o1amTQqtVM9XW7C8F+D+zG1pV5pMa810YAAoyMzX3iitUVlpqqn3CXXeZ3lPlbFwTAEKqVlW/Z591uoy/ib/gAlPt1r78sukfqD9b8+KLptrFn3/+WTfAqdurl6lNckoKC7V95kxTdTkhIDhYjS+80FTbPXPnav/ixRZXBPgnt40AlBQUaM7YsabnNYXFxKjtNddYXNX/cU0AkKSWEyaowaBBTpdxkuaXXGKqXcbWrdr5xRde3fu3+fOVmphoqm156g6NjlZ0q1am+l/zwgteb7GbsmyZV+2N8OYQF1/vQAk4xewR4RVRUXa2Zo8aZXrdvyR1e/BBW84AOMFVAUCSBr36qukNauxQr18/RbdoYart4vvvNz1UXlJQoEV33mmqbZX69RV//vnluraxyRGOwxs2mF4yI0nHdu/WnPHjTbc3qsnFFyuyTh1TbdOSkrTo9tstrui4zO3blfj007b0DfuYPUjL37nlFcDhDRv0SZ8+2vPdd6b7qNG6tTrfdpuFVf2d6wJAdIsW6nzHHU6X8X88HrW/4QZTTY/u3Kl5V15pePOistJSzb/2Wh3ZaGbu+vGzFjyBgeW6ttmoUabuIUkLb7lFqSa2zdy/eLE+7d/fp+vsA4KDTX8fJWnDf/+rBTfdZNlGVBnbtmnexIma3rq1lj74oNKSkizpF8aY3SXSzMZSFUFlfwWQc/Cgfr7rLs3o2lWH16833Y8nIEADp03z6nTJ8nBdAJCOb9NpdomaHTrceKMiatc21XbHF1/oq4suUs7Bg+W6Pv/IEX1zySXa8uGHpu4XVqOGOhlIpXE9e5qe6Ficn69Zgwdr55dflu/63Fwtvu8+fTZggCOb7HS+/XavdjBc/9pr+mLIEB1at85U+5LCQm3/7DN9eeGFeq9NG21+//0/JpQlvfSS6bpgXkhUlKl2xyrYXhjlVdkCQFlpqTK3b9fGd97R7JEj9XajRlrz4otej+B0e+ghNRg40KIqT6/y7wNwCkEREer//PP6xuT7d6sFRUSo+0MP6SeTw8B7583Te61aqf0NN6jFpZeqVseOf5t8l75pk7Z9+qnWTZvm1T/CLvfea2jGuycgQB1uukk/3323qfsVZGZq9qhRiuvRQ60uv1yNhg5V1fr1/zgsKD89XYfWrtWeb7/VpunTHf0FE1q9uno8+qgWeTHClLxwoT5KSFDTkSPVdORINRoy5LThsCAjQ5k7dujw+vXav3ixds+Zc9q//7ZPPlHfZ56x5UhRnF5YdLSpjX1+ffttW7Z+La+XbJp17u8+OsveJn+Wn56unAMHVFJQYGkN9QcMUK9Jkyzt83Q8ZTadvZpz4IDS1qxRWlKSDiUlaf/ixaZ+Odfp1Us1O3RQzQ4dVKtDB8W0b296ydVffXnBBV69o/krb05NKy0u1sc9eliyDWhAUJAiatdWRO3ays/IUM7+/Za8U4xp21aXrVljeHlTwdGjeqdpU+VbOAEopGpVlRQU2PautF6/fqrXv7/q9eunOr17l3uzntLiYn3at68OrlxpWS1BEREKr1lTIVWrqjArS4VZWSrIyDDcT2U7e6Dw2DEd3rBBh9ev16F163R4wwbTEz/r9eun2l27qna3bqrdtevxUSsLHoLfXHKJdsyaZapttwcfVLcHHyz3z15BZuYfX48TXxMrfw59rbwbAZWVlOjIxo06uHKlUlas0MGVK02/3nRazfbtNXbRIoVGR/vkfpYGgGUPP/zHQ9/O7Syj4uOPh4L27dX7ySdN93N05069366dZTOwvT02NW3NGn3cs6ff7VgoHQ8V45YsUVyPHqbar37+eS2+5x6Lq/INT2CgYjt3Vt2+fXVOOZZNZmzbpo8SEvxuL4OI2Fhds3fvGY9w9nfLHn1URzZs0KH163Vs927b7hNavfofYaDPv/9tup8Vjz+uFV58mguKiFBsQoJiExI0YPLkv/35socf1qH163VkwwYd27vX9H380dkCwJIHHtDBFSuUunq15SekOiGqcWONX7JEkXXr+uyelgYAJ4aNvH3orpg0ybIjgK04N33dtGlaeMstFlRjrf4vvKAEk6sGpOOrDj5MSFD6pk0WVuV75f0e75g1S3PGjrVkrwYrDX7zTbW99lqnyzCtov2OObBkiT7t18+2OirzUP3ZAkBl+rvXbN9eI+bMMX1AnFmunAT4Z90efND0Mjw7dLz5Zr/7Bd164kSvHv6SFBgaqqHTp5s6I90bodWr+/R+JzQbPdqrT452STrFp0jYp26fPopq3NjpMuDHGg0dqnFLlvj84S8RABQYGqoBU6Y4XcZJznv9dbW64gqny5AkNbvkEg1+6y1L+qrdtasGvfKKJX2VR61OndTXwTXwXe+/36tXVHY4vGGDkhcscLoM9/B41OHGG52uAn4oICgBFrKKAAAEUElEQVRIPf/3fzVyzhzTq0W8rsGRu/qZRkOH2nbcohmewEANffddtb/+ekfraHPVVbpgxgxLP7W3u+6643tb2yyybl0N/+IL1TYwq9cO3R9+WANfftn29bzl1fbaa1W7nKexwRqd77hDNUzuiInKKTYhQeOWLlXPSZPKvaeKHQgAvxswZYqtWy4a5QkM1Lmvv65zX3/d5zsXBgQHa8DkyRryzju2PLj6P/+8uj/8sOX9nhBeq5YumT9fUfHxim7VytR5BFbqeMstGrNggaOHUdVo3Vojv/tOg998k+OHfSwwJETnvfmmX+1ACmdE1q2rwW+9pQmJiaZPEbUSAeB3VRs0sPWhZFb766/XxI0b1XDwYJ/cr07v3rp8zRpDm/2Y0fvJJzXsww8tH/qKadtWl65Y8cdJhMGRkaraqJGl9zCjbt++unLjRnW69VafJv7oFi103htv6Ir16xU/bJjP7ouT1e3TR8O//NKxoV44q1anTho6fbqu2b1bba+5xvEPJSf4RxV+IuHuu1WjdWuny/ibak2bavS8eRr+5Zeml+GdTc0OHXT+jBkat3ixYtq1s+Uef9Xqsst0xbp1aj52rNdrrj0BAep06626dMUKVWvS5KQ/izF5LLHVQqtV04ApU3TFunVqfeWVtr0WCAgOVtMRI3Tx119r4ubNavfPf/p88iX+Ln7YME3cuFGtrriC70cl5wkIUM0OHdTjscd0xbp1ujwpSa0nTjR9RLRdXL8M8K/2LVqkzwYONHUSndW1nE7K8uXaOmOGtn/2mXJSUkz3E1ajhpqNHn38lMSBA207c7o8Ulet0vpXXtG2Tz81tH7eExioZqNHq/tDD6lWp06nvGbxffdptUVHQVv5Pc7et09bP/5Y2z799PiZB170HVqtmhqcd54an3++Gg8frojYWMvq9CeV4XeMJOWmpSl5wQIlL1igw+vXKz89XflHjpzxDACWAZ7M6b97aHS0AkNCFBIVpSr16qla48aq1rSpYrt0UZ2ePR1bgWSEbTsBwgfKypS+ZYtSli9X2po1Orp7t47t3q38I0dUUlCggqNHFVyligJDQxVes6aqNmigak2aqGaHDqrbt69qtmvn6ASUUynOzdX+JUu0b+FCHdm0SZnbtys3LU3FOTkqKytTaPXqqlK37vG/Q58+ajpypMJr1XK6bK/lp6crZdkyHUxM1NGdO3Vszx7lpKSoOD9fxXl5ko4vaQwIClJkXJyqNmyoKvXrq2b79opNSFB0y5Z+M6wIoGIgAAAA4EJ8ZAAAwIUIAAAAuBABAAAAFyIAAADgQgQAAABciAAAAIALEQAAAHAhAgAAAC5EAAAAwIUIAAAAuBABAAAAFyIAAADgQgQAAABciAAAAIALEQAAAHAhAgAAAC5EAAAAwIUIAAAAuBABAAAAFyIAAADgQgQAAABciAAAAIALEQAAAHAhAgAAAC5EAAAAwIUIAAAAuND/B2eXSCjX9RKfAAAAAElFTkSuQmCC;rotation=0;" vertex="1" parent="1">
          <mxGeometry x="1075" y="-344" width="50" height="50" as="geometry" />
        </mxCell>
        <mxCell id="cp8NjEBjRZy_50qt3RIU-23" style="edgeStyle=orthogonalEdgeStyle;rounded=0;orthogonalLoop=1;jettySize=auto;html=1;" edge="1" parent="1" source="cp8NjEBjRZy_50qt3RIU-7" target="cp8NjEBjRZy_50qt3RIU-11">
          <mxGeometry relative="1" as="geometry" />
        </mxCell>
        <mxCell id="cp8NjEBjRZy_50qt3RIU-53" value="&lt;font style=&quot;font-size: 14px;&quot;&gt;Gera Artefato&lt;/font&gt;" style="edgeLabel;html=1;align=center;verticalAlign=middle;resizable=0;points=[];" connectable="0" vertex="1" parent="cp8NjEBjRZy_50qt3RIU-23">
          <mxGeometry x="-0.1448" y="-2" relative="1" as="geometry">
            <mxPoint as="offset" />
          </mxGeometry>
        </mxCell>
        <mxCell id="cp8NjEBjRZy_50qt3RIU-7" value="" style="shape=image;verticalLabelPosition=bottom;labelBackgroundColor=default;verticalAlign=top;aspect=fixed;imageAspect=0;image=data:image/png,iVBORw0KGgoAAAANSUhEUgAAAJYAAACWCAYAAAA8AXHiAAAAAXNSR0IArs4c6QAAE+tJREFUeF7tnX+UFMWdwL81u+zyUwQRRFFAwUQgySMx5pI8kjUvXEye+fliorshzKpEFCSIq+zOruwuB8uKP/B8migm7JhEjHcSoqLCmRf03Ysv7x2r8bKD5FB3QVTAH6tZkpwH23VUT/dMT093V1VXVU/3TM8/+2a76lvf+n4/9a1vVVf3IJD+QQCApUulCyxVu3TNKrEE8YbvT96Vle3Uyu69Mz5CYPkmUlrF2KXSTClZkD+wYn8yuKEMjcTRJX9gMZhVdhGOPvlu+qHUUEdhZZIr8poIDSS0qmev6B414FuRMqjIa7XId9kN0IfbhuqwhnbL6CAG1NnQNcYGKaPkIEYQoyoixQIFK8w2kwsW7mzoGucPLBFvhqhuoGCFqN9FqsgFyyVihXlkSXaOAFjRt5K1ByZYGDAgQPpOnH4dn5zYkOU7w/WTVQOOWCXwBaVJAbAkI14CcU5gFarhz2FCOVYJ7KCiyYiA5c/B3gYrlCl3KgxxjsVrSt7yhtEjApaKMVUokw4Wm4VJKU1kVai+q4G0UN5gsbGgGzqfYxXuXJk5l5Fx5XIv0zv569n/ZO+ShjhiycIqPDkWh5dldZ5DDj1isQuLcyz+bWV26yosqQJRK1ii8nElRCyKf8t7KuSAu6QRS5Rkjn4GVTQyYKm2fbT3sXziotCooQNLYV89rV/SiOWTi9JXc/cWA1ilcnWwZhMBy26hOMeKaPKuAjkRsOz6xKvCGKwcE/R9rPw+lTXMV+w+VjCrwuhPlw83D9XhBNqNsbkVCoAQuQnN/x1QaTdInb0RrI8YciwVE0/4ZP6yeaguAbA7d6rBPN3g729nQ/e4Dror6SXCZymGUGUMRoeSDh0uExu4dYOAhQB258/L+COK1McIOhd1xwf9IjcoVChMwAINSzmafHIS7Vy0McxgZU+cqXz6M54KDUp/2TRUBwkSsUgcN5MrlDvo5/Z/8yCg7bowWFGfIMoPLJ8eIWBhwFJyLHK6YfHt49WdeffZRxWR3k1m+YHl03o9TUN1VQQsyxNfuv/s3zUASGQbcbyul1cMls8+BlktFGCFYQD2NA3WIS0hJcc6OZl2Nt4pErHCYBExDEMBllgX5NTuWTlYhxKJ/KrQFOu2/+BxnawKxcCS06dSSqkIsFjGPwELQM4Dq2RV2HiXSMQykGBRXAU9EtoVB0uCEry2UdFkFiwyFUrZIpUDFq9hisqrsFRhI24tiIPl2Xn1HRO2vSHggZWDdQkNbDkWTX/X651X3T1B3apQVqcVylEMlkLNJYt+YPlgXQJJuqWDQBgsK7I0vCWbQoq4GCwzYi0frANs33mnudTlOkKdS+6JI5YUQqMuhEQscktHSoYFqHPJTySDVcQwDXpxj4i0UByxeKXxlle44PGpiq7R5qXvJDGgHnF36Ol/eul9pzXKkBVVGWUzFf506eAMEScgPNwDgOpEZFjqDmCEOwGqnvUr79r7JkT6xW1lAdZPl7xDVnMMUIjENL+I+K43ABg3Xvuz033D6btlCRUjDxaJVPjEcL8EW/gUoQ5WBPjiGCyfbpFR7d4rj+r5keni3F/99IvtfVf+z+9lbzorrG/aIjvacXrZlsmRzdMiH7FMZ+hwYTnJtwzYhWQgnL5+y+RGlQfxhPRjqFw2YJG+3p08mgQM+chlfxjCHnHs17PHivORibc+TT7b9fSKB6MbqQqjLgOBUSly96KjSUCQ3Tawpz+C382DpTlbCMrLnVTNe6MsoDJNr54Zdfmto+6bFh1NIoyNPSn7u9pD+h1DeuVDUxqLBoN67yhpISJTIT+Zm+qPJhEicKlMt6Wl81moIv0p9JECsPghUGXPTfVvJTGGnuyUYzlLHKLvCHD6hq1TpUIVBg8oAEsVJv7k3nH5W0mEUI/9KZsgvuuv8bY99WNtl9z6ufHXJlRhwMGfjZ1qlT1YpNMELqyRadHmPFo2rvI6QummR+RGKnlYuEjiYD94sByU49DXt+02XvZWMoFwj593MSBzG8LnuxwKN2wJ3ijd9O8Rg4rT8sGDxamgzOIbLzuUBA31uG9USSPHyOkc5aVv3naW1JxKpo1kyaoosIjRNn7nUBIQykau/APPQaRcpL1IQSUyk8gFS0QTWUOFQc6Gbx1KAlh26BXfAzTMkm757TQfkUr9exYYTMZdRC5Y3M2XroIOF9mKCOaTbnnMD1TBKKeiFQawIhKGfFhn/dcPJkHSqVH35nG69YlzfEQqHx0KURUGsEKkrQJV1n/tYBInnE9F0IYU7TpglG57srIilemiigeLGGLt1w4mAeMe+4am0HeA9JqnKi9SxWDZot/aS8i0iHvcb1Fnr7DdwkbpNTsrFypi2oqIWNQpy4CsfeHBJEIad0JfIB+hdMeu6RWXU9mzlIoAiyU1M+FoX9gvkNCjdOczMVQVE7FYwLKWueVL/fphQR02y6mb/IZq/u3uluvpf/n9zIqPVOWbY7HOexTadLgAcvcW9eKWOzQF3xHEUNnsWVZToSSmciZK1fVbTqI6kJgNaen1z53HFqncFJStOG+IVlCeE6wytADFqKkFryQBJZwTeoTTXaxQ+XZeNG3OCZZv68ivGKC9mwlc+u2f3AEYPVJ1/2EWW6SS3/vQS4wuWAGbtvmf+mdA1XC7cZ7rue7nZ6W5VQhwMHDrZq0gQU91YDErx1xQyFZx5WAtoA6sYPvB3FplYRxkbwvbEgcrSN2Z8VFdsCI7zWVUcbC4mote4Rghfz6LwfJnt7gWxQIxWDEiCixAjlNTP2yTAVspamNxAcMCuj05jMpR1L+NORphAMu/HnHNyrVADFbl+l5pz6MFFkcoVmq1WDjVAtECi9qduEDOAiUehMGD5dHh9fs++XHQ0MUy8MAYDbTN3fMYq6wNmQvnawh/gVqewWEI4VdTF7ywgyrLKLBu3/wLkZb4vFt5/awhQ7ukPgK0PzVnz1Osbaspx7QqVNO0XWrXyxedBtrwAUAwhtYio40Ba9DQOq93K01e+wvzz6wdmSCv9K6hlWW+nkCXpT6651Fa+XV7509PgN62tEGOMPpmy9w9j2dBy75GIuiPtM6IKt6V+dRnAMEfReXY6q9Lzem9hSZz3d75X0hA4jlaOa7rGrSn5vWupdXZsPfTX8agPUMrx0MI1qC5dV7vrVSZCguUCKzicRQesOwPePm0vmyw3NRwCEmVCZZLbA4PWD5BslcLCiwHdSMCVjCztDdYvqNI+UyFHLy7gRWMJ7OKlmgqLLZSeUQsywCII5bNyUFibWm6PMCydKiSwHJgJo5YABCJVaGEqZBDhHDRGCxhsFzyv0qKWA4YRgSsOHnnCSERWRXydMl/WRk5lsNUH68K/btEqGZEIpbvPsZg+TadWMUYLOEcy8UBcY4lRqas2jKmQgdd4ojl4iDVu0rqIhan5q5gccqx2TEGS9bI55RjActll0vGmQsGOOKIxek5j+LWVSGD6eU1bJGkLmJxqlvuYLk5mPnYDIc94+0G4Vs61P2tsp4K3WCNwRIGizqMyxost977AkvynBmaqbC9b05NbWLUPgCYScXFsUBx9MIAl7bO6X2SJq+9b87YWjTqZUAwjVaW9Toahq+0fKz3P2jlOzKfnViD/i8DAGfQyjJfR4m61AX/xXwiVjJTupqhAYso09E//9Tqv6EFzAb0KFgN+GDzvBdfYpVFztxr2onPyTggXl2FBpov6P0za9u3vfTxyR9WVX+GtbxXuUQtfjU1+8W9MmSJyAgULBUjQ6TzwdWtvJ4HClZwjoxbKrUFmMAKcrwF2Vapja+mfQ4LchTl1ZUJLF6hcfnYAjFYMQPsFuCIcCEGi6MX7KaJS0qwAItnisEyaj3U/P65KFH9OQzaaAm6+BDBoj6/WOpePb/IUNdQ1V8Eib9j7cTzDd2nvuZkAMeItTV17Aca4PYEoFmhtlqsnJgFBMcuAvTKMJzo/EHX+F/ZFSkCa2vq2MKTL+a4DTB8QkzruLbVAoI+DK8xMbwECG6q7xpref+Ew9tmtqaG7gNA15g9yf8yX/Y/xT9diwFBIvdOE+freX7L43oeEzb7sPQ/K7PU9tFO/kY28Saf/+H++q5xS+0DqWA0bE0d2wMAnwrvEKk0zdxjXYiiYG9919gLvcFqOdYHCOYG6T4RA4nUDbKPJW1LtZEwZOo3jJ3nDVbrsT7AwYKl2uiq7apa/9DLR5CpX08Dy4hYuZ9CxhgQQrm538wp4uvG2/Jk2CeB9N+eNrMskvr6t6+m57z+65OcmbN9QAwRqwRTYehHZKygtwV4IlYUbVnziccBqj/0VJ1pWtSqYPjI+TD8ZkHa4Co3MeEQVJ2xD9DoQQlmQ3B870LA/xgvQVZAIopyLKfthlLlWEwedzdU7YLNUPvJbQBVx6VY8/hfvgT/+/vrmRw8csFmqPn0r6W0S4ScGLgI/v6bbmnylAtiiVgPtQz1AaC5+R0r6/Nfpvftf03VS3d9zHdXQ/V0slMi7/PBnb8zftDGu39jvrcKqs9mPqxKV1Crgg82kVPN9tHGYl9zJyqXZVnaY6lvrcfaPso0uK8Ks0J+tZqApXBVqOjm1djLVkP1DLlgvX+7HSxnJsZeLh+s9++gHpenAxpQCQSQabh1nPd2wy9u+qtasHg7ywjiuO83wwjJYL238RlbxHJWftwVN8KIc+RGrPdu28VrqVKWz/zwtlPcwMpGrAdvNMFyColuoZTyf/L7aEiivNwUkW/3lMtXw4iZvVKN+243AYuI9O7fKQ1N0sF699ad1HZpegV4PbP4Dlewsj7pWflBHwAOdOddBg3j61ug5ly5YL29fhdTxDp1UROMmP7fMrqRlaFVwdtdT8uTp1wSyjTeNd57Ktzy40Ejec9qo2/cOQ1YQ9mwXD+1QT5YR9ftAqwhav8nLG6CGslgHV2fBat09jW2a5n8jzJX/isFrAeWv9eHilaFPqdAyhQiM1RPWNQCtee9IHVsHu7cyTQVTkzeDDUz5Easw2vJc7bht3v2RAbKLLlngnfE2nwdAQvmmr84lb/V4NBNZIwoy3GagkwqwOsTf5iC2ll+wXLeRHur4+lsxKL0b1LjzVAzUy5Yb3Y8qUfKSNgfQWbJvRO9wbr/mnf7MDndYIRA0jHTsmZHw/h9UrIVRvoGyznQvXHLUzpYTv011yLEPqdfvRpqJYP1xi079HajYH+y3XDN/ad5g3Xfj97tw/o+ltpVnNORQZHQf3pjK4yc7TdiOYP1euvThZ51iV2Tr26G2nPlRqzX256IzFSIAGWWbqaAde9V70RyVTj56jYYNftFR0L83i060LzDsip031Cbck0zjDyX+VUN9DxQq4IDLfrPDYb+k02ZUGbZzyZ5R6x7Gt8uPOhXfFa28FUiwtfNZYe5zLS9qoRR/hQC1vnOYPF6xwRxYPUOAHMqNIU46HPG0mYYeZ48sDABq9kAy0xJPNoveLULo71yNpFRHlBmeQ8FrLsXH3G4Vxj+1cnUH7XBqI/8iZchz/KvNT3BtCqcel0KRnmCZdjPLXTa/k/A6r/pt1KmQnKyipywUpvaQGbFg1O8I9Zdi470IX2DlChTyg/jvRxDxalL18Doj8iJWGavX131ONMG6ZnLUjBqltyI9dqNBKxofBCCzIpfUMDaVH84OxUGlbtLauesa9th9EfpYPHkW/tXPpafCj30nLaiVQwsh4j1ysrtImsZI0DR9iskBTKAzA1bz/COWHdecThcN6EZB+20ZRSweIgy2vyfFY8xRSwC1ujZciPW/h9vZ+x5cTEfXfXdllExs+phK1gOB/1u//6b+sMUTBukkoCXkQGcfX0HjLlAbo61b9l2wNhjg9To//SVbTD6fDIeWT50t5Mca9/ybcozIxl2N1eFTY9M9Y5YG7/7Zh9CMNe8R+W0QZfbEXbZwFNx3boh6ST/nOs7YOwcuWC9fN12xw1Se/vTV7XBGGaw6PARsF6+bltu592+QetqX3OgmzNgUP4ByNz86JneYHV/5438LZ0QRSRaKjbpq9tg4hd3woiJ79A9x1Bi8D//GQ4/uhiG/zG6MHIYJ4Cs+ky+9N9g8jceLpJKj03Oirz/xy/CoS0roxOxADKrf3OWBSyHqXDDt98wniukuTJ818d9zNh5J+e/BFYfeLgajr83CT48chaTnKoxx2DE+EEDav920d1RfQL++qeLmNqVkN1LaYdskDZvt4LlsKfQ9fXXjVs6HkeuzYHmdiSa83puY0GSvFwcKJU8s0Olap/T/qL2IvcKU0+c7T0Vrrv0dduqkLI1S5IfPUKYHxlbuTLl2acbD/10EMKmf6E+7hueHvbXkzKl/sm07aCAtfarBw2w/Id0zxDtenJNUXsCU2JYppoI2DOz5ulzvCNW51cOBLdBSt6XQ55W4kyJ3I7QB3C0XiR14+4nr11KWD7TvnO6N1hrFg7oq0KGhVNcRNgC+YnNXZTftaWwcswCSI7V8cwMClhfHtgPGBuviKyA7NM8oqmb0d5fI6SW3epCcnaP0CtrfzdjtpXEojvNrRf3/xwBvrLcU5Oy7589V3dbk0hIbTFCW9bvnnmVJ1htdf2XYIwfAYBTSEG3dt30ZtWftz5tTWPXk1d+XL8wBWS2H8ZDiUTie+uenUkehCzYuSiaS5sX7L8BMFoFgKaxZaumUt5ZePa9S95DRNn5ody2iIQhWsIsmc0fnKshn/1BCB3CmnZn9x9mb7JD5HroavXnD8xF+PglgGBK9nWn5ssmovbXBCksepeJPlg7cgJg1+3Pz3K8+17q03zMK4+4YLQsIA2s8C+KQ+CYCjKSNLBC4LZYhRBZIAYrRM4oJ1X+HwtulGAhzx1QAAAAAElFTkSuQmCC;rotation=0;" vertex="1" parent="1">
          <mxGeometry x="440" y="-534" width="50" height="50" as="geometry" />
        </mxCell>
        <mxCell id="cp8NjEBjRZy_50qt3RIU-15" style="edgeStyle=orthogonalEdgeStyle;rounded=0;orthogonalLoop=1;jettySize=auto;html=1;" edge="1" parent="1" source="cp8NjEBjRZy_50qt3RIU-8" target="cp8NjEBjRZy_50qt3RIU-5">
          <mxGeometry relative="1" as="geometry" />
        </mxCell>
        <mxCell id="cp8NjEBjRZy_50qt3RIU-56" value="&lt;font style=&quot;font-size: 14px;&quot;&gt;ConexÃ£o de Dados&lt;/font&gt;" style="edgeLabel;html=1;align=center;verticalAlign=middle;resizable=0;points=[];" connectable="0" vertex="1" parent="cp8NjEBjRZy_50qt3RIU-15">
          <mxGeometry x="0.2096" relative="1" as="geometry">
            <mxPoint y="-16" as="offset" />
          </mxGeometry>
        </mxCell>
        <mxCell id="cp8NjEBjRZy_50qt3RIU-8" value="" style="shape=image;verticalLabelPosition=bottom;labelBackgroundColor=default;verticalAlign=top;aspect=fixed;imageAspect=0;image=data:image/png,iVBORw0KGgoAAAANSUhEUgAAAgAAAAIACAMAAADDpiTIAAADAFBMVEVMaXHn5+jn5+jp6eni5ebo6OkAZ7kAWqEAXKEAWaEPdsYAaLnw8PAAZ7gAddAGcMPl5+jp6em1zd+EstPq6urq6upFmtrp6eno6ekAaLkPcLvo6OgAb8bl5ujp6elmos/X3+Xo6OgAXaYUbK/p6enD1OERb7gAY7Dv7+8AZbQAY6ff4+YAZbMAdM7s7OxBkc0Ab8bm5+gAarvp6elYndHq6uoAccowe7fL2OKbv9sAcssAYKrp6emqxtz////p6emXvNgTfM7p6ekAXqgAbMAyjdIAb8YAZ7kAZLMAdM8khdAAYq8AYKsAX6nf4+YGY6oAb8Wrw9UAcctMaXEAYq9Bh7wthMd8sNcbfcmbvNXq6urD1OFKkceoxNqTtc+nwdWHr8/p6enn5+dQ5/8AdtEAdM8AcMcAdtMYi7MAcssAYKsAar0AYq8AXqcAbsMAaLkAXKMAZrUAcMkAXKUAbsUAbMEAdM0AZLEAYq0AbL8AZLMAarsAZrcAYKkAcskAXqkAcs0AeNUAeNMAaLcAaLsAZrMAYK0AWqEAcMUAXqUAar8AWqMAdNEAZK8AbMMAbsEAYrEAds+dwdvX3+Ta4OXB09/m6Oitx9ubwNzO2+Th5+nT3eS4z99Y5/6Es9hGmNcbjrYNfNJm5/wpitOT5/bQ6e3L2OIAbL280eAger+xy99Wl8lVoNeVvt6q6fPd4+YfhdMwsdSH5/fG1+Kc6PUmocVyqdI7ktSTu9XF6O4Hds2mxtsYgdNsrNxUnNNI2/YopMl85/l4rNO46PB7s9unyOGHuN5urtBGi79mp9kzudophMkjnMLY6es8x+VCzuyew9+Pu9wglLtN5P45iMI0jtMvlb03nsENbLSHtdloo9BFk8pUqsmy5/By5/tT5v+Iu9ZZpdUGeNACarp2r9qwx9pj5v2Xw9grqMwuqdE3weC+6e+tzuEbgMxPudUugcA7ldl24/ZE1fE4jMx5t81yyuACdtFmn8pKosJFib6h5/Ogv9ef1+WJ2OmhxNdgxd1yb4FhAAAAYXRSTlMAxOmq/e8RVFJR/kMLI8T+3LvCwlM50V/+NP31l9eTx9B/9eydxvSQE1sG1XynJ9PA4uRszBxe2sq/5G6IwQNIwfx40KfjfE/ZhOOkvuZE+fY8bAD30tzO8O8y2M6/v7+/oHbd3QAAAAlwSFlzAAALEwAACxMBAJqcGAAAIABJREFUeNrtnQl4FFXW91+SAjWA7NIQ2UExIIKo4AaCjoDrvLY6Pj7OaN8skASyIFmamJ4xMZPwPZM3E5KwJSFAoDshrAFJCIuyDosoGGECClECfI6Og4NOUPxm3u+5tXRX1b3VXVXdHaq7z0lIOiF06Drnnvuv3733nP8yg4W0/RdcAggAMAgAMAgAMAgAMAgAMAgAMAgAMAgAMAgAMAgAMAgAMAgAMAiAwLbRD77eb2r//tOHPTZ48MiR4eG9enWivIWHh48cPPixYdP795/a7/UHR0MABK49+PoL/ScOGzwyvFennmGRJpPJZGHfTchkwWYiDZksJoRMiHvMWmRYz069wkcOHjax/9RxD0IAGH2Yj+vXd+KwweGdBnVm/WixKDpbvfFPwEZE2KBO4YOHTezbb1w3CABDeb5f/8fCB0VyQ9wiDF+fm4V7avzHEtkpfFj/ft0gAG6qdRs3deJj4Z1whhdyd4eZhY2EsE7hwyZOHQcB0NGefx0P+c4mCzfkTaJp29TRYcB+7NwpfFjf17tBAPjf9f0mDu4UZrLcLI+7mR4sJtOEXo9NfB0CwF8z/dTp4T2xiDeU58l7CTRo5MQXukEA+PSmbuqw8DDu6poMb4hNBz3Dp08dDQHgg5w/dVivMK9v5m6SOpgQPv0FCAAvBn7fwYOQwVO+J4hgQp0eM3QqMGoAjOsfPgFZTIHrfOeEgJPBoMF9R0MAqHf+xPAJpsD3vUwX9BzZ/0EIAM9zft+RYcHlfNftgQn1fOyFKRAAbob+9F4oMKS+flUQGW6sRGCYAJjywuCeJlMwO9/FjMYMex0CQJr4+4d3dlHdYDeEoeHgqd0gAIRpvxcKgZEvDgB2V0LnkVOnQABMmRoeidfyQtAsFlPY4NdDOwBeH9zZz2MfWU6s2/ntgfObNt24sXZtfX39vgsX1qy5UtkaLbPKyitXLlz45776+vq1a7ff2LTp/IFvd65b4fd7g57DHgzVABg9fZC/ruu6nQc23Vhbv+/CmspW7OrW6NZm7OXW5ujm1ujW6OZWIgCim/FfRkc34x/GP8n/ROWaC/vW3jiw84T/bg979e8WggHQt5evJb8Fndh54MbafRcqo91ac7RHc/1IKxsw7CMcCvXbbxxYd8K3/2uTCUWO7BdaATDusTCLDyf+dTs3ba//55VWp9NUeVmtNbtioZX7unXNvrWbdvp0erAMmjg6ZAKgfydf3fEt2Xl++741XPrWMsK9Dgb2c+WF+u3nd67z2fph+AuhEADdpof5xPXrWNe3+tXdHgz/8ubo6NY19dsPrFvii1c1pu+UIA+ABx+L9Nr1Jw7cqF8TfTM9L081+EHrP9ceOOHtHYvJ0nNityAOgAdHeun8Fd/e2FdpANcr2ZV9Nw6cWOJFBCALCpveLUgDYNxIZPHi2pw4v/ZCdABYc+WF7Qe8Eoidh3ULwgAYF+6F+9dtqscavzk6IAwr0jVrvQmCzo91C7IA6DYY6R356zbVVzqxTMAY/v/u26RXFFgsYf2DKQCmTAzTB32W7Ny+BnM7f9/d+U0lrll7fsUSfSEw6PWgCYB+g3Td9q84X18Z3RqAfpfGQPOFtXpQATKh8NFBEQDdRuoZ/DvXXmiObm2NDgZrjr6ydqeOzc2o88QgCID+OrjPurVXgsP1IkmwRkceQKZO4wI8AEb30hz4KzZdaI4ONmNf0ZrtmkWhxTQ9oAOgX5jGJR+0bm1l8LnfpWEvbNJ8c9hrdMAGwJRhSOvg/2d0sFvlWq1pIKxfgAbA6F7aBv+JtZXRIWH1WtXAsIAMgH7a1N+6eu6Or7k1yN/wneG+nYaZBvwWAJrS/5IT9a3RIWUaQ2BCvwALgCnhWl7eifro5uhQs31athBYUN+ACoBuvTSgvxXbW6ND0ZrrT2jhgv0DKABGj9Hg//OVITj8edu+Qv2FsgwLmADoNkg991yxL7o1OmSt+cq3GmbK6QESAFN6mVQv/e+8Eh3iVq+BDPUNjAAYqXrpd8na6JC35ivqqQDqFwgBMB0XyVIVAicuNEMAREdXfqt6wuw8zvgB0A+pvbFZdwX8z60SnFedAgZNMXoAjFbN/9ZVtoLzebuhehYYbPQA6KWa/IP/RbZW9c1gX2MHQH+1FR1XXGmGABBNA9vV6oCw0UYOgNGd1er/C+B0aQSoXRtAI40cACPVJoAb4HKZXVELBX18L+jTABin8jUsWQHpn8TCalVAL+MGQLhaAAgAiDIJrFMJ0C39jBoA4xAkAG/uBFRePtTLqAEwWG0CAAVAs1bVqwLjjBkAU9TeAlj+Cd6mBYDqlcFhxgyAvqpxFswAXslAU09jBoDq6g9LwNdU26caB44zZAAMskAG8A4FqE6h/Y0YAN3U7266As72KgAsg40YAC+oLwGwBlIAzS6o3ibcyYgBoF4DmurB2TSrV50BOhsyANSfBNkEGYBm59UPodGBnQE2QwB4BYJMltcNGABTNZwFqIfNYJQZQEMRkanGC4CoFzQcdNoJ7iYTwDoNI+gFA2aA/1b//0cWWA6krAVpKKT431GGC4ApXTWVgrjSHPwHwTW9rVmi3v8WS1cDZoBbNJWBXgc6UGKVJ7Qcp+98yxQDBsBQTfVADnTYtW3+4Nq1Tz7+5tixY1u3bt36t799/fWHH75PtQ8//Prrv/0N/9TWY998/PEn1z74wHArgezFm3yrETPAm9oqAp1v9mM5kA+uffLxsa1fv//Rp6vm6DHXv1r16UcffYjj4Zo/g+Fbbdfud7cYMABue0Nj5ZtNvr+OH1zDbv/o0zn+sU8/+vBvx775xPeRcEBj/cBJtxkxAwzvrLEk3IFWXxWCbf7gk2+Off3RqjkdZKs++nqr73JC5U6N1dTG5BtyChjeW9vrsKCdPigL9sHHxz78dM5NslXvb/3mEy+DWMvxYGEGMGYA5E9CGgviohPerAs2X/tm6/ur5tx8+/TDYx9f0x0G+zZr9X/kiBRDTgH5+UM1FgW3IKSLCDU3f3Ls64/mGMpWfbT142s6XssNre43Wd7MN2gGyH8FaewKYkGWdRqLBDRf++brT+cY1Fa9v/VjTcJgn46WEpEjjBkAt+ZrTwHIghDadEXDwDdEzvcwI7x/TN2NQuuaA9rdb7G8mZ+Sb8wpICV/kq52oCu2q7gbaP5k60dzAsc+9ZwKKjfhLmGar1bY8EX5KbcYcwrIz39TT3sUXCa41b3zj70/J/Dso60fKwd25Y0VOtyPLOiNRfkpBtUAKfkpw8N09QZCphNrm5Xm/GMfrpoTsKYQBJXbV7De1H6lJg8fnpJv0CkgPyUl/xW9LaFpWaD12jdfB7DzBXv/2DUpqa68sUJvE7Ww5/E4M24GSMn/nUm3ndheKRIDzZ9s/XROsNinW1286MqmJbobp6NJ+XgGMKoGSElJSXl7qN4XZ0FoyaY1At8LhqEvtQ+/+SA6uvXCAS/aTKO38CU2dAZISRnRU29veAsyIbSzvvJaQEo+VTHw73UWpN//pt6LUrgIuM24GSAlf4Q3/eEtqPynIPX+mX/8P4vF4sW1QaPeTuEjwMgZYFH+pEiLNxFgKf8y+GLg/X+cRxYL8mr8j0qZx88ARtYAKSmLhr/hlf8RsqDN/7kePBpg1Yf/e55lnsi78b+IG/6G1gD8LPBKpP7XikMAIxJU8eOZoND///qW9T3ycvw/njJv0dt8BBh1MSiFTwGLFk3SrwP4S8WOmPLGLwI5CFZ9/b//Xmex+MD7JtPvFi16m/e/YQOA1wBsCEyagExe5gBuMkDbvvxpVWDO+v86cMJkcb0Yb/K/aciiRW/zEYCvs9EzQMqilBdHmbw1TjUhkwWV/RhYQXDmb/86v8JkEXvfm/GPwibNm+fKAAbnANj7i7C9FWnxPgTYcWMxWUxM2ZeBMR2c+ce//m5i874kmXlzLcaMWIT9vyglQDQA5388DZh8Y/j64UuKSnb95a8GTgWf/vUf/965BOGARbI3b+6LHs7OxglArAFuM3AGYCPgbRwA80ZMRiZfxQCvC/F8YEhleOaLf9VwUSof+l5OAD0nZc+bx84AIg1wi7EzwNtvcylg3ry3fON+nAGclMCEECqtaLxuFFmw6q9ffFnDWCwWfuBbTL4zZHn8xWw2AKQawNgZ4G2cAd5etGjeonnzJo0x+dZwOuVmWITsS2+yLjjzxY9Lyy2ssZ3SuDTlw1c76JXshGxnBnBpgNuMnQE4FcDG7bzstyJNvjYxKkDIfrnxxy+OdGw6OPPTX768bBeSvfQG1nevM/J3mdnZfAKYFzAcQKQBsP/nZY+YbPF5CLgiACcD9k9p2a4v//LTGf9mhDNnvtjfWLGcXbe00NiuxYfjf/KIzATsf4oGuDVQNMC8ednZL857o6e/coCTFznzAUL2ml2NP17/6cxVH473n/7y4/+9XFaChN+Cb0xNPh3tRCQNeiM7MyGBlgEMzgGkGiB7Hn4JL/4mEvnhIknDQBwFFlaQl9rLKnb90vjjj9e/+Omnvx45c+bMmVVn5qiaLK6e+en6X35s/GVpjb0UCSwf8fejFgsy+dk6v5XJ+j/h99m/p2gAg2eAlLcXuUQAGwHZLb39MUoQ5Y0PCCR84oky4lGC4Eo1H4RgQuJI8x7rew7syMdHZCZkJiSIMkBAcgBOA8zLzk7Izsy8q7dfL5skC8iygmuaEL5tcWUOxQ9C0IiezDdc3+Pof3NE5lyR/wOZA/DjPyE7O/PFlhG9/TlqpEkAIWp6QIQn3b8JAEo61/h19Hd+YsTczMxM1v+KGuC2ANMACdl4Rit8cUTvSEvHJAGLgkctSOMbLQP40f9hb7VkcP5n5wA8dH4f4ByAj4CEhOzMwszMEU+E+TUJKGYFjUPfv8NcKYLHDMnLyChkA0CuAQKYA+AISMAZIDMBv7CX35qATDfHNGWAjv/vTX4jo7CwkA8A9xrgtgDUAPgNW2Fm5hujIm9KAKjOADfhvxbZe1JeXgYe/3Pn8inAjQYINA6AJ4AELguwNveutwbdtCRgxNE/oc9deRnY/xlzC+dKNMDvA1IDkBwgG78cwf+ZmYVz577Su7MJjBv8b+TlLVy4kE0Ahc4E4I4DBKIGYP0vZIDMwrmFc18eMhmhkHf/0CF35aXm5bHuzygUZ4Ag4wCCBuAiYG7h3IzCuXkjfjcmlL1vGfPE/bmpqal5eXl5CzMyhAwQfByAvQnMlmeAjMKMvLyMSQ9PCNE0MOG3r+bmtuSmpipkADccwOhrAVQOINYAOMwL8T0Pa688PiHkMn/PN+/Lzc3NfSc1VcgACzPcaYB5Ab0WQNcAgv/x65/0xFAUQvN+n1eT23KTc3PfyWX9H/QagJ0EEhKkGkDwf0ZG3sLUvNSWu4ZMjgyBaT9s1JC7stra2pKTZRlApgEyg0oDsHOAaAYQNADn/4y8hXl5qXktuS1v/LZnMCcCNObh+7KyHFlZrP/ZCJBmALUcIPD2A9A1AJ8BFi7EQyCXux6v9pkcFpyzfu8hryVmsdaW1ZbMZYBcIQMs9KABAns/gDMDUDWAkAHYa5Gam5qb++pbo8KCa+T3HvKaw+pwOIQI4DMAaABeA+AMkMobOzByk1/tM2pCcDj/tw/cleawWh2JiYm8/9VogITQ0wD8+H8n953c3OTc5OS25LuG9A5oUNR58hP3FaVZrdYia6Ij0ZGYmKUlAwTTfoBstxxgIS0DJCcnZ7VlZWXddV+f3oMCTxmGTX74gWfSehQVWTlj/Z/o9D8lA2jhALcGuQYQMkBbG3u9HA7HfX16j7EEiO8nTH7igdeKehQVFRWlFVnTWPdbHfIM4BUHuC0ENEBycnIbFwCJWfjqWa2OV4c8PtTQqCByzKg+b0QUFBQUJCWx/k9LS+MTAI4ATRog5DhAHkUDtLVl8SGQmOhItFp7WIscr73Rp/dQwy0fTBjau88dzxQUxBUUFMQlJSUlFSXh8S9kAKuCBgAO4FYD8DMAjoDExESHw+rAlxIPraRf3zfkid6Tx9z0LQUocsyoh4fcFxEXFxeXhId+wQI8/JP4DFAkZACZBgAOoE4DZLVlvSfKAIms/61p7JXFF7mg4NevPtDnt6OGhnV4RojsObn3w7+577V4W5wtzmazxcXh0b+gYAHnfnoGcGT5iAOEjAaQZIBEfjBZ0/CVLWIjoAcedHFxBQXP3IFTwiB/pwTLhDGjHu/zwH2vxcc3pac3NcVj39viWCvgMkBSkisDuDSAwwEcQDsHaKNkAKs1zcpmADYCFiQtwKOuIK4gjhuJEb96YMgTD4+aPGaCD+ViWM+ho3o//JshdzyTHpuOLT49Pj4+3hYfny7yPxsBSfhNtQYADqBNAwgJII3VAbxh/+MsgM1mw2MS+wZ/fO2Z++54YEifJx7vPWry0DETwtRO6xN6Dh06atTjDz/xmyF33PGrZ6bFxsbGxqS3Fxen88b5P96Gf42N97+QAZIWJHnWAMABNHEANxmA9T+fAeLi5sfZbJxb8Efso/SmdsFr6bHpsdOmvfbMM7+6g26/+tUzz+ye9m57TEzM7JiYnJiY9pz2i+3YimNj8b8W+T/dFQBxfA5wpwGAA3jDASgaIC1NyAALFiwQZYA4m2Cc/+Oxr1wR0H7x4sXi9vbi4tji2Pbids5y2nNYe/fdd3PeXf1uToxg/N9j98fGxqZLjHtyGyUDKGgA33KAW4NQA6jgAB40ABsAcbb5tvmiDMC9CRmAG9GxMcUxxZyTc2JyZufMzsnhP+IgcEUA/qnYYu6NmgFsNtt8rzQAcAA9GsCqrAHmz58/35kDeBNlADzoi7E5fRwzm/O8yFx/hyMAe5/LAKIcIGgAm14N4C0HCBUNkEW/C0hzowFwBrDJMoBLAxQXF7fHFsfGOCNgtpABuByA5wPa+PdWA/iaA9wSKhrAEwfgRIBIA/D+d2kASQZgrThWmgFmCxlgdg7+IkacAYqLef+71QAdzwGCUQN4zwFkGiCeogH48aygAfBbzOyY2R2nAfRygIA7F9BRHGB+nFsNwOYAQgO4DOcASgbwvQYADuA3DkDTAK4MwOcAQgMIOSAmJ2a2WAP6SgP4mgOEjAbQzAEIDZDuUQPkuNcAxUIGAA4QBBxAlQYADhC0HICuAWYrawDgAEHGAVwZgM4BxBoAOABwAOAAwAGAAwAHAA4AHAA4AHAA4ADAAYADAAcADgAcADgAcADgAMABgAMABwAOABwAOABwAOAAwAGAAwAHAA4AHAA4AHAA4ADAAYADAAcADgAcADgAcADgAMABgAMABwAOABwAOABwAOAAwAGAAwAHAA4AHAA4AHAA4ADAAYADAAcADgAcADQAcADgAMABgAMABwAOABwANABwAOAAwAGAAwAHAA4AHAA0AHAA4ADAAYADAAcADgAcADgAcADgAMABgAMABwAOABwAOABwAOAAwAGAAwAHAA4AHAA4AHAA4ADAAYADAAcADgAcADgAcADgAMABgAMABwAOABwAOABwAOAAwAGAAwAHAA4AHAA4AHAA4ADAAYADAAcIRA1Qe31/4y9LK+ylaHnFZXspKi23l1UsbTz3+XHgAMGuAXIHHjlrRwgxSGwM/4FBZcvO/RDhKw6w+vuqDXsuHd546O9/P7Tx8KWjG6pOr/YBB9i7Y8f+HdwfqZ0DDuCBAwzcsV7sdO7d6X6n2Zedi0jyjgOsbtizcRv7ZEv4516yZAlasgRtO3lpw5YcrzTAMvyciPsgsRLgAG45wNVGsevlo1/0N/jPrr09dHOA7w9vEz05wz9yPUabT33vBQdYJg5c10MGlQAHcKMB6i5Lxjkj+MQVA+KvsJc2Hi/QwQGqNpYgJHcPQzwuP3y6XacGWCZ/MiEEyoEDKGqAq9sY8VTPSCcC1zAV/QxCZ7VygNVVG0tpMSWfY7jHNRvadXGAZQjRn7gEOICCBmhpJC4WI/sCSYKC+7RSGwe4uKcUSYelNPUz0neE0LYNF3VogMWyp3M+LAEOQOcAdeXiqy5yPaOUApwZQD0HuHi0XJb5iVkakbce9qMXtWsApJACSoAD0DRA7WXxtWKkDxhKCnD+3UoNHGCDnTqrSP3EyFMAnrj3XCzWqgFcE4xIYTJiDQAcgPd/Xt514qIzEmEuStkSecDgDKCWA1RXCM/EELMKI7/vkIfjttPaOMAyqqLQpgFChgO07JKnXcnIlyt/6Q+tVMkBmi5tpghLRv57GJoMYP/i0kVtGkCUUNxpAOAAhQPLiIslG5nST1KhcFYdB6guQ4g+2TOIeoNJis+aak0agHGbAYADODXAwOWE3GeUNBkh3RBSpQGaDsq1IyOhjMR0w0hnbz7a9hSr1gCLJS9F9BtLgANINUCLXYr45Hd7TlcwogTBuDKGCg6QPq2GEI9K9/1E1En+PycvquUAixUkBXAAmQZoKaPTGIYCAeQuZDxpAF4DVi+X3z0S45KcbxgpLOD/bv1FfRrA9WuAA0g1wGXp7T0jIfN0JCBN1545QEOpwjO4H/oUycAgVLNaPQdwlwGAA3Aa4LrCbM8Qg52hB4RnDbCBUYojhlhfkr5JZQP/T7btVqkBZEpDeFgCHECkAa4yDI3AyAEqQ03/3ENPHOASUn4GUhQgikCQ3SDYt6jlAMhLDRACHKCC5H30JRRZ8heNSw8c4CCi/TNGDhwYGQBk6PHGkeFpxerWAigKgIH9AKIMkHFEgfu5xj2jpAGcP+qeA+wl/hXhW08ZgCFuFirUrgUAB/CgAewULSb3B1NeUba57HKZXUEUutUADVQ3ErmEkel12YozceNwVuVaAE1GwH4AIQMUFh6RgR+JOsOPy3ccqW3jTgi2tSUOrD1+ZMeuUkIDKHOALSVK04fkeyU1Jw8f3dDw/YY9pw5tU153EtkGVfsBqDICOIAzA+BbQNq2L+F7ZXW5+Cq1vZfYlsidqklMS0xMvFrXuFwkG9xogGl22YzBELmGQRVHd7c79wTPnt3eXrWMslnEdY/KvVfHe9wTyBDRzX4qzwIOwFphxl1i4iN1P4NQ6bmWNuq5gKL/saa5to4xyhygaT15G4HEN3wI1ezZ0p5DnAtYfbRCWQNwtnyaBw2wmJ46GOAALg1wXUHysw8qalOT3dUHOL6y1BMHOEgs9MtcYm+42K5wLqCqXFEDcO/LVO0JlEMAqQYIbQ5QOPc/lK3fgvbf1fKO+/oAVmvEWZ4EKnCAamKhX+rMzZew+xXqA7SvPklCR0mYNnjkAMRiEgeCgAPwGSBD5hjJ9J+a7Lk+gPV4hTsNUIFIx4nS+a4tbusDtLfvLSH3JItCqkzVnkAyBIAD8Akg8ypt2xf/ravJKuoD9ChKul6uxAHmf4WI4BJzpYOe6wNsKaFsHXE9x1EVHEC2LVyUAYADFF5n5JtynVNAY6ra+gARXypogGkl8tV+CfK7FKuiPsDpzfT1Yu7/WTLN41oAQ1lThv0AvGXvVzgAhBA6or4+wP9E0DnARsrOPtdv2qOuPkCVTD1K/7dnPXMAaQJhgAOINUAjQzkAxF2ugW3e1gc4Tspv0fx9tEllfYANNDTpfK9WsxYgj27YDyBEwGXyxkx46H19gLO0xSTGNf5V1gf40yX5ZgVxNCxTdS6AkfJH4ABCBlgqp3TOCbvE6zqBTZuJ1WSXM5bGaqgPUEY5pu4c29U2TxyAjG7gAIJdJo/98VbqdZ3AHfJnFX+5RUudwCoxOZRDwUMeOABD4RzAAYS7gBpiU75zZHlbJ9C2XL75V/ThUmy7ljqBSymrxM7308oagFFYagYOIM8AsmP5+EGtd3UC46oUy4sgZL+orU5gNSPZqiR92gq3awFivOlUAsABBA3wi7zsgyvD1qV6VydwvXSZSZIBGpo01gk8ReEAzqCosrndE0g50QQcQJgDGgm/OzNso3d1Ao9T7924Dyc11wncXerm4NB6D/UBpLe3DJwLEHGA/Yx8t7/zGyUDveIABykHfYWnrtZeJ/Cw/OCQWA9+F+/hXIB8QxlwAH4tIOE6QzjeeWlXesUBysiVeMET63XUCTytfHqAQZeUNABDHD5mxBkAOAC7IYxROBLMfOYFB/hORhfEenyDnjqBZbITquLEUu6xRpAsDQAHEFYDWxT3azII2Qfq5wBfMTR2w34qvainX8Aexs0h1So6B1hMKUEBHEDCATJrqEd/+G+U1bbp5QC7CK7gfN6zuvoF7JamE2myWqxOAzDAAWQcIOPF/fSCYPwF3nxdHwewxW9WKCaB93Lq6xewixQBrqPkTe7PBso4NHAA157AI4g4sSERzP8Z+J4eDtAgP/bretL16fr6BeylHybjPu11ezbQYwYIXQ6Q2VLKUIuCOr22/DM9HGAlfb7Gz7pHZ7+A1YysVpH43vKUx/0AkltH4ADODJC5P5K4S5KJt/1t2jlAhXQrgBgDNDTp7Bdgd1OrqNzTfgDG7VpA6O4HwPcBSjU5nMKgrE4zByhVLiu5Wm+/gJNyMSE+zfCdxzqB4qUE4ACis4GNZPU34o5rW51DEwf4jqjs45xZ7Lr7BVyinSUVnnivco0gyp5XqA/gOhtYeBdt04S8UgCysyGglgN8zihUgkXopO6+gVXUnWv8b9iowAGoR56BA4jOBhZmnGUkJ7WUKrbar6vXAEfJUkPCV3v+oLdv4G43FcsZO/1soMLpUOAAzgwwtzDjRTsF2MnOYrHfW36uh0oOcFa+CcQ1XBv09w0soScV7tN3HvYESmAUcACRBijM+Iykawx9Lbdk/0BVHGC9UnVxBk2L1d038BC1XDFve5X3A5BliYADuCqEFBZmvLhfoSyPVBWyjzavjFDBAcrJ08bCV170DdxIKy3s3GWuxAEYSm1i4ACiDPDnjIzCGsmGKVodN9HnHZ41gMJpY2xe9A08RXJdl610Ux+AqFBUDhxAVCcwozCzpQwp1+iWHqvBN4U/eOAAEbTTxrwD9PcNbD+FlNg+YtBJN2cDiZOB+IvZAAAWdElEQVQpwAEkdQIzMgpbahiySg+tjiv3M40RbjnANLLCo7O/kBd9A08hJbaPy0woaABKHwLxFAB1Arl+AXNbyhjlCp2kKCzd64YDsLtBaEXHcc2RdN0cwLUzVCYuOLjnpk4gsdgJHIDSL6CCKNTH0Io1CqGwK0JZA1QrFx0vVa8BYggNIC9gKbEIBQ3AULqgAAcg+gbmZRT+4kYHUDp82I8raoAfqF5iv1Garp8DHKasLbqitlrhXAClZwxwAErPoLyMjOvS85e0piGS+bdOSQM0kG5y7jWWZQAtHOCw8mIFQugHep1A6h0NcABKz6CMvIyfS5W6QsgvI98ppgeNA9hsn1NP8HDf9IIDnCWLWIveT1P6BSjd0QAHUOgbWFtBQYJEwWiXpNtF1wB7KTDZBxxgpdvi0seVNQBRYwg4AL1vYF7G3OsltEUBojqw8PXSCJoGaCDLCztTgn4OELuSQWTVceeM9Z37GkGS2Qs4gHLv4JZGeVsARn54TLy8sz6CogF+QPSGs/hBk34OcFDe10Ji05TPBhIZAPYDKPcOzvvz1Rp6fW7KAVIMYCLI/QDHFVoD4s8XdXOAPx1UKGDPvUco9Q2U9TwEDuCud3Aeew3qysiyIcShASE11ET0kGuAaWRvUefXq/VzgIPSdSmZxLQpnQsg9xECByA5ANc7GLs/NTVv4cI6O+FupNTtu6KAXAtAlMVl7h+t1s8BLlGykeumlX42kEFkjzPgAO40QGoeNxiu2+nLrvJinQih/cR+ADd9IKq94QBEoXnRoFbeE0gWvwAO4EYDpPKWd305ctdKSvT1D+73A0ju1zfo5wAVSo2G2E2LivUBKGVqgQMoawAuA+Sm5r6T21JnJ262GERuG2LsEbL9ABXUhkMcPNLPATaT6xQuYbJeRa1gRleFkBDiAJIMwF6Wum2M2x5e/LcOyvYEnkK0lmPso7/r5gC7Eb29Nfd4pdtawbL/OnAATxqAzQHs2Kgro/WKlM3DpRFSDXCUoWcAdj1YLweoou7tEL7Ya3PHAWQ3r8ABVGgAvk5kW25dmYe2kVgHSjiA7QfJXaOUBm3RywH2IIViNuzzV9vccgBpyAAHcMcBnBqAqxHUltxyjjLupRsISyMkGmAapSOsEAN79XKAZbTTy87fEBfnlgNIq+AAB3DLAVwZgK0Q0vZecu1lpDwRsLZDogHi7LK7R1EKOKWTA7SXKywxsQ9q6GcDyaOhUCdQgwZw1Ql8r65ESQNwn+3S+gC7FDqQYhGwWh8HqKKtADhD4JSHWsHSZUHgACo1gKhKWO1ldxoAoe8k9QF20DqQ8l9/pY8DLEZEXWsRmzpHqw+wmIgY4ABaOICsTuAOhuzh5frOOUl9gGoGUTYUcB8qdHGA1QxS3A6IcMFgZQ3AELtCgQOo4gCyOoFtV+3UnYKcZ5dJ6wTaFfp1sYJdDwc4Sm5LEL2X2txqAHkuAg6gTQPwEZBYW85Q67Xih6XSOoFnFe8CEDqohwNsU1gH5B6finNbH0Detww4gEYNIBQJulqKqMtD7I4cSZ3ABnIfiWs/jnYO0F5NiHnJ+nSD+34B8tJCwAE0cABJncC9tOHHXd7jceI6gbbNxIEclwuPaucAJ2mdjVx7/MQ1okgOQKxqAwfQwgFEVcIcbZcJECf49XOxBrDFLWYou4L4R5t3a+UADfJUIp1bzrqtFczItgVCnUDtHMBZJewHsoKEcEBfogFsVZR9gU4f7tLIAS5uUzriwZ8JiLe50QDIu65hoAHEdQJbShGNBTCIOSftF9DDTukW7/xYpY0D7FHobsgP73KFfgGLJbXERHcOwAH0cACuSthl6oogXg+S9guIP4rofZ+5SXu1Fg6we7MUQcll/Uqbu1rBlPNuwAH0cACuSlgjsS+bH1krpf0CbBGMbD+OBN4f1sIBTlJq2Yuf/LTNswZgKB1DgANo4wBsBtiPFDTASnnfwMNk725x53f1HKBBTp5lU0GFzX3fQFIFQL8AZwbIXNmigQMkJjr2y6tKC4/PyvsGHicPGIq25pZWq+UAW8op7a3Fd5YNSn0DF4uWDCS9Q4EDuDJAWflnmeo5QGLiMoY+FNFZonfwUnGmJgh++ZZ2VRwA+5+h/UJn+fH5Ng0aQF4hJNQ5wB/LGLQjQ70GyKqQut8lr09J+wbOt9lOM9Ry4cLYXb5FDQfYUk62MpFq+9PKfQNpGgD2A0g1AN7yd7klTy0HqKUdDWGtUa4BcPt4ht7rka9AvNszB9iynLaiLH78n3jF3sG+uQsIcg3A1gYq+UwlB3DsYBSKxkgyAKsBbLZpm2U/K6tAs7zKEwfYUE7bWSpZX6x29g5WwQGknUOBA3AZAF+fX2pVcYCIEmqjSZYDxMk1AO4fjZDyGj5i0MbV7jjA7pMy5UcpU8G3j9fEAWA/gIgDlAkD6pdaFRrgMqWYKD+qPpdyAJwBbPF2RCAcafXR8iplDrChnKrgpGf9twgJQFEDUEgAcAAiA+A/jbUZ7jmAo5E8Kyyq0kVoAH5FgF5qQnhYs2d3DoUD7N5TtoQWMzIRsD8+3rMGYNxkgJDnADXi69pY64YDWAfuQson9O0LSA1gs8WdklJ7+i7B9V/tlnCAnHc3HKLf9MlFwKF4bEocYBm5jV3SMQQ4AM4AUshWsf+zPDoHuHpKjnMlo3nZggJSA9jibRVIYSe/VMsvX7/x4Ffff/991Vd7Dm88tFm+3EO/DUD2afHpbjTAMqRQUoi5vFTZLkv/XL6aHdT7AcqIGlqlv1yvlWsAR9162rFcEV87V0BwANYx35VQyo1KRZ1Sk3GFo8mirUansf9VaACy37QbYyR/GPRzkHMAhgbYN9srdjXuP1f3+Wef1e1oXLqN0l1Ytt36hwUFFA0Qb4tvQNRig9Ra5MQ2UjnEkf7LHaz/lTXAMtrvJFxM727misyfs4N6P0CZ+6LA1FKBpHPQtgKqBsARcI5ebpSRa3pGabVPXmlM+P6udNb/7jiA/H8tOs9GB9SUl/5zcGuAGlpjPWKYMkq1f4Vv701S0ADx8emLFU6WKxWgITUDQ2kViOzT0vkM4IkDyMsbUZoIKL3zGSB4OcAfy5BiVUeiyDajiPa39ZD2DYwTNIDNFh/ftEvhYClDvbsnshFRG5xrabqF979KDUC2QlEg1PIAORLkHICh7N1kiJOgjELtX97qZL2DRRoAR8BG2TNQalEjxRFKvx+0f4f9714DLCZ6IjNUXSkTAdL2KaGhARQqL9FrMZB1osoKpH0DJRoAe+gsWeSTKPhEZ4byxrZCypmWji1ePQdABBGgCR4mVDUAQy2qTHE8Q1kOZOrkvYNFGgBHQHz6DnFyYZRqzjD0rT9kFqhYjb2vWQMouJwh+1GKfvDn7ODeD0C2VKLd7DGI5jj+3ywjegfPF2sA1vYi6uE+ShNISlFqef/v9U3c+NeuARh5G2Ha7aX0khwJAQ5AS/QMXQ9Qjnxd7lGQ5FYDxOOxetpOHtQnRiZDNIWkZYBdxcXp4gygXgPQsRODyIqorh8LDQ0gv0aMAvWn3AHaI4i+gTINwFp600p6MxLKlk+GioWE3YRH053mngMso2tOapts2pFXJpQ4AO3qMwrDR7LPp6S2gOgbKOEAfAaIT48/bZcWHCRHvlx/UkJu6Ran9zVqAIa+JMlQKqKKf2NocACG1OFKm3pl9d9/KCB7B0s5AB8D6enpTWeVepQipYVmCRdgUPmGWNH416IBGFrzcaIFHUPWIQkFDkCcoSZW4Bl6FxkG1SVRegfTNAB+S2+qXioTYJRlflodON6WTStOjyUygIq1AIpzESJ7UNIqEIQIB2AUeAxDO9jj/JGy45S+gTQNkB4vuO10hQLtoWhE2Q3J8obY9nSJuecAi4k5hqHd4NJeukgnhIoGIPZbKTUPdV1SZkcPeu9gkgPwGQBbbFUZbZmfQW6wE368dO/F4mK2zqh2DUCWK2EoGYDeODm4OUBCXRmlFRBD6x1KaICztQp9A2kcIN41bGPT99qV+RsjLwXNHea6tKWdLSySrksDUIoWypaIGMWGiUG+HyAz4ef/UFpBKCzCiX5yZW3agiR630AFDeD0f2xsccOpUkTcDjAKi4bM4iqupgzrf90agBpxDGWtWZr7fg7y+gAZcxNqGxHlCDd15Z/3Uen+Wtw7uIjWN1CJA7gyQGxsbFNsU5XCji1ilq7Y3V7MVZTAGUBZA7jlAPJJh6FrAIr6+Tn46wPM/WNL3S8MQ9nwTV9Aqzk3ME3aPVwdBxBlAM6fDXt2lSjV8hP92oNCz5BYbRpgGa1jiOLuI2LjOv/tI9khUB+gcO7cliONpYy7y8UPoMs7ahOtaVzzcEUNEOdeAwh1Aov/FPOn6q82Viwn1xckmWdjMT/+tWmApKSktDSrtciKzWF1JCYmJrY58CZndqdrWzJbEZ/dELwwLzVvYYZrT3ihsCM4O4TqA/w542rdygqGsvlS8EjFyiM9HP8nkbum4gyglgPw/hfXCWyf/af29vbdp6u+OkXEm/OLQ6uLdWiApKSkoqSiorQeaUXWIhwJDqvDmmhNTMxK5M+GtiUL54NTncdD89gYyOBiIJRqBOXhV16Y8efPrjdWlJXIqipdbtxfd7XtvSyHw5Fo5S2NzQFaOYBiz6B3c04hxT1JFauFDKCBA7ARUFSElUpaEZu1HFYHmweIcwG5qbncyZA8to92IXsyIPTqBHK2MBWfEWypvfoZa1drB/KHQ3B9AEeilY8AlRrApqwBiPoAh+gcgN0BskW7BhAygOB+q9Wa6Eh0CBlAXh8AR8DCPK5AQGFGKNYJdJ4Lw8Mh9x1s/LmANmeNoESHw5UB9HIApX4Bq8uI5O+MhPJqPRqAzwBpvP+trP+FDAD1AZRqBOXyZwOT23LbpPUBxBkgTaMGSKdkAFl9gN3LaRqAe1zaoFcDyDOAIwvqA+itE8hGgFUUATo5AL1O4LvvVm8mVqRd9/FVGjmAMwOkCRnA4VDQAFAnUG2dQM0aIF6DBsjJyalS3IiCiwz7SQNAnUD1dQJdGsAHHIBWJ/CofElanAsO+lYDQH0A7XUC6RnACw5A1Ak8TOky4doQUOyNBmDvAqUZAPoFFGqqEyjVAL7kAEJ9gHdzdiE3kPbQRR0cwKUBrFo1APQLkNUJ9CsH4OqDcDeD9DTAoJrV/uIA0C9AmwbwAwfgc8Du5aT7XYpg2xbgAB2sATqOA/A5gLsZpK7TMhgJAQcIUg7grBFWxRBFgUT7R0sbgAMEKwcQ6gQeRUr7hfFjpqoJOECwcgA+B5xFCk1q+fajwAGClgNwdQLZlUFKdQdn88E/AAcITg4g1ApeXYMofepdIbEMOECwcgC+VvDu5fQuoYIcPNQEHCA4OYBQK7i6VH5IRzoV1EwDDhCkHIDvF/A97QifuDbdd8ABgpQD8P0CjpKlyhgpEgIOEKQcgO8buFLhwJiQEUobgAMEKQfgvt1+UrFgFT8fVAEHCE4OwEfAxRqF82LOEPgKOEBwcgB+bthtp2kA8bG+g8ABgpMD8Fa9mSxiJ+UCy4ADBCcH4GVAA0NfFXAdXD7UBBwgKDkA1zu8fYPyiX6hcOg04ABByQG4FNBeHJsei9d//4Df45sw/WkSnpadZ4ADBCsH4HJAjM76AMABAp4D8BFQrLs+AHCAAOcAXAYQxr+3ZwOBAwQcB3BmgGJv6gMABwhgDtARGgA4gIE5ABcB/tEAwAECgQP4UAMABwhEDuC8C9BcJxA4AHAA4ADAAYADAAcADgAcADgAcADgAMABgAMABwAOABwAOABwAOAAwAGAAwAHAA4AHAA4AHAA4ADAAYADAAcADQAcADgAcADgAMABgAMABwANABwAOABwAOAAwAGAAwAHAA0AHAA4AHAA4ADAAYADAAcADgAcADgAcADgAMABgAMABwAOABwAOABwAOAAwAGAAwAHAA4AHAA4AHAA4ADAAYADAAcADgAcADgAcADgAMABgAMABwAOABwAOABwAOAAwAGAAwAH6KgAuBU4QMdxgNsMGABdgQN0HAfoasAAGAAcoOM4wAADBkB34AAdxwG6GzAAzMABOo4DRBkxAJ7MBw7QQRzgSbMRA+BZ4AAdwwHy8581ZAA8mg8coIM4wD2GDIAo4AAdxAHyuxgyAMzP8SkAOICfOcBzZmNmgFvygQN0BAfIv8WYAWCOej4fOEAHcIDno4waAI8CB+gIDvCo2aABYI4ang8cwO8c4Pkuhg0A86PAAfzOAfJ9mgB8HADm5/KBA/iZAzxpNnIAdBkOHMDPHKC7oQPAfAtwAP9ygLFRxg4A87PAAfzJAZ7zsf99HwBRTwIH8B8HeL672fAB0H04cAB/cQAfbgXzWwCYzQOGAwfwEwe4xxwIAWDuOhw4gF84wFhzYASAuevwRcABfM8BnjUHSgCYBwwHDuBzDuAX//spAMwDngcO4GMOcHdUIAWAufvzwAF8ygEe9ZOj/BUA5i7PAQfwHQcY3jUq0ALAHPUscABfcYAnu/vNTf4LALP5UeAAvuEAd/vRSf4MAHP3J4EDeM8Bhs8wB2oAmKPGzgMO4CUHeLKLOXADwGwe8CRwAK84wN1+dpC/A8BsfvTFBOAAejnAkwPMAR8A5u7PAQfQxwGyx/rfOx0QAGZz1ycTgANo5wDPdjcHSQCYo26ZCRxAmwZImNm1Q1zTMQGApcDzmcAB1HOAlx/tIL90WACYu4wFDqCSAxS+fHcXc9AFgNnc/dkXgQOouAt4eWyXjnNKRwYADgHgAB40QEaHur+jA8Bs7nL3y8AB3GSAmY9GdaxDOjoAsBZ4HjiAAgeYeU9UR7uj4wPAbDbPeLYQOADJAZ7tehN8cVMCwGzuPnYmcABJBpjZsVP/zQ4AjAeffRk4AM8BXr6z681yw80LAFxR5DngAKmpbc91/MxvjAAwm6d0HzszL7Q5wMyx3W+qC25uAOA0MODul0OWA9x/94Cbff1vegCwdwV3v5wbehyg5eZN/EYLALxzaOzMkOIA99/dNcoQF94oAWCOMnd/9Lm20OAAM58egF8wBIBcEpq7zHj2/uDmAI6BTz3UxUDX3FABIEwG41ODlQPMnNXVMEPfsAFgNkd1ueep+4ONAxTNvPOeLga82EYMAC4RPPrUzLZg4QDj75zRxaDX2bABwKaCrmOfuj/AOYB1/KwZXaKMe40NHQDc8vE9d860OgKSA9z/1NMDjH55jR8AbBB0HTv+/kDiAAX3P/VS1y6BcGkDIwC4KJjx9FP3pxmeA/z69qdeGtAlYK5qAAUAFwUD7pn11P3G5AA9Hhk/66EBUYF1QQMtAHjrPuOlp8Y/UmQUDvDI+HufnjEgIK9kgAaAkA4emvXU+EduGgeIx45/qWt3c1TgXsOADgBnPuj60NN3jr/917YO4wCP3H7v0wGX7YM3AHhqYO4yYMZLs+4cP/6RX/uDA8Q8cvvt99759EszBnTvEhU0Vy2IAkCaFAbMeOihp2fdee+9429/5JGmYl0coOkR7PN7Z8166aEBA7qYp/BunxJMFypYA4CQC90HdO0646GHHnrppadnzZp155333nvvvbdLDX/rzlnY3Q917dq9u+RWbkqwXphQCQCpE6fgx1OiKH8/hfu7IPZ4CAcAGAQAGAQAGAQAGAQAGAQAGAQAGAQABAAYBAAYBAAYBAAYBABYyNn/B+1eI772dllYAAAAAElFTkSuQmCC;rotation=0;" vertex="1" parent="1">
          <mxGeometry x="655" y="-579" width="50" height="50" as="geometry" />
        </mxCell>
        <mxCell id="cp8NjEBjRZy_50qt3RIU-21" style="edgeStyle=orthogonalEdgeStyle;rounded=0;orthogonalLoop=1;jettySize=auto;html=1;" edge="1" parent="1" source="cp8NjEBjRZy_50qt3RIU-9" target="cp8NjEBjRZy_50qt3RIU-10">
          <mxGeometry relative="1" as="geometry" />
        </mxCell>
        <mxCell id="cp8NjEBjRZy_50qt3RIU-51" value="&lt;font style=&quot;font-size: 14px;&quot;&gt;CI/CD Pipeline Trigger&lt;/font&gt;" style="edgeLabel;html=1;align=center;verticalAlign=middle;resizable=0;points=[];" connectable="0" vertex="1" parent="cp8NjEBjRZy_50qt3RIU-21">
          <mxGeometry x="-0.2057" relative="1" as="geometry">
            <mxPoint as="offset" />
          </mxGeometry>
        </mxCell>
        <mxCell id="cp8NjEBjRZy_50qt3RIU-9" value="" style="verticalLabelPosition=bottom;html=1;verticalAlign=top;align=center;strokeColor=none;fillColor=#00BEF2;shape=mxgraph.azure.github_code;pointerEvents=1;rotation=0;" vertex="1" parent="1">
          <mxGeometry x="440" y="-734" width="50" height="50" as="geometry" />
        </mxCell>
        <mxCell id="cp8NjEBjRZy_50qt3RIU-22" style="edgeStyle=orthogonalEdgeStyle;rounded=0;orthogonalLoop=1;jettySize=auto;html=1;" edge="1" parent="1" source="cp8NjEBjRZy_50qt3RIU-10" target="cp8NjEBjRZy_50qt3RIU-7">
          <mxGeometry relative="1" as="geometry" />
        </mxCell>
        <mxCell id="cp8NjEBjRZy_50qt3RIU-52" value="&lt;font style=&quot;font-size: 14px;&quot;&gt;Inicia Build&lt;/font&gt;" style="edgeLabel;html=1;align=center;verticalAlign=middle;resizable=0;points=[];" connectable="0" vertex="1" parent="cp8NjEBjRZy_50qt3RIU-22">
          <mxGeometry x="-0.0305" y="1" relative="1" as="geometry">
            <mxPoint as="offset" />
          </mxGeometry>
        </mxCell>
        <mxCell id="cp8NjEBjRZy_50qt3RIU-10" value="" style="image;sketch=0;aspect=fixed;html=1;points=[];align=center;fontSize=12;image=img/lib/mscae/Azure_Pipelines.svg;rotation=0;" vertex="1" parent="1">
          <mxGeometry x="440" y="-634" width="50" height="50" as="geometry" />
        </mxCell>
        <mxCell id="cp8NjEBjRZy_50qt3RIU-11" value="" style="sketch=0;points=[[0,0,0],[0.25,0,0],[0.5,0,0],[0.75,0,0],[1,0,0],[0,1,0],[0.25,1,0],[0.5,1,0],[0.75,1,0],[1,1,0],[0,0.25,0],[0,0.5,0],[0,0.75,0],[1,0.25,0],[1,0.5,0],[1,0.75,0]];outlineConnect=0;fontColor=#232F3E;fillColor=#DD344C;strokeColor=#ffffff;dashed=0;verticalLabelPosition=bottom;verticalAlign=top;align=center;html=1;fontSize=12;fontStyle=0;aspect=fixed;shape=mxgraph.aws4.resourceIcon;resIcon=mxgraph.aws4.artifact;rotation=0;" vertex="1" parent="1">
          <mxGeometry x="440" y="-434" width="50" height="50" as="geometry" />
        </mxCell>
        <mxCell id="cp8NjEBjRZy_50qt3RIU-16" style="edgeStyle=orthogonalEdgeStyle;rounded=0;orthogonalLoop=1;jettySize=auto;html=1;entryX=0;entryY=0.5;entryDx=0;entryDy=0;" edge="1" parent="1" target="cp8NjEBjRZy_50qt3RIU-5">
          <mxGeometry relative="1" as="geometry">
            <mxPoint x="490" y="-319" as="sourcePoint" />
          </mxGeometry>
        </mxCell>
        <mxCell id="cp8NjEBjRZy_50qt3RIU-55" value="&lt;font style=&quot;font-size: 14px;&quot;&gt;Deploy da API&lt;/font&gt;" style="edgeLabel;html=1;align=center;verticalAlign=middle;resizable=0;points=[];" connectable="0" vertex="1" parent="cp8NjEBjRZy_50qt3RIU-16">
          <mxGeometry x="-0.2369" y="-1" relative="1" as="geometry">
            <mxPoint x="17" y="-1" as="offset" />
          </mxGeometry>
        </mxCell>
        <mxCell id="cp8NjEBjRZy_50qt3RIU-27" style="edgeStyle=orthogonalEdgeStyle;rounded=0;orthogonalLoop=1;jettySize=auto;html=1;" edge="1" parent="1" source="cp8NjEBjRZy_50qt3RIU-11" target="VR_d9GR8fqseAN5zqrYm-1">
          <mxGeometry relative="1" as="geometry">
            <mxPoint x="465" y="-344" as="targetPoint" />
          </mxGeometry>
        </mxCell>
        <mxCell id="cp8NjEBjRZy_50qt3RIU-54" value="&lt;font style=&quot;font-size: 14px;&quot;&gt;Entrada para Deploy&lt;/font&gt;" style="edgeLabel;html=1;align=center;verticalAlign=middle;resizable=0;points=[];" connectable="0" vertex="1" parent="cp8NjEBjRZy_50qt3RIU-27">
          <mxGeometry x="-0.1595" y="-1" relative="1" as="geometry">
            <mxPoint as="offset" />
          </mxGeometry>
        </mxCell>
        <mxCell id="cp8NjEBjRZy_50qt3RIU-30" style="edgeStyle=orthogonalEdgeStyle;rounded=0;orthogonalLoop=1;jettySize=auto;html=1;" edge="1" parent="1">
          <mxGeometry relative="1" as="geometry">
            <mxPoint x="1100" y="-510" as="sourcePoint" />
            <mxPoint x="1100" y="-350" as="targetPoint" />
          </mxGeometry>
        </mxCell>
        <mxCell id="cp8NjEBjRZy_50qt3RIU-64" value="&lt;font style=&quot;font-size: 14px;&quot;&gt;Recebe cÃ³digo Reserva&lt;/font&gt;" style="edgeLabel;html=1;align=center;verticalAlign=middle;resizable=0;points=[];" connectable="0" vertex="1" parent="cp8NjEBjRZy_50qt3RIU-30">
          <mxGeometry x="0.2637" y="1" relative="1" as="geometry">
            <mxPoint y="-11" as="offset" />
          </mxGeometry>
        </mxCell>
        <mxCell id="cp8NjEBjRZy_50qt3RIU-65" value="&lt;font style=&quot;font-size: 14px;&quot;&gt;Publica ValidaÃ§Ã£o&lt;/font&gt;" style="edgeLabel;html=1;align=center;verticalAlign=middle;resizable=0;points=[];" connectable="0" vertex="1" parent="cp8NjEBjRZy_50qt3RIU-30">
          <mxGeometry x="-0.1057" y="2" relative="1" as="geometry">
            <mxPoint x="-2" y="-22" as="offset" />
          </mxGeometry>
        </mxCell>
        <mxCell id="cp8NjEBjRZy_50qt3RIU-28" value="" style="outlineConnect=0;dashed=0;verticalLabelPosition=bottom;verticalAlign=top;align=center;html=1;shape=mxgraph.aws3.mqtt_protocol;fillColor=#5294CF;gradientColor=none;rotation=0;" vertex="1" parent="1">
          <mxGeometry x="1075" y="-579" width="50" height="50" as="geometry" />
        </mxCell>
        <mxCell id="cp8NjEBjRZy_50qt3RIU-48" style="edgeStyle=orthogonalEdgeStyle;rounded=0;orthogonalLoop=1;jettySize=auto;html=1;" edge="1" parent="1">
          <mxGeometry relative="1" as="geometry">
            <mxPoint x="1325" y="-760" as="targetPoint" />
            <mxPoint x="1325" y="-600" as="sourcePoint" />
          </mxGeometry>
        </mxCell>
        <mxCell id="cp8NjEBjRZy_50qt3RIU-32" style="edgeStyle=orthogonalEdgeStyle;rounded=0;orthogonalLoop=1;jettySize=auto;html=1;entryX=0.03;entryY=0.5;entryDx=0;entryDy=0;entryPerimeter=0;" edge="1" parent="1">
          <mxGeometry relative="1" as="geometry">
            <mxPoint x="1140" y="-554" as="sourcePoint" />
            <mxPoint x="1292.1000000000001" y="-553.9999999999999" as="targetPoint" />
          </mxGeometry>
        </mxCell>
        <mxCell id="cp8NjEBjRZy_50qt3RIU-33" value="&lt;font style=&quot;font-size: 14px;&quot;&gt;Developer&lt;/font&gt;" style="text;html=1;align=center;verticalAlign=middle;resizable=0;points=[];autosize=1;strokeColor=none;fillColor=none;" vertex="1" parent="1">
          <mxGeometry x="480" y="-814" width="90" height="30" as="geometry" />
        </mxCell>
        <mxCell id="cp8NjEBjRZy_50qt3RIU-34" value="&lt;font style=&quot;font-size: 14px;&quot;&gt;Git&lt;/font&gt;" style="text;html=1;align=center;verticalAlign=middle;resizable=0;points=[];autosize=1;strokeColor=none;fillColor=none;" vertex="1" parent="1">
          <mxGeometry x="500" y="-724" width="40" height="30" as="geometry" />
        </mxCell>
        <mxCell id="cp8NjEBjRZy_50qt3RIU-35" value="&lt;font style=&quot;font-size: 14px;&quot;&gt;Pipeline&lt;/font&gt;" style="text;html=1;align=center;verticalAlign=middle;resizable=0;points=[];autosize=1;strokeColor=none;fillColor=none;" vertex="1" parent="1">
          <mxGeometry x="490" y="-624" width="70" height="30" as="geometry" />
        </mxCell>
        <mxCell id="cp8NjEBjRZy_50qt3RIU-36" value="&lt;font style=&quot;font-size: 14px;&quot;&gt;Build&lt;/font&gt;" style="text;html=1;align=center;verticalAlign=middle;resizable=0;points=[];autosize=1;strokeColor=none;fillColor=none;" vertex="1" parent="1">
          <mxGeometry x="500" y="-524" width="50" height="30" as="geometry" />
        </mxCell>
        <mxCell id="cp8NjEBjRZy_50qt3RIU-37" value="&lt;font style=&quot;font-size: 14px;&quot;&gt;Artifact&lt;/font&gt;" style="text;html=1;align=center;verticalAlign=middle;resizable=0;points=[];autosize=1;strokeColor=none;fillColor=none;" vertex="1" parent="1">
          <mxGeometry x="490" y="-424" width="70" height="30" as="geometry" />
        </mxCell>
        <mxCell id="cp8NjEBjRZy_50qt3RIU-38" value="&lt;font style=&quot;font-size: 14px;&quot;&gt;Ponabri API&lt;/font&gt;" style="text;html=1;align=center;verticalAlign=middle;resizable=0;points=[];autosize=1;strokeColor=none;fillColor=none;" vertex="1" parent="1">
          <mxGeometry x="630" y="-299" width="100" height="30" as="geometry" />
        </mxCell>
        <mxCell id="cp8NjEBjRZy_50qt3RIU-39" value="&lt;font style=&quot;font-size: 14px;&quot;&gt;Deploy&lt;/font&gt;" style="text;html=1;align=center;verticalAlign=middle;resizable=0;points=[];autosize=1;strokeColor=none;fillColor=none;" vertex="1" parent="1">
          <mxGeometry x="430" y="-299" width="70" height="30" as="geometry" />
        </mxCell>
        <mxCell id="cp8NjEBjRZy_50qt3RIU-40" value="&lt;span style=&quot;font-size: 14px;&quot;&gt;Azure SQL Database&lt;/span&gt;" style="text;html=1;align=center;verticalAlign=middle;resizable=0;points=[];autosize=1;strokeColor=none;fillColor=none;" vertex="1" parent="1">
          <mxGeometry x="600" y="-609" width="160" height="30" as="geometry" />
        </mxCell>
        <mxCell id="cp8NjEBjRZy_50qt3RIU-41" value="&lt;font style=&quot;font-size: 14px;&quot;&gt;Node-RED&lt;/font&gt;" style="text;html=1;align=center;verticalAlign=middle;resizable=0;points=[];autosize=1;strokeColor=none;fillColor=none;" vertex="1" parent="1">
          <mxGeometry x="1055" y="-299" width="90" height="30" as="geometry" />
        </mxCell>
        <mxCell id="cp8NjEBjRZy_50qt3RIU-42" value="&lt;font style=&quot;font-size: 14px;&quot;&gt;MQTT Broker&lt;/font&gt;" style="text;html=1;align=center;verticalAlign=middle;resizable=0;points=[];autosize=1;strokeColor=none;fillColor=none;" vertex="1" parent="1">
          <mxGeometry x="1045" y="-609" width="110" height="30" as="geometry" />
        </mxCell>
        <mxCell id="cp8NjEBjRZy_50qt3RIU-45" style="edgeStyle=orthogonalEdgeStyle;rounded=0;orthogonalLoop=1;jettySize=auto;html=1;" edge="1" parent="1">
          <mxGeometry relative="1" as="geometry">
            <mxPoint x="1290.0000000000002" y="-553.9999999999999" as="sourcePoint" />
            <mxPoint x="1130" y="-554" as="targetPoint" />
          </mxGeometry>
        </mxCell>
        <mxCell id="cp8NjEBjRZy_50qt3RIU-66" value="&lt;font style=&quot;font-size: 14px;&quot;&gt;Publica CÃ³digo Reserva&lt;/font&gt;" style="edgeLabel;html=1;align=center;verticalAlign=middle;resizable=0;points=[];" connectable="0" vertex="1" parent="cp8NjEBjRZy_50qt3RIU-45">
          <mxGeometry x="0.3085" y="1" relative="1" as="geometry">
            <mxPoint x="27" y="-17" as="offset" />
          </mxGeometry>
        </mxCell>
        <mxCell id="cp8NjEBjRZy_50qt3RIU-68" value="&lt;font style=&quot;font-size: 14px;&quot;&gt;Recebe ValidaÃ§Ã£o&lt;/font&gt;" style="edgeLabel;html=1;align=center;verticalAlign=middle;resizable=0;points=[];" connectable="0" vertex="1" parent="cp8NjEBjRZy_50qt3RIU-45">
          <mxGeometry x="-0.1774" y="-1" relative="1" as="geometry">
            <mxPoint x="-11" y="15" as="offset" />
          </mxGeometry>
        </mxCell>
        <mxCell id="cp8NjEBjRZy_50qt3RIU-104" style="edgeStyle=orthogonalEdgeStyle;rounded=0;orthogonalLoop=1;jettySize=auto;html=1;" edge="1" parent="1">
          <mxGeometry relative="1" as="geometry">
            <mxPoint x="1325" y="-750" as="sourcePoint" />
            <mxPoint x="1325" y="-590" as="targetPoint" />
          </mxGeometry>
        </mxCell>
        <mxCell id="cp8NjEBjRZy_50qt3RIU-111" value="&lt;font style=&quot;font-size: 14px;&quot;&gt;Input do cÃ³digo de validaÃ§Ã£o&lt;/font&gt;" style="edgeLabel;html=1;align=center;verticalAlign=middle;resizable=0;points=[];" connectable="0" vertex="1" parent="cp8NjEBjRZy_50qt3RIU-104">
          <mxGeometry x="-0.1898" relative="1" as="geometry">
            <mxPoint x="-5" y="-15" as="offset" />
          </mxGeometry>
        </mxCell>
        <mxCell id="cp8NjEBjRZy_50qt3RIU-112" value="&lt;font style=&quot;font-size: 14px;&quot;&gt;Recebe confirmaÃ§Ã£o&lt;/font&gt;" style="edgeLabel;html=1;align=center;verticalAlign=middle;resizable=0;points=[];" connectable="0" vertex="1" parent="cp8NjEBjRZy_50qt3RIU-104">
          <mxGeometry x="0.0627" y="2" relative="1" as="geometry">
            <mxPoint y="5" as="offset" />
          </mxGeometry>
        </mxCell>
        <mxCell id="cp8NjEBjRZy_50qt3RIU-46" value="" style="shape=image;verticalLabelPosition=bottom;labelBackgroundColor=default;verticalAlign=top;aspect=fixed;imageAspect=0;image=data:image/png,iVBORw0KGgoAAAANSUhEUgAAAJYAAACWCAYAAAA8AXHiAAAAAXNSR0IArs4c6QAAHxVJREFUeF7tXQt0VdWZ/ve5gSSENyQIiIZXIC9IgqiUEZPW2tKqo0UFW2vDmo610nGm7axOO1ohdmbaeTid1uKjrq6Edq3aaqeOHVtarSbgVNRCyAsSHiEXRZCAvJIQ8rhnD+ee9zl7n73Puefce+6Fs5YLb85+/Pv/v/3///73v/dBEPCDAAAH3Ifr5glErXjzvdwLk6cvB4yXAuBihGEeBnwlAJqOEJqIsZiDAEljGUYAfQDoJAAcxRj3IMD7EGS1jhWGdu4onXRKpsfFyF0UdT3WFFWQhnTJPstaz1+Hs/BqhOEmDLDSF0Yg2I1E/LoowNbdpeNf86XNNGzkkgPW8rYL82Iodh8AXgcILQpUZgiOQgw/jzD62a6lec2uNRlN84VIw9FIuWSAVdV67gbIytoAGK8NFEz0xl8RRHhy55K8l1LUf1K7zXhgLd1z/tqIiL8FCG4nchZjAOTABu295CkSynHXV3vHb4gC+l5LSd7vkirpJHeWscC67gCeODJ0/l8AYEOSeUrszmYyEHpeHB55pKVy0oEw0Oc3DRkJrMqOvnUIhMcBYJbfDPO1PQwxBOjru8rH/cDXdkPQmDOwgnASg2jTwMiqjoEfaVoq4L78kx/6NR6OPbC7asIJ/9pMbUsZo7GWtV+YL6LYFsB4JTL4TBhjSIffGEMPYLF295IJ21MLCQ+9EyZwRgCrcu/gKiSKvwCAmR7YEqoqCNDndpWN+3moiPJATNoDq6p94BYAeBEQZHkYv6sAuaf2PVRCGB7cVZ73lIeq5MhXClyCtAZWVeeFWyAW+19VADr/KKEBr5JKTb2vNJflbU5N14n3mrbAqmjvqxZA+CMAjvDFoSjMch2HsrQTYH0EuHZX2fgtiYs54BYyxcda2nKuKCsrsh0DzPDEshSYBk90SiFZjD+xq3z8K17rp6peWmqsqvaBHYDg+uCZlnqTigGO44hwfUtxbjTQ8SqTza85l3bAqtoz+DRg8UuBMtnauF/c9ko0hj82l+d93Fw9CKL8a9MlsPzr2AuPK9v7Pw8AP+WJS6mUWuNYIsYgpGGcCzDUNZfnbfLCt1TUcQmsVJAo97lsH56OR853AsD01FGRgp6lxYGaNBgRVjSXjHvLNyoC1BNpA6zK9r5nERK+6IqpATKOSoeGAzlrIq4xlSxa2r/xtpQkC6m8HlyzDABB0+7yCTWueJCiwmkBLCWyvs3Eo1SAhiQkNdxgAoSDNC24kYEnpTzTAagCT0Yo/uLupRN/kiK8cHebFsCq6hjYCgCfJI7KZRxJ9bmcNInajyxHVYFoKoWPucZ6Np1l6sHUnhGn8twxAi8OwEMtFZPm8xGRulKhB9ay9v6bMUJ/4GaRDQiKneFsIC5Ym0DlAyFEJWnSQFg5OWI1eoTO+Rq0HUWJ04fhod1Vk57gHFJKivkErODsUlV7/28A4FaS52HWKAbN4uaEjHaEiCpps2AcTRnZpJlNmVXODj6VOidUKam0ItjfUjk52Hz9BOHoE7ASpIJSfVlbfzlG0Ga2FWbV4eSbkIGntuYCSFQCCBPKBjyrK24zbXLrDuSYe1EKinB3yzWTX3DN+SB0AKHNUAOrsvXcfwDA151SEEw+CZJ9ItemjOy8kY0fQ8GYEWLguFJPp8++9lPpNr0xVjDSieDl1mVTb3UNrCRVSBmweCZOZWvfEQA822QRbDPbWdJ04OkAVP9PXZ3ZFJSjMCwEMYFntayyBlNnBBt4usbFozCn7fppR5KEFVfdpAxYLCorm8/cBAJ6lb2Kt5yz5hasAyAMxNmbs5gymkahDtCouhRAsZhhfG+cKRgear1ueiid+NACq6Ll7H8iDF8lLLfNi3emq8R0ehhitQBBcoYMWKYuKrS1hMswhaaQeOqh37deO221G1wmq2xogbV01+l2hKDMeqyPbip0TcJyhq3GiMunoUhE24tUCHUTaVcCnu7ueTAgGQHEsrKm5+66Bo0kCzC8/YQSWMs7+q8YGRo5ZgKIbUQyh2XBGp12mlNs8alMEXNedikRU7VDjrAGFgGQoNAXp9NtpF33qYiLGCR8rO266a+zR8Dj1bJb4S0RSmBVNp++TRSx5Sg6wTfh5FW8JgVI7kwZR4e2BjmdPopJN7sChDUnQt9qv77ge7wCD7KckTvhBNbO04+KINbFV2lx793FQ1oGStVZmNAEawYCV5zMRB7D6aPizEU9Y38I/bJtRcE6FxxKStHggMUSpMPwlv75w+cwxuuct1B4nFvS8o5TgyhVOfbuHF02++VgVNXEAD8VeO3tK2cucURLArLwisLggOWVootnuZa+c/IdAFguNWH2SRy2TKiuCHPZKNekFnOuz72YINHnPHOsWww04J1v/4uZefHmUwAgmpjDCay3T0g35c3k4pQtHGXfMlH5beI7F5AYWzZErjrExxwXGd5XtaNj8fSu6678MIG57HvVcALrrd5RDBDhc10Yps1Zzpa0FEOIiqnoHEwal5iMixFdY7Ij7/ZFDMpCxe0fmdXF1W2SCrkGFlnbKn/1QRWXNPaOj+TgPk++iQfTwi1I1Va6jbTbnTRO0RrCKYwMVBzD1+/96Jy3qQ37IBdOorViroHlpQN1XcczvsVvn5s2NjZ4UtcHllWhK01CsT2OgzBrEjbwLM5TQsBzv8Uj+aACitzYfuOsUF0mEjiw3AKxcvux/NEI9Gr1XJkyJTxBdKpolNhNiyuaLfExkmE2kSPtCCF6XI3ZtzbP9J6ECKpuXzXHnLrNbCjYAqED1rKdpyYNXxg6Qx+2Jc6kHFZwWnSZBWsIU/CoUK1hl+ENpZ5py4eR2x4nx4ZMdngEieLKjo8VvhksVNy0Hs/XCNdz1/M40jnz2Ki2/ndpWkw57ZRTMs6LOaatNVc3aiCO9b5x7ScDiZL4x1CwengEg4DFpR03zTMnRKZYrKEDlsSPsjfePwUYpnDxhp1XY2pGt1zyhWykTWN+4HGoPJcaiFTcbNntGmwUIlfu/9ic97n4laRCoQRW6fb3OwDjUvIiz2iSEhUsm8smIFJMmRm51mOBbFNmq+/coG2idP5pSwQ2bRLZo0leiVACq2zbkZcBw6flxErObACjkxX/f/cmzWzJ+OoHu+VjmDj0sFlP58fnzkseZPh6CiWwSpvefRwwfI00BI2/hpPD+oFPecvH8bEJiAEgqsIh17PTRz3XrLr3vFs3ZAuN4fddn5gXsmS/EDrvEvdKGw9/AQA1kBWPWaDqL6PCUldX5jwty5aJk3PswhSZFKPDDpCqQbVsCcLi1Nmwm+Nr2vxB8G+dN8//Bz49krxSssbicFWSRxJAyeuHSwFDh9wnw0dhujDOGokdALV04HKV6nV1q00URiKjiPHd+1YvdH8MLGCBhtIUxrXWa9EPAGCGzbBRcUJ3QoxJ8sicsk5gr0UjasfJ6JmpNm/amtLKI0SjDeUpr5QRhbGz99181VEXVRIsyqeFwgMsC73Fr/b8HAHcY/eYHDQI15gJ9R1YbV/+G8IUbnZgnFKhrfbcSI8JcOYBYoCWfZ8qqkwQKYFUDw+wLMMrfvXQfQjQFtspHYJpcHbWPUbadVvk3DwhuiArLB2AXJIjAogxUxD6btfqhf/I1X6SC4UWWPNe7Z6UjdEZw9FmLtakIvLuJkxBXzXSwyq0tYQgxlZ03lbi30VsXBzmKxRaYEnkl7zS/TzGcBe3RmKO2XKqR4uTcUS93IYpNI1nXRw5rzbY4QqtRPu+WxY7pyQz+RFcAd+AxeXeuBzHoq0HbkMAL+nnu1w4NRymRaJZClebN6nlzxfqiz+vcS4jshhOHPG13K/tMIf2eUX0jX23Lv53lyxNWnHfgOUPxXZ4Fm89sAcDlFDbt3vXfPETRw2k00Fqnrzo41uVOicwsiPtEh8wQEwYhRldnykOVTqyUUYhA5YdPsW/3bcBIyR9Ki7+2E930bMDTDB1G6agmjIrjeZ1K/sSEr1h0yUkDMWo9xqPlzyx//bSh/yZzMG0EjJgkQ3q4t/t6wGMChVo0S9/JQLPfj8VMSLMFKxkNAXbDXusHSRrgNd0cpsrwVUhzIjYWGz+/jVLDgUDCX9a5QcWjxPFU8YD3Yt/2/kljNHTsspyxJV2OEI9FsF2hkkaiM8kmWsaAUDfA7eGrLRwiiE8YfL5LORhQI8fvKP07z2wMalV+IHlkSy/sLbo5a43AcMKOxmWECoTeJSL2bj37uQONLfar5PaqqknzJs4D2X6To6O5C44dPf8sx7F4bGaeykGDiyPI7FVW/Sbro8C4Nfk7IV40ricPM6xd2eLVxsuOmOZMh2nii/HcQmJiXjakX8WY0irWgxfOnDnkh+zqobhfdoAS2JW0UudjwPgr9FMhXcAGQ0UwaehSUpNSzZaPodUY+K851zVYgwvHbxzye1hAA0PDSEGFln9Fv1Px58B0DX6hLbv3Tn5KBpTTBqBh1VWW0X29h3DE7bERb78MYTg1CiKVfWsqTrsgtJ4UfdGzG0P5PIhBhaZ4Pkvti0TQHgbWU9K03wUY0KgkuOutuzIdI4AK5FCRnyMFvAk7VHL9GEAAd11cM3SX/kj8gBaITAyTYBlpnzBi+33Igw/YwpW9Xod5i191WhPDIw3Z2UiZ6DVrim5vkgAGIuPdq+t+k4AcAi0yTQBlp0HRb9u+yYG9F3d+aYFoixIcPRp7FOPHa7gXoZSBGmh2/ATA3qme23FA4EiIKDG0xZYEj8W/KrtuwD4m+ZVGC3OxYiAUl7zXK7rnNdnAR4pZZUkXAzPdd9T9dmA5E5p1j+PLC2BZRz+whda/hUD+obuqPJrEO0qUR5kUoFH//KEFKcXDfWcxWZYjQroue61yQaVvxBOS2BZWbDwhZZvY4wfI62B2Ht3FCAyFJxOg4NG4pCVKSFQDs892/3Za+7nqJqcIh6VWPwjthJr0v1Z8ELrFwGLz7IGo5o27dSMMeDpeu/ODfN0jYQRki/btTwX/77p0D3L6tJdFqr1yIRxxMew8JfNq0QMz0qxVOLpGMIssusrwpcnFA5xTUIvkXaM+xBC93d/bvkvMkUYaW4K7aKe8dPWvAljR5/AGNZzCYkBBJKhNAVgTXdHGCP4HItAORyyVcgS/ubgumu6uehNk0KJA8txGtNecs19Awv5yld0DhYKo2ItIPhCbl9f4YdHe2F4aNgsCi8axdiC/Z4hZ9fftrmtfJRJEMSCGVNbh68o+GFz2Xj5cG4GPYkDK8XMiINJFGsB4AuAQcnZAijOFeCv88fAE+1HoeXdE4BFkfrtZSYyjAFWGsapzr7Zl5J+lVw5HR4omwUbjyv3eCAUBYybBCxs2Vme2+QnS/mmpJ89ym2lLbCq2gc2SZoJY1woXUekPtpFZwDw8KyxUJwjwMGBYfhJ53FoP3IScEy0pNAzwhNawzyRcoKADM3PuGIqPFQ2EyqmjIPtfTH48YkR7ZiYoZsowrBFBLGppXyCryDzHz70FtMKWAZTt5GHSasmROD+/DFa0fcuxKBhfy90HD0FAwOD8b+zN41JyDLqAeX/jQ0ZXK0x2WOhbPZU+HxRASyakK3R8s/HhqFzkHnzUIMYEepainOjpPGmShvx8D4tgOUWUOrA87MQfP8qXZhGhrx9oh9eip6Cjt6zEBu8QD3/ZQ5PmK/2kH1v+9H7SPZYWFQwCZZcMRnum0u+P+7eQxd45CMBP4oAmkgAuwwsLhaSCykmj0tDkVpQzaETCV3nhqDx2DnYe6ofTvYNQt/ABcCjo3IVhqVEEQGyc3NgxsRcmDM5D1bMmADV+fKHImiPZAIlU+jqQRAFTAaY1k6IkBZajVXR3lctIKFRO5ZDk4K6ylPfW5hbnIPg4VlkreUk2MODo3B6cBiOnB+B3qFRiIly7moEISjIiUDe2CwozMuGeXm6qeUFylffHYIT0icS4sDVDgqSq1vexzUYhi3N5XmbePtLRbmQAQtBRef5wkgM12PA1X4wRDKH9xeMiTvxYXhUp90HWqJiRKih+V8+tJ9QE6ECVqJmj8aJz0zJAum/MDyezCCdcMk8hlJ7hQZYyzrONzK1lFsfQinv5MQnC2wq6bxOuyu6EIqKAgqH9lIGmnJgSaYPxXAjAjm4qcehZK/ZGJcyv1ddFDnnXX1o5XmceFfC9FBYMoPP9A5z0csaj/W95HvhEJnGlAKrqqO/FgDVe5CR6ypSJP7hmWNd1/Ozgslp97NhtS0pgi/iUJjGlAFLAxUxYUrNX/Hv3/wIwPevzglCnFxtSsFQKShKuHzCcL2NT+MFVJfqVWMAwGI7QlUd/fWAQdrfS+ojrQ5XTSA78WyqEyP1x73D7mNXiXSJoKG5bDxfhkci/VDqBgAsZyor2s7VI0BJB5VEVf4YBP91dW4AbGQ3+XeHB+HESHJTKhGghuYlqQFXwMAy64HKtr7Gi9FjPT5lVRNJ+P3w7GwoyTV/vJUNi8RKbD83Cs8cH7ZnTidhvEjEDc0VE5OuuQIGli6QihZJU0Et+dSLesVG8P/eMDECD1zhPhKfCLT+6b0h2Ds4akjb4Ryn9hEpzvLaVSXm8tLHGFqSDC4uYCXqf1TsPleLEE7K6o8FgLg5nDuOVczX95/bP+Bre14awxgaWionJU1zcQHLy0DUOhW7T1cDRo2JtOF33Ufm5ELJuOSYw21nR+CZD4b8HoK39hCqa6mclJQ9Rn5geVBbFbtPFwKGHud8QlaeuP/vJVBJ4ErG87eHBhhOu//jM4/L0j7GdS3LpgQOLn5g2aTARlrFrtM9GHCh9etcYfj9yFWS1srSw0q0C88S+Pv2syPw9LFB974VIBABg0DxmRLkXxSJaH3L8imBZqcmACxGWGHnqUZAUK0mwsVLq1g0/KtlhVCOwwT1fs20bFiTn62lW9FGk4g+kUC17cxIPBWamNdliIcm+X0UpL3FyinEzFQ/NHkgwKp452QtRsnZqvHKhPwxAvxg4Xiv1bnqfXbvOa5yKSmEIdp67bS5QfXtO7AqdpwuxFlij0ZwIlNeasSH+tLVQ6SBfvvqPCiWnHgnLnD0T2p/+5kReProoC/0J0ofrf5FttS1LJ8WiL/lO7CWvnOiEQOqlpwX9WPeti9LKLdxpPp96fgx8MjVzmnE3DPa4nJ+J9oPnedj8ewMQAIAFm17gqke/8UdkCgS8PqW5fm++1scwGI76Vpo4Z2TtSLGUiCU5jL493f1IGgCznWBZA6LJnJjh7dg58AoPBbtJ7mU/o0/gXEb5QOAoq3XTffdJHIAi5edAEve6pUnqKFVq/Mdtvdr8nPgzhn+hh6efn8Atp2WT2CnYvyCtChQxMbVP+C6thUzfDWJvgFr6Y7e+ovJZrV2p8LqpITrd/5YBD9cNJl/9nCUfGjfWTgxrJ4ZDNd4yfKBqAjC+o4V/plEX4BVseNYYQwjJRDKvEbDJyXuXz+PzpsIJeOldJrEjfi2UxfgqSPnk+EM+EKvwWlpav/IFTUc84ariC/AKn/zA2nLpjoJm/Wm66/86u/GKdnw5Tn+OPGPdffB3oERU9hOlYRf9AbVHka4pmPFTF8c+YSBVfbGsWqEsLQS9GG+J8HpJ8zzgrECPFFMPrHMNT0Nhda2fugzH9T7uvzQpwz+Ioi2r5zpiyOfOLD+75h0EMKXM4Buhehn+S/PGQ83Tk0snWbbqSF46r1+P8lKflsI1revnJnwtUoJAUvSVgBiYxLmkkufJX6trCsfRPKxNi5IzIn/yt5TcGJYOjrv5KsZP0+XuE/nt47HGKJ7Vs1iay1GFCohYJVvf19ZCSoTK+xOBIO+RxdOBilo6uXZ0z8Cjx08Y77QNYn8iHflU38Xj+I1tK+anVDuVkLAKtt2xPGjaqzQatjeV0/LgQev9hYwffLwOWj60HyDTNjGZ50wDvRF99x4JVtrOcxAz8AqbTpSjxDU6tdJqzsW6lZO+v0uyI7Aj0qnKoSrFs0a4if/vntXr7Jzlb7jl3faZPpFEdbvrbnSs6/lHViN7xJuhgqfz+DWB9lYNBlKJ7g72Cppqiej0rcpfR5/fHfbv3idG/ow4Ojemqs8ay1PwCppfLcWAUj+FeOuSZYx8OLNBFtHAtXGInehh7r9p2FPn+USXTdkshnppjXfyiJANR01czzFtbwB6/XDUlqMfJFsOuxYGEdJoVedAvljI7Bp0VTIz6bkxBPmyt07P9CFGSg/DF/eVHsMsD8EqGnPR6/yFI13BhZF4ZS+dthwKTUrgJd+7++eNR7unD2ey7Bt7jkD205ecMhaSL/xGw06EsWajo/Pda21XGusktd6agFL2aGpsf3J6Dc/Ows2Ly2Iq2M5v5z+bGg9DieGpNhU5vFDya1v2HvTXP7Qg4JK98D6Y49uBn2z5uFraNPiaVAy0TkS33TiPDzZcyZ8xPtLUXTvTXNdO/GugLX41Z5qhHGozgg68jCBtUN1/jjYMM85Er/50BmQwJVJD2kdgRGq6XJpDl0Bq+SV7nqcogs9ki08yXl/smKGY7d3vX002WSlqr+mzpvnuXLiXQGr+A/d2jlBfVGi5jXIf9HvRU//3xvmTwFJc5EeSVNt7j6dUeOlyg+jaOcn57syh1RgkaxI8e+7pfWuzmfbJ0ottZL6Xh2Kf/SVTsqFTSXTiCdtHmz+QN5wNm1qmcdv/y5hKvkjic17/9LX1LpWL+COxHNrrMVb9yftWkff9L0Pgce60gIonWR24vecHYKNe3p9IzNNGmrqWr2Q2xy6AVb9xRMdtdyramsAL01X4zX5ebBh4VRTNGFz9yloPD7gZockA6IRONr1qSJuc8gNrEW/29eDMCo04UPdtFRiPbadsgx4L0Xin7pmtkmpPLjzKBwfGtU3nUM8fhGrd0AQ5oFNPuq9Wso8sL4XUE3X6oVcwVIuYC3e2lkIouBwWELlO20TNr3f15XNUMwhgsbefth84JQlIJre4zM4zYyPB6GGrk8XcQVL+YD1285aLKJ6rj0O1yZP2cF3Xc+eTJBIMoDT5SOlk3PgsXI59PBo23HYc87ytTCfkxr4+Owf3/j6i/M7uu+WxVzmkAtYRS931iOcmgtpw+DYFuRkwYaiaVA2KQfWvHE4DCSljAYEuKbr1mKmOeQC1qLfdPZggEJ5YupLrUvp99qrJ0NBdhY8sf+EIlSk+Vhq8tAlwQ8Mdfv/sph5apoTWHuVbAb1EyS6TyFnHKqLnsx9n5+TFd+QPj6o3HcVZ4E+Xnm6Ze741fEB4KZ9t5Uwww5MYC18saMW8d51lcDeXMp0++WO3XIguv/2UqafZQAWGRWugEUg8TLW3MotleX5IsoCFuZ23VHseBsgj8aSrtHWvyRBvS5GYUgg76VzgspWjev2pXupDB/BdFVfsvHKvVZawJd2nU6Q4zeIyRX9hC+4+lAfI6g5eEe5owPPBFbRrzt6ALASGFUvXVU3mwVlE9bgY8WT4y7/1nyuTOQHgrr9d5Q7OvBMYC347zbtHGRKwjX+n31xEbYx7sSodxVn2k6O+3FJHz0/eOcSRwfeEViLX9xdGItFejxKIvUSYAXEiTMlJYHHdNtLjB5Ys8TRgXcE1sLn22oxEqXNZ4NHGeCxEHkBrxgP6y52En7HhxbM+PRFjNK+1k0w/ekCC6p9sebgXZVUP4sTWNapn8m/pbGpOV3WNe3l34ZLKL0Da/7zu+MfrFTz9S7/m5wPpKYDny+albqDayupDryjxtKAlTRD6P78q3opkNVQqrolKEOQBMMc78I/+uWW/GpP+ppY97pKaqYDBViyWOb/ojkeakimj+UnK2Xh+8XK9INSwONv6l5XRV0ZOmssCVgYF+qrQvXjL6q8/Pmtp7sw2pPumRaNd5H403/Q48vM9lG0+54q6srQEVjzfr7T6RBwKvceMn7zKFxbYWRqRBSZG72nkri1QwVW4XO7CyM4JqXLpG0Y69IO6AYvN4/A2lEoiFmSKbR9A8aQJ+OwTFJiQnFkGr6fprVnvdjM2s+l8R5hDNIxMTufwz/+Q/cupyomB421o1CIZUnOu4PJYynsDHxvGpK/47O3porH4FeapOFv/2ZBG/qmIODQvdfyAMtO5NyfvdN4MbErxFdt86V5hMwZzAhyEMYNh+673m24QR77vJ++ZbqrwRZ3VjQ4NQ5/+b3poLQb/klTJv6xJePBbsOegMRz60FzN+3z1I8vwg0bEcb2BUDru++7lnoy2nFVWFi/oxAJ1o+FX44LXY7rIcAinhtdv4Ka7OcILAmscxt2xL/tLGulNN4rUxcRgXyNJ5P3To0+tix/hKHhUO0Kx/OFBmCRHUFJawFg/VO8GeEhXB4EjQOs5YCiYBy1laqC7IrI0mth/Z/S70KQDMUOn+CDHDyqia5f4c+5QonMwp/8adPFPcyN6v1XeuBUvafT+q+KVx/fI+V4lemuBB/b17LB9M1afbzGftTbSfX7wOzlAhg/N30s+j2+x2h99K9Wcl1lxPSxjNiPgwvwRvrel/Xov3Uvj/WetffnXF9bJWkhd/7+pfw+ew42f33yLTxhrW8OyNr5RtgLRrgmuv4GB01l1qWugBXXXPWNhTiWJZ3cCXF8i3hXWpD2IWPbxiLUvXv/DcyTz1YGuAaW2oAEMBjNqsUAN+qrxgzlb3wyZmow1jgurIQPUBRh2AZZow3R9TWO5wdpEv9/h6RKATNrq88AAAAASUVORK5CYII=;rotation=0;" vertex="1" parent="1">
          <mxGeometry x="1300" y="-824" width="50" height="50" as="geometry" />
        </mxCell>
        <mxCell id="cp8NjEBjRZy_50qt3RIU-49" value="&lt;font style=&quot;font-size: 14px;&quot;&gt;UsuÃ¡rio&lt;/font&gt;" style="text;html=1;align=center;verticalAlign=middle;resizable=0;points=[];autosize=1;strokeColor=none;fillColor=none;" vertex="1" parent="1">
          <mxGeometry x="1290" y="-854" width="70" height="30" as="geometry" />
        </mxCell>
        <mxCell id="cp8NjEBjRZy_50qt3RIU-109" style="edgeStyle=orthogonalEdgeStyle;rounded=0;orthogonalLoop=1;jettySize=auto;html=1;" edge="1" parent="1" source="cp8NjEBjRZy_50qt3RIU-105" target="cp8NjEBjRZy_50qt3RIU-106">
          <mxGeometry relative="1" as="geometry" />
        </mxCell>
        <mxCell id="cp8NjEBjRZy_50qt3RIU-105" value="" style="shape=image;verticalLabelPosition=bottom;labelBackgroundColor=default;verticalAlign=top;aspect=fixed;imageAspect=0;image=data:image/png,iVBORw0KGgoAAAANSUhEUgAAAJYAAACWCAYAAAA8AXHiAAAAAXNSR0IArs4c6QAAHxVJREFUeF7tXQt0VdWZ/ve5gSSENyQIiIZXIC9IgqiUEZPW2tKqo0UFW2vDmo610nGm7axOO1ohdmbaeTid1uKjrq6Edq3aaqeOHVtarSbgVNRCyAsSHiEXRZCAvJIQ8rhnD+ee9zl7n73Puefce+6Fs5YLb85+/Pv/v/3///73v/dBEPCDAAAH3Ifr5glErXjzvdwLk6cvB4yXAuBihGEeBnwlAJqOEJqIsZiDAEljGUYAfQDoJAAcxRj3IMD7EGS1jhWGdu4onXRKpsfFyF0UdT3WFFWQhnTJPstaz1+Hs/BqhOEmDLDSF0Yg2I1E/LoowNbdpeNf86XNNGzkkgPW8rYL82Iodh8AXgcILQpUZgiOQgw/jzD62a6lec2uNRlN84VIw9FIuWSAVdV67gbIytoAGK8NFEz0xl8RRHhy55K8l1LUf1K7zXhgLd1z/tqIiL8FCG4nchZjAOTABu295CkSynHXV3vHb4gC+l5LSd7vkirpJHeWscC67gCeODJ0/l8AYEOSeUrszmYyEHpeHB55pKVy0oEw0Oc3DRkJrMqOvnUIhMcBYJbfDPO1PQwxBOjru8rH/cDXdkPQmDOwgnASg2jTwMiqjoEfaVoq4L78kx/6NR6OPbC7asIJ/9pMbUsZo7GWtV+YL6LYFsB4JTL4TBhjSIffGEMPYLF295IJ21MLCQ+9EyZwRgCrcu/gKiSKvwCAmR7YEqoqCNDndpWN+3moiPJATNoDq6p94BYAeBEQZHkYv6sAuaf2PVRCGB7cVZ73lIeq5MhXClyCtAZWVeeFWyAW+19VADr/KKEBr5JKTb2vNJflbU5N14n3mrbAqmjvqxZA+CMAjvDFoSjMch2HsrQTYH0EuHZX2fgtiYs54BYyxcda2nKuKCsrsh0DzPDEshSYBk90SiFZjD+xq3z8K17rp6peWmqsqvaBHYDg+uCZlnqTigGO44hwfUtxbjTQ8SqTza85l3bAqtoz+DRg8UuBMtnauF/c9ko0hj82l+d93Fw9CKL8a9MlsPzr2AuPK9v7Pw8AP+WJS6mUWuNYIsYgpGGcCzDUNZfnbfLCt1TUcQmsVJAo97lsH56OR853AsD01FGRgp6lxYGaNBgRVjSXjHvLNyoC1BNpA6zK9r5nERK+6IqpATKOSoeGAzlrIq4xlSxa2r/xtpQkC6m8HlyzDABB0+7yCTWueJCiwmkBLCWyvs3Eo1SAhiQkNdxgAoSDNC24kYEnpTzTAagCT0Yo/uLupRN/kiK8cHebFsCq6hjYCgCfJI7KZRxJ9bmcNInajyxHVYFoKoWPucZ6Np1l6sHUnhGn8twxAi8OwEMtFZPm8xGRulKhB9ay9v6bMUJ/4GaRDQiKneFsIC5Ym0DlAyFEJWnSQFg5OWI1eoTO+Rq0HUWJ04fhod1Vk57gHFJKivkErODsUlV7/28A4FaS52HWKAbN4uaEjHaEiCpps2AcTRnZpJlNmVXODj6VOidUKam0ItjfUjk52Hz9BOHoE7ASpIJSfVlbfzlG0Ga2FWbV4eSbkIGntuYCSFQCCBPKBjyrK24zbXLrDuSYe1EKinB3yzWTX3DN+SB0AKHNUAOrsvXcfwDA151SEEw+CZJ9ItemjOy8kY0fQ8GYEWLguFJPp8++9lPpNr0xVjDSieDl1mVTb3UNrCRVSBmweCZOZWvfEQA822QRbDPbWdJ04OkAVP9PXZ3ZFJSjMCwEMYFntayyBlNnBBt4usbFozCn7fppR5KEFVfdpAxYLCorm8/cBAJ6lb2Kt5yz5hasAyAMxNmbs5gymkahDtCouhRAsZhhfG+cKRgear1ueiid+NACq6Ll7H8iDF8lLLfNi3emq8R0ehhitQBBcoYMWKYuKrS1hMswhaaQeOqh37deO221G1wmq2xogbV01+l2hKDMeqyPbip0TcJyhq3GiMunoUhE24tUCHUTaVcCnu7ueTAgGQHEsrKm5+66Bo0kCzC8/YQSWMs7+q8YGRo5ZgKIbUQyh2XBGp12mlNs8alMEXNedikRU7VDjrAGFgGQoNAXp9NtpF33qYiLGCR8rO266a+zR8Dj1bJb4S0RSmBVNp++TRSx5Sg6wTfh5FW8JgVI7kwZR4e2BjmdPopJN7sChDUnQt9qv77ge7wCD7KckTvhBNbO04+KINbFV2lx793FQ1oGStVZmNAEawYCV5zMRB7D6aPizEU9Y38I/bJtRcE6FxxKStHggMUSpMPwlv75w+cwxuuct1B4nFvS8o5TgyhVOfbuHF02++VgVNXEAD8VeO3tK2cucURLArLwisLggOWVootnuZa+c/IdAFguNWH2SRy2TKiuCHPZKNekFnOuz72YINHnPHOsWww04J1v/4uZefHmUwAgmpjDCay3T0g35c3k4pQtHGXfMlH5beI7F5AYWzZErjrExxwXGd5XtaNj8fSu6678MIG57HvVcALrrd5RDBDhc10Yps1Zzpa0FEOIiqnoHEwal5iMixFdY7Ij7/ZFDMpCxe0fmdXF1W2SCrkGFlnbKn/1QRWXNPaOj+TgPk++iQfTwi1I1Va6jbTbnTRO0RrCKYwMVBzD1+/96Jy3qQ37IBdOorViroHlpQN1XcczvsVvn5s2NjZ4UtcHllWhK01CsT2OgzBrEjbwLM5TQsBzv8Uj+aACitzYfuOsUF0mEjiw3AKxcvux/NEI9Gr1XJkyJTxBdKpolNhNiyuaLfExkmE2kSPtCCF6XI3ZtzbP9J6ECKpuXzXHnLrNbCjYAqED1rKdpyYNXxg6Qx+2Jc6kHFZwWnSZBWsIU/CoUK1hl+ENpZ5py4eR2x4nx4ZMdngEieLKjo8VvhksVNy0Hs/XCNdz1/M40jnz2Ki2/ndpWkw57ZRTMs6LOaatNVc3aiCO9b5x7ScDiZL4x1CwengEg4DFpR03zTMnRKZYrKEDlsSPsjfePwUYpnDxhp1XY2pGt1zyhWykTWN+4HGoPJcaiFTcbNntGmwUIlfu/9ic97n4laRCoQRW6fb3OwDjUvIiz2iSEhUsm8smIFJMmRm51mOBbFNmq+/coG2idP5pSwQ2bRLZo0leiVACq2zbkZcBw6flxErObACjkxX/f/cmzWzJ+OoHu+VjmDj0sFlP58fnzkseZPh6CiWwSpvefRwwfI00BI2/hpPD+oFPecvH8bEJiAEgqsIh17PTRz3XrLr3vFs3ZAuN4fddn5gXsmS/EDrvEvdKGw9/AQA1kBWPWaDqL6PCUldX5jwty5aJk3PswhSZFKPDDpCqQbVsCcLi1Nmwm+Nr2vxB8G+dN8//Bz49krxSssbicFWSRxJAyeuHSwFDh9wnw0dhujDOGokdALV04HKV6nV1q00URiKjiPHd+1YvdH8MLGCBhtIUxrXWa9EPAGCGzbBRcUJ3QoxJ8sicsk5gr0UjasfJ6JmpNm/amtLKI0SjDeUpr5QRhbGz99181VEXVRIsyqeFwgMsC73Fr/b8HAHcY/eYHDQI15gJ9R1YbV/+G8IUbnZgnFKhrfbcSI8JcOYBYoCWfZ8qqkwQKYFUDw+wLMMrfvXQfQjQFtspHYJpcHbWPUbadVvk3DwhuiArLB2AXJIjAogxUxD6btfqhf/I1X6SC4UWWPNe7Z6UjdEZw9FmLtakIvLuJkxBXzXSwyq0tYQgxlZ03lbi30VsXBzmKxRaYEnkl7zS/TzGcBe3RmKO2XKqR4uTcUS93IYpNI1nXRw5rzbY4QqtRPu+WxY7pyQz+RFcAd+AxeXeuBzHoq0HbkMAL+nnu1w4NRymRaJZClebN6nlzxfqiz+vcS4jshhOHPG13K/tMIf2eUX0jX23Lv53lyxNWnHfgOUPxXZ4Fm89sAcDlFDbt3vXfPETRw2k00Fqnrzo41uVOicwsiPtEh8wQEwYhRldnykOVTqyUUYhA5YdPsW/3bcBIyR9Ki7+2E930bMDTDB1G6agmjIrjeZ1K/sSEr1h0yUkDMWo9xqPlzyx//bSh/yZzMG0EjJgkQ3q4t/t6wGMChVo0S9/JQLPfj8VMSLMFKxkNAXbDXusHSRrgNd0cpsrwVUhzIjYWGz+/jVLDgUDCX9a5QcWjxPFU8YD3Yt/2/kljNHTsspyxJV2OEI9FsF2hkkaiM8kmWsaAUDfA7eGrLRwiiE8YfL5LORhQI8fvKP07z2wMalV+IHlkSy/sLbo5a43AcMKOxmWECoTeJSL2bj37uQONLfar5PaqqknzJs4D2X6To6O5C44dPf8sx7F4bGaeykGDiyPI7FVW/Sbro8C4Nfk7IV40ricPM6xd2eLVxsuOmOZMh2nii/HcQmJiXjakX8WY0irWgxfOnDnkh+zqobhfdoAS2JW0UudjwPgr9FMhXcAGQ0UwaehSUpNSzZaPodUY+K851zVYgwvHbxzye1hAA0PDSEGFln9Fv1Px58B0DX6hLbv3Tn5KBpTTBqBh1VWW0X29h3DE7bERb78MYTg1CiKVfWsqTrsgtJ4UfdGzG0P5PIhBhaZ4Pkvti0TQHgbWU9K03wUY0KgkuOutuzIdI4AK5FCRnyMFvAk7VHL9GEAAd11cM3SX/kj8gBaITAyTYBlpnzBi+33Igw/YwpW9Xod5i191WhPDIw3Z2UiZ6DVrim5vkgAGIuPdq+t+k4AcAi0yTQBlp0HRb9u+yYG9F3d+aYFoixIcPRp7FOPHa7gXoZSBGmh2/ATA3qme23FA4EiIKDG0xZYEj8W/KrtuwD4m+ZVGC3OxYiAUl7zXK7rnNdnAR4pZZUkXAzPdd9T9dmA5E5p1j+PLC2BZRz+whda/hUD+obuqPJrEO0qUR5kUoFH//KEFKcXDfWcxWZYjQroue61yQaVvxBOS2BZWbDwhZZvY4wfI62B2Ht3FCAyFJxOg4NG4pCVKSFQDs892/3Za+7nqJqcIh6VWPwjthJr0v1Z8ELrFwGLz7IGo5o27dSMMeDpeu/ODfN0jYQRki/btTwX/77p0D3L6tJdFqr1yIRxxMew8JfNq0QMz0qxVOLpGMIssusrwpcnFA5xTUIvkXaM+xBC93d/bvkvMkUYaW4K7aKe8dPWvAljR5/AGNZzCYkBBJKhNAVgTXdHGCP4HItAORyyVcgS/ubgumu6uehNk0KJA8txGtNecs19Awv5yld0DhYKo2ItIPhCbl9f4YdHe2F4aNgsCi8axdiC/Z4hZ9fftrmtfJRJEMSCGVNbh68o+GFz2Xj5cG4GPYkDK8XMiINJFGsB4AuAQcnZAijOFeCv88fAE+1HoeXdE4BFkfrtZSYyjAFWGsapzr7Zl5J+lVw5HR4omwUbjyv3eCAUBYybBCxs2Vme2+QnS/mmpJ89ym2lLbCq2gc2SZoJY1woXUekPtpFZwDw8KyxUJwjwMGBYfhJ53FoP3IScEy0pNAzwhNawzyRcoKADM3PuGIqPFQ2EyqmjIPtfTH48YkR7ZiYoZsowrBFBLGppXyCryDzHz70FtMKWAZTt5GHSasmROD+/DFa0fcuxKBhfy90HD0FAwOD8b+zN41JyDLqAeX/jQ0ZXK0x2WOhbPZU+HxRASyakK3R8s/HhqFzkHnzUIMYEepainOjpPGmShvx8D4tgOUWUOrA87MQfP8qXZhGhrx9oh9eip6Cjt6zEBu8QD3/ZQ5PmK/2kH1v+9H7SPZYWFQwCZZcMRnum0u+P+7eQxd45CMBP4oAmkgAuwwsLhaSCykmj0tDkVpQzaETCV3nhqDx2DnYe6ofTvYNQt/ABcCjo3IVhqVEEQGyc3NgxsRcmDM5D1bMmADV+fKHImiPZAIlU+jqQRAFTAaY1k6IkBZajVXR3lctIKFRO5ZDk4K6ylPfW5hbnIPg4VlkreUk2MODo3B6cBiOnB+B3qFRiIly7moEISjIiUDe2CwozMuGeXm6qeUFylffHYIT0icS4sDVDgqSq1vexzUYhi3N5XmbePtLRbmQAQtBRef5wkgM12PA1X4wRDKH9xeMiTvxYXhUp90HWqJiRKih+V8+tJ9QE6ECVqJmj8aJz0zJAum/MDyezCCdcMk8hlJ7hQZYyzrONzK1lFsfQinv5MQnC2wq6bxOuyu6EIqKAgqH9lIGmnJgSaYPxXAjAjm4qcehZK/ZGJcyv1ddFDnnXX1o5XmceFfC9FBYMoPP9A5z0csaj/W95HvhEJnGlAKrqqO/FgDVe5CR6ypSJP7hmWNd1/Ozgslp97NhtS0pgi/iUJjGlAFLAxUxYUrNX/Hv3/wIwPevzglCnFxtSsFQKShKuHzCcL2NT+MFVJfqVWMAwGI7QlUd/fWAQdrfS+ojrQ5XTSA78WyqEyP1x73D7mNXiXSJoKG5bDxfhkci/VDqBgAsZyor2s7VI0BJB5VEVf4YBP91dW4AbGQ3+XeHB+HESHJTKhGghuYlqQFXwMAy64HKtr7Gi9FjPT5lVRNJ+P3w7GwoyTV/vJUNi8RKbD83Cs8cH7ZnTidhvEjEDc0VE5OuuQIGli6QihZJU0Et+dSLesVG8P/eMDECD1zhPhKfCLT+6b0h2Ds4akjb4Ryn9hEpzvLaVSXm8tLHGFqSDC4uYCXqf1TsPleLEE7K6o8FgLg5nDuOVczX95/bP+Bre14awxgaWionJU1zcQHLy0DUOhW7T1cDRo2JtOF33Ufm5ELJuOSYw21nR+CZD4b8HoK39hCqa6mclJQ9Rn5geVBbFbtPFwKGHud8QlaeuP/vJVBJ4ErG87eHBhhOu//jM4/L0j7GdS3LpgQOLn5g2aTARlrFrtM9GHCh9etcYfj9yFWS1srSw0q0C88S+Pv2syPw9LFB974VIBABg0DxmRLkXxSJaH3L8imBZqcmACxGWGHnqUZAUK0mwsVLq1g0/KtlhVCOwwT1fs20bFiTn62lW9FGk4g+kUC17cxIPBWamNdliIcm+X0UpL3FyinEzFQ/NHkgwKp452QtRsnZqvHKhPwxAvxg4Xiv1bnqfXbvOa5yKSmEIdp67bS5QfXtO7AqdpwuxFlij0ZwIlNeasSH+tLVQ6SBfvvqPCiWnHgnLnD0T2p/+5kReProoC/0J0ofrf5FttS1LJ8WiL/lO7CWvnOiEQOqlpwX9WPeti9LKLdxpPp96fgx8MjVzmnE3DPa4nJ+J9oPnedj8ewMQAIAFm17gqke/8UdkCgS8PqW5fm++1scwGI76Vpo4Z2TtSLGUiCU5jL493f1IGgCznWBZA6LJnJjh7dg58AoPBbtJ7mU/o0/gXEb5QOAoq3XTffdJHIAi5edAEve6pUnqKFVq/Mdtvdr8nPgzhn+hh6efn8Atp2WT2CnYvyCtChQxMbVP+C6thUzfDWJvgFr6Y7e+ovJZrV2p8LqpITrd/5YBD9cNJl/9nCUfGjfWTgxrJ4ZDNd4yfKBqAjC+o4V/plEX4BVseNYYQwjJRDKvEbDJyXuXz+PzpsIJeOldJrEjfi2UxfgqSPnk+EM+EKvwWlpav/IFTUc84ariC/AKn/zA2nLpjoJm/Wm66/86u/GKdnw5Tn+OPGPdffB3oERU9hOlYRf9AbVHka4pmPFTF8c+YSBVfbGsWqEsLQS9GG+J8HpJ8zzgrECPFFMPrHMNT0Nhda2fugzH9T7uvzQpwz+Ioi2r5zpiyOfOLD+75h0EMKXM4Buhehn+S/PGQ83Tk0snWbbqSF46r1+P8lKflsI1revnJnwtUoJAUvSVgBiYxLmkkufJX6trCsfRPKxNi5IzIn/yt5TcGJYOjrv5KsZP0+XuE/nt47HGKJ7Vs1iay1GFCohYJVvf19ZCSoTK+xOBIO+RxdOBilo6uXZ0z8Cjx08Y77QNYn8iHflU38Xj+I1tK+anVDuVkLAKtt2xPGjaqzQatjeV0/LgQev9hYwffLwOWj60HyDTNjGZ50wDvRF99x4JVtrOcxAz8AqbTpSjxDU6tdJqzsW6lZO+v0uyI7Aj0qnKoSrFs0a4if/vntXr7Jzlb7jl3faZPpFEdbvrbnSs6/lHViN7xJuhgqfz+DWB9lYNBlKJ7g72Cppqiej0rcpfR5/fHfbv3idG/ow4Ojemqs8ay1PwCppfLcWAUj+FeOuSZYx8OLNBFtHAtXGInehh7r9p2FPn+USXTdkshnppjXfyiJANR01czzFtbwB6/XDUlqMfJFsOuxYGEdJoVedAvljI7Bp0VTIz6bkxBPmyt07P9CFGSg/DF/eVHsMsD8EqGnPR6/yFI13BhZF4ZS+dthwKTUrgJd+7++eNR7unD2ey7Bt7jkD205ecMhaSL/xGw06EsWajo/Pda21XGusktd6agFL2aGpsf3J6Dc/Ows2Ly2Iq2M5v5z+bGg9DieGpNhU5vFDya1v2HvTXP7Qg4JK98D6Y49uBn2z5uFraNPiaVAy0TkS33TiPDzZcyZ8xPtLUXTvTXNdO/GugLX41Z5qhHGozgg68jCBtUN1/jjYMM85Er/50BmQwJVJD2kdgRGq6XJpDl0Bq+SV7nqcogs9ki08yXl/smKGY7d3vX002WSlqr+mzpvnuXLiXQGr+A/d2jlBfVGi5jXIf9HvRU//3xvmTwFJc5EeSVNt7j6dUeOlyg+jaOcn57syh1RgkaxI8e+7pfWuzmfbJ0ottZL6Xh2Kf/SVTsqFTSXTiCdtHmz+QN5wNm1qmcdv/y5hKvkjic17/9LX1LpWL+COxHNrrMVb9yftWkff9L0Pgce60gIonWR24vecHYKNe3p9IzNNGmrqWr2Q2xy6AVb9xRMdtdyramsAL01X4zX5ebBh4VRTNGFz9yloPD7gZockA6IRONr1qSJuc8gNrEW/29eDMCo04UPdtFRiPbadsgx4L0Xin7pmtkmpPLjzKBwfGtU3nUM8fhGrd0AQ5oFNPuq9Wso8sL4XUE3X6oVcwVIuYC3e2lkIouBwWELlO20TNr3f15XNUMwhgsbefth84JQlIJre4zM4zYyPB6GGrk8XcQVL+YD1285aLKJ6rj0O1yZP2cF3Xc+eTJBIMoDT5SOlk3PgsXI59PBo23HYc87ytTCfkxr4+Owf3/j6i/M7uu+WxVzmkAtYRS931iOcmgtpw+DYFuRkwYaiaVA2KQfWvHE4DCSljAYEuKbr1mKmOeQC1qLfdPZggEJ5YupLrUvp99qrJ0NBdhY8sf+EIlSk+Vhq8tAlwQ8Mdfv/sph5apoTWHuVbAb1EyS6TyFnHKqLnsx9n5+TFd+QPj6o3HcVZ4E+Xnm6Ze741fEB4KZ9t5Uwww5MYC18saMW8d51lcDeXMp0++WO3XIguv/2UqafZQAWGRWugEUg8TLW3MotleX5IsoCFuZ23VHseBsgj8aSrtHWvyRBvS5GYUgg76VzgspWjev2pXupDB/BdFVfsvHKvVZawJd2nU6Q4zeIyRX9hC+4+lAfI6g5eEe5owPPBFbRrzt6ALASGFUvXVU3mwVlE9bgY8WT4y7/1nyuTOQHgrr9d5Q7OvBMYC347zbtHGRKwjX+n31xEbYx7sSodxVn2k6O+3FJHz0/eOcSRwfeEViLX9xdGItFejxKIvUSYAXEiTMlJYHHdNtLjB5Ys8TRgXcE1sLn22oxEqXNZ4NHGeCxEHkBrxgP6y52En7HhxbM+PRFjNK+1k0w/ekCC6p9sebgXZVUP4sTWNapn8m/pbGpOV3WNe3l34ZLKL0Da/7zu+MfrFTz9S7/m5wPpKYDny+albqDayupDryjxtKAlTRD6P78q3opkNVQqrolKEOQBMMc78I/+uWW/GpP+ppY97pKaqYDBViyWOb/ojkeakimj+UnK2Xh+8XK9INSwONv6l5XRV0ZOmssCVgYF+qrQvXjL6q8/Pmtp7sw2pPumRaNd5H403/Q48vM9lG0+54q6srQEVjzfr7T6RBwKvceMn7zKFxbYWRqRBSZG72nkri1QwVW4XO7CyM4JqXLpG0Y69IO6AYvN4/A2lEoiFmSKbR9A8aQJ+OwTFJiQnFkGr6fprVnvdjM2s+l8R5hDNIxMTufwz/+Q/cupyomB421o1CIZUnOu4PJYynsDHxvGpK/47O3porH4FeapOFv/2ZBG/qmIODQvdfyAMtO5NyfvdN4MbErxFdt86V5hMwZzAhyEMYNh+673m24QR77vJ++ZbqrwRZ3VjQ4NQ5/+b3poLQb/klTJv6xJePBbsOegMRz60FzN+3z1I8vwg0bEcb2BUDru++7lnoy2nFVWFi/oxAJ1o+FX44LXY7rIcAinhtdv4Ka7OcILAmscxt2xL/tLGulNN4rUxcRgXyNJ5P3To0+tix/hKHhUO0Kx/OFBmCRHUFJawFg/VO8GeEhXB4EjQOs5YCiYBy1laqC7IrI0mth/Z/S70KQDMUOn+CDHDyqia5f4c+5QonMwp/8adPFPcyN6v1XeuBUvafT+q+KVx/fI+V4lemuBB/b17LB9M1afbzGftTbSfX7wOzlAhg/N30s+j2+x2h99K9Wcl1lxPSxjNiPgwvwRvrel/Xov3Uvj/WetffnXF9bJWkhd/7+pfw+ew42f33yLTxhrW8OyNr5RtgLRrgmuv4GB01l1qWugBXXXPWNhTiWJZ3cCXF8i3hXWpD2IWPbxiLUvXv/DcyTz1YGuAaW2oAEMBjNqsUAN+qrxgzlb3wyZmow1jgurIQPUBRh2AZZow3R9TWO5wdpEv9/h6RKATNrq88AAAAASUVORK5CYII=;rotation=0;" vertex="1" parent="1">
          <mxGeometry x="865" y="-824" width="50" height="50" as="geometry" />
        </mxCell>
        <mxCell id="cp8NjEBjRZy_50qt3RIU-110" style="edgeStyle=orthogonalEdgeStyle;rounded=0;orthogonalLoop=1;jettySize=auto;html=1;" edge="1" parent="1" source="cp8NjEBjRZy_50qt3RIU-106" target="cp8NjEBjRZy_50qt3RIU-105">
          <mxGeometry relative="1" as="geometry" />
        </mxCell>
        <mxCell id="cp8NjEBjRZy_50qt3RIU-115" value="&lt;font style=&quot;font-size: 14px;&quot;&gt;InteraÃ§Ã£o com o Front&lt;/font&gt;" style="edgeLabel;html=1;align=center;verticalAlign=middle;resizable=0;points=[];" connectable="0" vertex="1" parent="cp8NjEBjRZy_50qt3RIU-110">
          <mxGeometry x="0.0982" y="1" relative="1" as="geometry">
            <mxPoint as="offset" />
          </mxGeometry>
        </mxCell>
        <mxCell id="cp8NjEBjRZy_50qt3RIU-106" value="" style="shape=image;verticalLabelPosition=bottom;labelBackgroundColor=default;verticalAlign=top;aspect=fixed;imageAspect=0;image=data:image/png,iVBORw0KGgoAAAANSUhEUgAAAGAAAABgCAYAAADimHc4AAAACXBIWXMAAAsTAAALEwEAmpwYAAADEElEQVR4nO2dPU8UURSGt5IfwU8xbKEzcZE1JtA4UyBkrpqgGBOxMPZAtDD+AtHSHou9YETjBxUWViY7ATQiUOHiFjPFNWeTTWR3B4Nx5l6d501OtZPs3Pc5X7fZrVQQQgghhBBCCCGEEPqNarXZIT+Mbnph9N4L1KEfKlOm8AJ1KGc/e0nNiheFJsyZyWvDXqA+2DbBdyS8INoQTwoxX2hjvhoIoZBKkLZjO+N8R8MLohu5A/BCtW77oL6rEUTvcgfgh1HL+kFDVyNqFQAg+wUuXJ02c08mzOKLsU7ceTpuLs5MZT4fXp8yr1ZGTfvLSCferJ4z07cmjz3kvfuPzM7evkmSxErs7O6Zu4sPM9/PGgAxf17XzYPX54/Ewkq989kg879vVo3ZP30kWlvVzmdZ3yMG2DK/G1+/7boHQDK/1/xuzC2N9z0vmW96zO/Gmq5lHtC2+d1wDoC0nCwAC6tjfc9LyzEZAH58HgHA3wVQPxGAw+0qAE4KQAZuFoDbjyf6npeBazIAvGyMAuCkAGTbkYHba/68HjP1K/1DWLad1lb/ED7YrJpg5jJD+I/X0KXxTs+XkMwfZP6vm9CarnV6voRk/nHmS8gKaHMTkg3IyTWUUADwHUgEKiAEgPUs9KkA+0b4tCD7Zvj/4wzQcWqINNMDAMR2EwQAMQBK3aIqzIAUALazUFMB9o3QtCD7ZugyzQC13LYS2tL7AGAZAFRATAsytCBHZ4BmCAOg1FuQpgIAUOoKUNwDAJCLqIA2N2FFC3J/Bmi2IACUegZoKgAApa4AxT0AALmICmhzD1C0IPdngGYLAkCpZ4CmAgBQ6gpQ3AMAkIuogDb3AEULcn8GaLYgAJR6BmgqAAClrgDFPQAAuYgKaHMPULQg+9uGdjSstSAiLQZAI05amJ1mJFxyUACAdB0A6WAAzTT/n6/XcTILgHQggEYzyf8PHJ5/MkO6mW4AIe3N/o1nH82pShFa2TbDQEiPmC+eVIqU0JaSk75XxsHciJNWo5m+FQ8Ky3yEEEIIIYQQQgghVPmX9ROt/4yIWQ3XBgAAAABJRU5ErkJggg==;rotation=0;" vertex="1" parent="1">
          <mxGeometry x="860" y="-584" width="60" height="60" as="geometry" />
        </mxCell>
        <mxCell id="cp8NjEBjRZy_50qt3RIU-101" style="edgeStyle=orthogonalEdgeStyle;rounded=0;orthogonalLoop=1;jettySize=auto;html=1;" edge="1" parent="1" source="cp8NjEBjRZy_50qt3RIU-6" target="cp8NjEBjRZy_50qt3RIU-5">
          <mxGeometry relative="1" as="geometry" />
        </mxCell>
        <mxCell id="cp8NjEBjRZy_50qt3RIU-114" value="&lt;span style=&quot;background-color: rgb(255, 255, 255);&quot;&gt;&lt;font style=&quot;font-size: 14px;&quot;&gt;Chama API&lt;/font&gt;&lt;/span&gt;" style="edgeLabel;html=1;align=center;verticalAlign=middle;resizable=0;points=[];" connectable="0" vertex="1" parent="cp8NjEBjRZy_50qt3RIU-101">
          <mxGeometry x="-0.1202" y="-1" relative="1" as="geometry">
            <mxPoint x="-23" y="1" as="offset" />
          </mxGeometry>
        </mxCell>
        <mxCell id="cp8NjEBjRZy_50qt3RIU-116" value="&lt;font style=&quot;font-size: 14px;&quot;&gt;Front&lt;/font&gt;" style="text;html=1;align=center;verticalAlign=middle;resizable=0;points=[];autosize=1;strokeColor=none;fillColor=none;" vertex="1" parent="1">
          <mxGeometry x="910" y="-569" width="60" height="30" as="geometry" />
        </mxCell>
        <mxCell id="cp8NjEBjRZy_50qt3RIU-117" value="&lt;font style=&quot;font-size: 14px;&quot;&gt;UsuÃ¡rio&lt;/font&gt;" style="text;html=1;align=center;verticalAlign=middle;resizable=0;points=[];autosize=1;strokeColor=none;fillColor=none;" vertex="1" parent="1">
          <mxGeometry x="905" y="-814" width="70" height="30" as="geometry" />
        </mxCell>
        <mxCell id="cp8NjEBjRZy_50qt3RIU-118" value="&lt;font style=&quot;font-size: 36px;&quot;&gt;&lt;b&gt;Interface&lt;/b&gt;&lt;/font&gt;" style="text;html=1;align=center;verticalAlign=middle;resizable=0;points=[];autosize=1;strokeColor=none;fillColor=none;" vertex="1" parent="1">
          <mxGeometry x="805" y="-904" width="170" height="60" as="geometry" />
        </mxCell>
        <mxCell id="VR_d9GR8fqseAN5zqrYm-1" value="" style="shape=image;verticalLabelPosition=bottom;labelBackgroundColor=default;verticalAlign=top;aspect=fixed;imageAspect=0;editableCssRules=.*;image=data:image/svg+xml,PHN2ZyB4bWxucz0iaHR0cDovL3d3dy53My5vcmcvMjAwMC9zdmciIHZpZXdCb3g9Ii01Ljk2MDQ2NDQ3NzUzOTA2M2UtOCAwLjQwNTU3ODczMjQ5MDUzOTU1IDE4IDE3LjI3NjQyMjUwMDYxMDM1IiBoZWlnaHQ9IjE3LjI3NjQyMjUwMDYxMDM1IiB3aWR0aD0iMTgiIGlkPSJ1dWlkLWZiYmJlZWRmLTdmMDMtNGQ2Mi1iMGYwLWE0YjY4OWMwNDFkOSI+PGRlZnM+PGxpbmVhckdyYWRpZW50IGdyYWRpZW50VW5pdHM9InVzZXJTcGFjZU9uVXNlIiBncmFkaWVudFRyYW5zZm9ybT0ibWF0cml4KDEsIDAsIDAsIDEsIDAsIDApIiB5Mj0iMTMuMzc3IiB4Mj0iOSIgeTE9IjE2LjY4NiIgeDE9IjkiIGlkPSJ1dWlkLTdjZDBhZTQ3LTY0MTQtNGI5My1hYmM5LWE3MDUxOTcwMTM3YSI+PHN0b3Agc3RvcC1jb2xvcj0iIzM3YzJiMSIgb2Zmc2V0PSIuMDAxIi8+PHN0b3Agc3RvcC1jb2xvcj0iIzNjZDRjMiIgb2Zmc2V0PSIxIi8+PC9saW5lYXJHcmFkaWVudD48bGluZWFyR3JhZGllbnQgZ3JhZGllbnRVbml0cz0idXNlclNwYWNlT25Vc2UiIGdyYWRpZW50VHJhbnNmb3JtPSJ0cmFuc2xhdGUoMCA3OTEuNTE2KSBzY2FsZSgxIC0xKSIgeTI9Ijc5MS4xMDgiIHgyPSI4Ljk4NSIgeTE9Ijc3OS4xNTgiIHgxPSI4Ljk4NSIgaWQ9InV1aWQtYjEwMWFlNDUtNDYxYS00ZGU3LWIxYTAtZjNlMjllYTk2Y2M3Ij48c3RvcCBzdG9wLWNvbG9yPSIjMDA3OGQ0IiBvZmZzZXQ9IjAiLz48c3RvcCBzdG9wLWNvbG9yPSIjMTM4MGRhIiBvZmZzZXQ9Ii4xNTYiLz48c3RvcCBzdG9wLWNvbG9yPSIjM2M5MWU1IiBvZmZzZXQ9Ii41MjgiLz48c3RvcCBzdG9wLWNvbG9yPSIjNTU5Y2VjIiBvZmZzZXQ9Ii44MjIiLz48c3RvcCBzdG9wLWNvbG9yPSIjNWVhMGVmIiBvZmZzZXQ9IjEiLz48L2xpbmVhckdyYWRpZW50PjwvZGVmcz48Zz48cGF0aCBmaWxsPSJ1cmwoI3V1aWQtN2NkMGFlNDctNjQxNC00YjkzLWFiYzktYTcwNTE5NzAxMzdhKSIgZD0iTTE4LDE2LjY4NkgwbDMuMzMyLTMuMTQ5Yy4xMDgtLjEwMiwuMjUxLS4xNiwuNC0uMTZIMTQuNjhjLjA4MywwLC4xNjUsLjAxOSwuMjQsLjA1MywuMDc2LC4wMzUsLjE0MywuMDg1LC4xOTgsLjE0N2wyLjg4MiwzLjEwOVoiLz48cGF0aCBmaWxsPSIjM2NkNGMyIiBkPSJNMCwxNi42ODZIMTh2LjQxYzAsLjE1NS0uMDYyLC4zMDUtLjE3MiwuNDE0cy0uMjU5LC4xNzItLjQxNCwuMTcySC41ODZjLS4xNTUsMC0uMzA0LS4wNjItLjQxNC0uMTcyLS4xMS0uMTEtLjE3Mi0uMjU5LS4xNzItLjQxNHYtLjQxWiIvPjxwYXRoIGZpbGw9InVybCgjdXVpZC1iMTAxYWU0NS00NjFhLTRkZTctYjFhMC1mM2UyOWVhOTZjYzcpIiBkPSJNMTcuNDMsOC42MThjLS4wMjYtLjg5OS0uMzcxLTEuNzU5LS45NzQtMi40MjYtLjYwMy0uNjY3LTEuNDI0LTEuMDk3LTIuMzE2LTEuMjE0LS4wNTItMS4yNTYtLjU5OC0yLjQ0Mi0xLjUyLTMuMjk3LS45MjEtLjg1Ni0yLjE0NC0xLjMxMy0zLjQtMS4yNzMtMS4wMTQtLjAxNy0yLjAwOCwuMjgxLTIuODQ2LC44NTItLjgzOCwuNTcxLTEuNDc5LDEuMzg4LTEuODM0LDIuMzM4LTEuMDc4LC4xMjQtMi4wNzUsLjYzMi0yLjgwOSwxLjQzMS0uNzM0LC43OTktMS4xNTcsMS44MzUtMS4xOTEsMi45MTksLjAxOCwuNjA4LC4xNTYsMS4yMDYsLjQwNywxLjc2LC4yNTEsLjU1NCwuNjA4LDEuMDUzLDEuMDUzLDEuNDY3LC40NDQsLjQxNSwuOTY3LC43MzcsMS41MzcsLjk0OSwuNTcsLjIxMiwxLjE3NiwuMzA4LDEuNzg0LC4yODRIMTMuNjNjMS4wMDMtLjAxLDEuOTYyLS40MTMsMi42NzItMS4xMjEsLjcxLS43MDgsMS4xMTUtMS42NjYsMS4xMjgtMi42NjlaIi8+PHBhdGggZmlsbD0iI2YyZjJmMiIgZD0iTTYuMzYsNi44NjhsMi42NC0yLjU5Yy4wMjgtLjAyOSwuMDYxLS4wNTIsLjA5OC0uMDY3LC4wMzctLjAxNiwuMDc3LS4wMjQsLjExNy0uMDI0cy4wOCwuMDA4LC4xMTcsLjAyNGMuMDM3LC4wMTYsLjA3LC4wMzgsLjA5OCwuMDY3bDIuNTcsMi41OWMuMDIyLC4wMTgsLjAzOCwuMDQzLC4wNDUsLjA3LC4wMDcsLjAyOCwuMDA0LC4wNTctLjAwNywuMDgzLS4wMTEsLjAyNi0uMDMxLC4wNDgtLjA1NiwuMDYyLS4wMjUsLjAxNC0uMDU0LC4wMTktLjA4MiwuMDE1aC0xLjYyYy0uMDM2LC4wMDItLjA3MSwuMDE4LS4wOTYsLjA0NC0uMDI2LC4wMjYtLjA0MSwuMDYtLjA0NCwuMDk2bC0uMDIxLDUuMDcyYzAsLjAyOS0uMDEyLC4wNTctLjAzMiwuMDc4LS4wMjEsLjAyMS0uMDQ5LC4wMzItLjA3OCwuMDMyaC0xLjc0Yy0uMDI5LDAtLjA1Ny0uMDEyLS4wNzgtLjAzMi0uMDIxLS4wMjEtLjAzMi0uMDQ5LS4wMzItLjA3OGwuMDIxLTUuMDcyYzAtLjAzNS0uMDEzLS4wNy0uMDM3LS4wOTYtLjAyNC0uMDI2LS4wNTctLjA0Mi0uMDkzLS4wNDRoLTEuNmMtLjAyNywuMDAyLS4wNTQtLjAwNi0uMDc3LS4wMnMtLjA0MS0uMDM2LS4wNTEtLjA2MmMtLjAxLS4wMjUtLjAxMi0uMDUzLS4wMDUtLjA4LC4wMDctLjAyNiwuMDIyLS4wNSwuMDQzLS4wNjhaIi8+PC9nPjwvc3ZnPg==;rotation=0;" vertex="1" parent="1">
          <mxGeometry x="440" y="-344" width="50" height="50" as="geometry" />
        </mxCell>
        <mxCell id="VR_d9GR8fqseAN5zqrYm-5" value="ESP 32" style="shape=image;verticalLabelPosition=bottom;labelBackgroundColor=default;verticalAlign=top;aspect=fixed;imageAspect=0;editableCssRules=.*;image=data:image/svg+xml,PHN2ZyB4bWxucz0iaHR0cDovL3d3dy53My5vcmcvMjAwMC9zdmciIHZpZXdCb3g9IjAuNTAwMDAwMjk4MDIzMjIzOSAxLjUgMTcgMTUiIGhlaWdodD0iMTUiIHdpZHRoPSIxNyIgaWQ9ImUwMDUwNzIxLWU4ZDgtNGM3OS1hZTUwLWQ4ZmMyODcxZDkzMiI+PGRlZnM+PGxpbmVhckdyYWRpZW50IGdyYWRpZW50VW5pdHM9InVzZXJTcGFjZU9uVXNlIiB5Mj0iMS41IiB4Mj0iOS4wMSIgeTE9IjE2LjUiIHgxPSI5LjAxIiBpZD0iZmNhZDMyODctYjcxYy00NGZhLTk3MWEtNmExOGJjZjM4NGEwIj48c3RvcCBzdG9wLWNvbG9yPSIjNWU5NjQxIiBvZmZzZXQ9IjAiLz48c3RvcCBzdG9wLWNvbG9yPSIjNmJhYTQyIiBvZmZzZXQ9IjAuMzQiLz48c3RvcCBzdG9wLWNvbG9yPSIjNzNiNzQzIiBvZmZzZXQ9IjAuNjciLz48c3RvcCBzdG9wLWNvbG9yPSIjNzZiYjQzIiBvZmZzZXQ9IjEiLz48L2xpbmVhckdyYWRpZW50PjwvZGVmcz48dGl0bGU+SWNvbi1uZXR3b3JraW5nLTgwPC90aXRsZT48cGF0aCBmaWxsPSIjZmZjYTAwIiBkPSJNMTUuODksMi45MWgxLjI3YS4zNC4zNCwwLDAsMSwuMzQuMzR2My41YS4zNC4zNCwwLDAsMS0uMzQuMzRIMTUuODlhMCwwLDAsMCwxLDAsMFYyLjkxQTAsMCwwLDAsMSwxNS44OSwyLjkxWiIvPjxwYXRoIGZpbGw9IiNmZmNhMDAiIGQ9Ik0xNS44OSw5aDEuMjdhLjM0LjM0LDAsMCwxLC4zNC4zNHY1Ljg2YS4zNC4zNCwwLDAsMS0uMzQuMzRIMTUuODlhMCwwLDAsMCwxLDAsMFY5QTAsMCwwLDAsMSwxNS44OSw5WiIvPjxyZWN0IGZpbGw9InVybCgjZmNhZDMyODctYjcxYy00NGZhLTk3MWEtNmExOGJjZjM4NGEwKSIgcng9IjAuNjkiIGhlaWdodD0iMTUiIHdpZHRoPSIxMy43NiIgeT0iMS41IiB4PSIyLjEzIi8+PHBhdGggZmlsbD0iI2I0ZWMzNiIgZD0iTTUuOSwxMi45SDUuMTlBLjIuMiwwLDAsMSw1LDEyLjY5VjQuMzRhLjE5LjE5LDAsMCwxLC4xOS0uMkg3LjEyYS4xOS4xOSwwLDAsMSwuMTkuMi4yLjIsMCwwLDEtLjE5LjIxSDUuMzh2Ny45M0g1LjlhLjIuMiwwLDAsMSwuMTkuMjFBLjIxLjIxLDAsMCwxLDUuOSwxMi45WiIvPjxwYXRoIGZpbGw9IiNiNGVjMzYiIGQ9Ik02LDEzLjkySDQuNGEuMi4yLDAsMCwxLS4xOS0uMjFMNC4wOCwzLjM4YS4yLjIsMCwwLDEsLjA2LS4xNS4xNi4xNiwwLDAsMSwuMTMtLjA2SDcuMTJ2LjQxSDQuNDdsLjEyLDkuOTJINloiLz48cGF0aCBmaWxsPSIjYjRlYzM2IiBkPSJNMTIsMTNIMTAuNDFhLjE5LjE5LDAsMCwxLS4xNC0uMDcuMTguMTgsMCwwLDEtLjA2LS4xNFY3LjlhLjE5LjE5LDAsMCwxLC4xOS0uMmwuOTEsMCwwLTIuMjVoLjM4bDAsMi40NGEuMi4yLDAsMCwxLS4xOC4yMWwtLjkxLDB2NC40MkgxMloiLz48cmVjdCBmaWxsPSIjMzY1NjE1IiByeD0iMC4yNiIgaGVpZ2h0PSIzLjExIiB3aWR0aD0iNi4xNCIgeT0iMi4yOSIgeD0iNy4wNyIvPjxyZWN0IGZpbGw9IiMzNjU2MTUiIHRyYW5zZm9ybT0idHJhbnNsYXRlKDIxLjU0IDQuOTMpIHJvdGF0ZSg5MCkiIHJ4PSIwLjI2IiBoZWlnaHQ9IjEuMDkiIHdpZHRoPSI0LjkiIHk9IjEyLjY5IiB4PSI1Ljg2Ii8+PHJlY3QgZmlsbD0iIzM2NTYxNSIgdHJhbnNmb3JtPSJ0cmFuc2xhdGUoMTkuNyA2LjgyKSByb3RhdGUoOTApIiByeD0iMC4yNiIgaGVpZ2h0PSIxLjA5IiB3aWR0aD0iNC45IiB5PSIxMi43MSIgeD0iMy45OSIvPjxyZWN0IGZpbGw9IiNmMmYyZjIiIHRyYW5zZm9ybT0idHJhbnNsYXRlKDI1LjY4IDAuODMpIHJvdGF0ZSg5MCkiIHJ4PSIwLjI2IiBoZWlnaHQ9IjEuMDkiIHdpZHRoPSI0LjkiIHk9IjEyLjcxIiB4PSI5Ljk4Ii8+PGVsbGlwc2UgZmlsbD0iI2YyZjJmMiIgcnk9IjEuMTIiIHJ4PSIxLjA0IiBjeT0iOC4wNiIgY3g9IjguMTEiLz48cGF0aCBmaWxsPSIjM2IzYjNiIiB0cmFuc2Zvcm09InRyYW5zbGF0ZSgyLjYxIDE3Ljk1KSByb3RhdGUoMTgwKSIgZD0iTS41LDUuN0gxLjc3QS4zNC4zNCwwLDAsMSwyLjExLDZ2NS44NmEuMzQuMzQsMCwwLDEtLjM0LjM0SC41YTAsMCwwLDAsMSwwLDBWNS43QTAsMCwwLDAsMSwuNSw1LjdaIi8+PC9zdmc+;rotation=0;" vertex="1" parent="1">
          <mxGeometry x="1300" y="-579" width="50" height="50" as="geometry" />
        </mxCell>
      </root>
    </mxGraphModel>
  </diagram>
</mxfile>
